<?xml version="1.0" standalone="no"?>
<!DOCTYPE svg PUBLIC "-//W3C//DTD SVG 1.1//EN" "http://www.w3.org/Graphics/SVG/1.1/DTD/svg11.dtd" >
<svg>
<metadata>
Created by FontForge 20120731 at Fri Jun 15 14:12:09 2018
 By www
Copyright (c) 2014 ParaType, Inc., ParaType Ltd. All rights reserved.
</metadata>
<defs>
<font id="StemW03-Medium" horiz-adv-x="620" >
  <font-face 
    font-family="StemW03-Medium"
    font-weight="500"
    font-stretch="normal"
    units-per-em="1000"
    panose-1="2 11 6 3 2 2 3 2 2 4"
    ascent="800"
    descent="-200"
    x-height="520"
    cap-height="700"
    bbox="-491 -278 1295 962"
    underline-thickness="50"
    underline-position="-75"
    unicode-range="U+0020-FEFF"
  />
<missing-glyph horiz-adv-x="236" 
 />
    <glyph glyph-name="uniF3D6" unicode="&#xf350;`" horiz-adv-x="605" 
d="M-2 0l261 560h88l261 -560h-123l-53 109h-261l-53 -109h-120zM301 387l-89 -179h177zM437 769l-127 -158l-76 54l118 168z" />
    <glyph glyph-name="uniF3D7" unicode="&#xf355;`" horiz-adv-x="550" 
d="M58 0v560h448v-109h-331v-114h309v-106h-309v-122h339v-109h-456zM417 769l-127 -158l-76 54l118 168z" />
    <glyph glyph-name="uniF3D8" unicode="&#xf358;`" horiz-adv-x="638" 
d="M154 0h-96v560h117v-351l307 351h98v-560h-117v352zM444 769l-127 -158l-76 54l118 168z" />
    <glyph glyph-name="uniF3D9" unicode="&#xf35e;`" horiz-adv-x="665" 
d="M27 280q0 58 23.5 111t65.5 92t98.5 61t118.5 22t118 -21.5t98 -60t65.5 -91.5t23.5 -113t-23.5 -113t-65.5 -91.5t-98 -60t-118 -21.5t-118 21.5t-98.5 60t-66 91.5t-23.5 113zM149 280q0 -48 24.5 -89.5t69 -62.5t90.5 -21q28 0 58.5 8t58 28t47 54.5t19.5 82.5
t-22.5 86t-64.5 62.5t-96 24.5q-36 0 -69.5 -12t-59.5 -34.5t-40.5 -55t-14.5 -71.5zM474 769l-127 -158l-76 54l118 168z" />
    <glyph glyph-name="uniF3DA" unicode="&#xf363;`" horiz-adv-x="609" 
d="M168 13l44 102q7 -5 18 -5q27 0 47 33l3 5l-280 412h144l196 -292l147 292h123l-218 -429q-34 -66 -71 -98.5t-88 -32.5q-40 0 -65 13zM441 769l-127 -158l-76 54l118 168z" />
    <glyph glyph-name="uniF3DB" unicode="&#xf36b;`" horiz-adv-x="742" 
d="M568 0v560h117v-560h-117zM272 261h-97v-152h95q66 0 98 18t32 61q0 73 -128 73zM175 560v-189h99q121 0 184.5 -49t63.5 -134q0 -92 -67 -140t-188 -48h-209v560h117zM474 769l-127 -158l-76 54l118 168z" />
    <glyph glyph-name="uniF3DC" unicode="&#xf36d;`" horiz-adv-x="598" 
d="M174 231v109h275q-6 25 -26 53t-62 46t-97 18q-47 0 -96 -18t-81 -55l-78 75q42 52 112.5 79.5t147.5 27.5q68 0 124.5 -20t96 -57t60.5 -90t21 -117q0 -61 -20.5 -114.5t-60.5 -92t-98.5 -60t-129.5 -21.5q-86 0 -152.5 30.5t-106.5 86.5l78 67q15 -19 41.5 -37.5
t65.5 -28t78 -9.5q76 0 125.5 35t58.5 93h-276zM401 769l-127 -158l-76 54l118 168z" />
    <glyph glyph-name="uniF3DD" unicode="&#xf36e;`" horiz-adv-x="861" 
d="M58 0v560h117v-225h74q8 49 33 92t63.5 74t88 48t105.5 17q65 0 120 -21t94 -59.5t60 -91.5t21 -114q0 -60 -22 -113t-62 -91.5t-94.5 -60t-116.5 -21.5q-119 0 -198 64.5t-93 176.5h-73v-235h-117zM364 280q0 -29 9 -59.5t30.5 -56.5t55.5 -43.5t80 -17.5q79 0 126 48.5
t47 128.5t-48 128.5t-125 48.5q-76 0 -125.5 -49t-49.5 -128zM584 769l-127 -158l-76 54l118 168z" />
    <glyph glyph-name="uniF3DE" unicode="&#xf36f;`" horiz-adv-x="591" 
d="M417 0v188h-117l-160 -188h-139l180 209q-65 19 -101.5 61t-36.5 102q0 50 27 95t85.5 69t132.5 24h246v-560h-117zM273 297h144v154h-136q-117 0 -117 -78q0 -31 30.5 -53t78.5 -23zM437 769l-127 -158l-76 54l118 168z" />
    <glyph glyph-name="uniF3DF" unicode="&#xf371;`" horiz-adv-x="550" 
d="M82 698q0 25 19 41.5t44 16.5q24 0 44.5 -17t20.5 -41q0 -26 -20.5 -43t-44.5 -17q-25 0 -44 17t-19 43zM366 698q0 25 20 41.5t46 16.5q25 0 45 -17t20 -41q0 -26 -19.5 -43t-45.5 -17q-27 0 -46.5 17t-19.5 43zM383 789l-102 -164l-57 21l60 173zM58 0v560h448v-109
h-331v-114h309v-106h-309v-122h339v-109h-456z" />
    <glyph glyph-name="uniF460" unicode="&#x410;`" horiz-adv-x="704" 
d="M-1 0l307 700h92l307 -700h-127l-68 155h-319l-67 -155h-125zM350 525l-115 -266h230zM535 849l-220 -104l-43 76l210 128z" />
    <glyph glyph-name="uniF461" unicode="&#x415;`" horiz-adv-x="645" 
d="M70 0v700h520v-114h-399v-176h373v-110h-373v-186h409v-114h-530zM515 849l-220 -104l-43 76l210 128z" />
    <glyph glyph-name="uniF462" unicode="&#x418;`" horiz-adv-x="747" 
d="M171 0h-101v700h121v-485l384 485h102v-700h-121v485zM552 849l-220 -104l-43 76l210 128z" />
    <glyph glyph-name="uniF463" unicode="&#x41e;`" horiz-adv-x="782" 
d="M33 350q0 73 27.5 139t76.5 115t115 76.5t139 27.5t138.5 -26.5t115 -75t77 -115t27.5 -141.5t-27.5 -141t-77 -114.5t-115 -75.5t-138.5 -27q-72 0 -138 26.5t-115.5 75t-77 115t-27.5 141.5zM159 350q0 -52 18.5 -97t51 -77.5t74.5 -50t88 -17.5q48 0 90.5 17.5
t74.5 49.5t49.5 77.5t17.5 97.5t-18.5 97.5t-51.5 77.5t-75 49.5t-87 17.5q-46 0 -88.5 -17.5t-74.5 -49.5t-50.5 -77t-18.5 -98zM555 849l-220 -104l-43 76l210 128z" />
    <glyph glyph-name="uniF464" unicode="&#x423;`" horiz-adv-x="707" 
d="M196 14l47 101q12 -5 23 -5q33 0 67 70l-333 520h149l246 -393l185 393h127l-259 -538q-38 -81 -80 -123t-105 -42q-36 0 -67 17zM542 849l-220 -104l-43 76l210 128z" />
    <glyph glyph-name="uniF465" unicode="&#x42b;`" horiz-adv-x="865" 
d="M675 0v700h121v-700h-121zM318 340h-127v-226h125q84 0 125.5 27.5t41.5 89.5q0 109 -165 109zM191 700v-247h130q141 0 214.5 -59.5t73.5 -162.5q0 -113 -78 -172t-219 -59h-242v700h121zM609 849l-220 -104l-43 76l210 128z" />
    <glyph glyph-name="uniF466" unicode="&#x42d;`" horiz-adv-x="701" 
d="M204 301v113h337q-14 83 -76 132t-158 49q-40 0 -85 -14t-77.5 -38t-51.5 -47l-80 78q24 33 66 64t106 50.5t128 19.5q80 0 146.5 -25t113 -71.5t71 -113t24.5 -145.5q0 -77 -24.5 -143.5t-71.5 -115t-115 -75.5t-152 -27q-60 0 -116.5 16t-102 46.5t-79.5 78.5l82 69
q17 -23 49 -46.5t79 -37t93 -13.5q96 0 159 54t74 142h-339zM485 849l-220 -104l-43 76l210 128z" />
    <glyph glyph-name="uniF467" unicode="&#x42e;`" horiz-adv-x="997" 
d="M70 0v700h121v-291h89q9 63 38 118t74 95.5t103.5 63t124.5 22.5q75 0 139.5 -26.5t110 -74.5t70 -114.5t24.5 -142.5q0 -36 -8.5 -82t-31.5 -92t-64 -88t-104.5 -69t-135.5 -27q-139 0 -232 85t-109 227h-88v-304h-121zM400 350q0 -53 16.5 -98.5t46.5 -78t70.5 -50.5
t86.5 -18q48 0 89 18t69.5 50.5t44 78t15.5 98.5q0 39 -10.5 81.5t-40 83t-75 60.5t-92.5 20q-46 0 -86.5 -17.5t-70.5 -50.5t-46.5 -78.5t-16.5 -98.5zM752 849l-220 -104l-43 76l210 128z" />
    <glyph glyph-name="uniF468" unicode="&#x42f;`" horiz-adv-x="691" 
d="M500 0v246h-155l-197 -246h-145l217 267q-80 20 -124 73.5t-44 131.5q0 48 17.5 89.5t53.5 72.5t90 48.5t123 17.5h285v-700h-121zM315 359h185v228h-173q-48 0 -83.5 -14t-50.5 -41t-15 -60q0 -46 37.5 -78t99.5 -35zM549 849l-220 -104l-43 76l210 128z" />
    <glyph glyph-name="uniF469" unicode="&#x401;`" horiz-adv-x="645" 
d="M110 821q0 26 20 44t49 18q25 0 46 -18t21 -44t-20.5 -44t-46.5 -18q-29 0 -49 17.5t-20 44.5zM425 821q0 26 20.5 44t48.5 18q26 0 46.5 -17.5t20.5 -44.5q0 -26 -20.5 -44t-46.5 -18q-28 0 -48.5 17.5t-20.5 44.5zM433 917l-94 -152l-66 17l52 168zM70 0v700h520v-114
h-399v-176h373v-110h-373v-186h409v-114h-530z" />
    <glyph glyph-name="uniF46A" unicode="&#x430;`" horiz-adv-x="534" 
d="M109 371l-56 84q36 35 95.5 56t122.5 21q102 0 157.5 -56t55.5 -158v-318h-114v57q-25 -28 -66.5 -45.5t-94.5 -17.5q-85 0 -137 44.5t-52 119.5q0 42 18 73.5t51 52t77.5 30t96.5 9.5q25 0 56.5 -4t50.5 -10q1 56 -24.5 86.5t-87.5 30.5q-41 0 -76 -13t-73 -42zM234 93
q23 0 50 7.5t49.5 25t36.5 38.5v50q-16 5 -43.5 9.5t-51.5 4.5q-137 0 -137 -69q0 -30 26.5 -48t69.5 -18zM418 755l-127 -157l-77 54l118 167z" />
    <glyph glyph-name="uniF46B" unicode="&#x435;`" horiz-adv-x="569" 
d="M449 166l70 -69q-39 -52 -93.5 -79t-117.5 -27q-61 0 -113 19t-89 54.5t-57 86t-20 110.5q0 57 17.5 106.5t51.5 86.5t84.5 57.5t113.5 20.5q51 0 96 -17t78.5 -48.5t51.5 -76t18 -96.5q0 -26 -6 -73h-386q7 -61 52.5 -92.5t109.5 -31.5q41 0 78.5 19t60.5 50zM291 429
q-56 0 -93.5 -29.5t-48.5 -79.5h273q-7 52 -41.5 80.5t-89.5 28.5zM445 755l-127 -157l-77 54l118 167z" />
    <glyph glyph-name="uniF46C" unicode="&#x438;`" horiz-adv-x="596" 
d="M152 0h-99v520h114v-339l276 339h99v-520h-114v338zM454 755l-127 -157l-77 54l118 167z" />
    <glyph glyph-name="uniF46D" unicode="&#x43e;`" horiz-adv-x="615" 
d="M29 261q0 57 20 107.5t57.5 87t89 56.5t111.5 20t111.5 -20t89 -56.5t58 -87t20.5 -107.5t-20.5 -107t-58 -86.5t-89 -56.5t-111.5 -20q-59 0 -110.5 20t-89 56.5t-58 86.5t-20.5 107zM147 261q0 -71 45 -117.5t115 -46.5q72 0 116.5 45t44.5 119q0 37 -15.5 75t-55 64
t-90.5 26q-69 0 -114.5 -45t-45.5 -120zM459 755l-127 -157l-77 54l118 167z" />
    <glyph glyph-name="uniF46E" unicode="&#x443;`" horiz-adv-x="548" 
d="M75 -194l45 97q11 -6 23 -6q47 0 82 87l18 47l-256 489h132l179 -351l138 351h122l-204 -505q-45 -112 -90.5 -168t-116.5 -56q-42 0 -72 15zM431 755l-127 -157l-77 54l118 167z" />
    <glyph glyph-name="uniF46F" unicode="&#x44b;`" horiz-adv-x="696" 
d="M53 0v520h114v-151h90q75 0 123 -21.5t72.5 -62t24.5 -99.5q0 -58 -26.5 -99t-76.5 -64t-125 -23h-196zM248 263h-81v-157h80q59 0 85.5 20t26.5 59t-26.5 58.5t-84.5 19.5zM529 0v520h114v-520h-114zM474 755l-127 -157l-77 54l118 167z" />
    <glyph glyph-name="uniF470" unicode="&#x44d;`" horiz-adv-x="547" 
d="M155 216v99h243q-12 56 -53 83.5t-104 27.5q-31 0 -62.5 -10t-54.5 -28.5t-36 -37.5l-83 61q43 59 106 90t139 31q60 0 110 -19t85.5 -54.5t54.5 -86t19 -111.5q0 -57 -18.5 -106.5t-54 -86t-87 -57t-114.5 -20.5q-56 0 -104 14t-82 39t-54 62l83 60q50 -69 147 -69
q50 0 88 18.5t55 47t22 53.5h-245zM393 755l-127 -157l-77 54l118 167z" />
    <glyph glyph-name="uniF471" unicode="&#x44e;`" horiz-adv-x="815" 
d="M53 0v520h114v-202h90q18 96 88 155t172 59q58 0 108 -20t86 -56.5t55.5 -87t19.5 -107.5t-19.5 -107t-56 -86.5t-86.5 -56.5t-107 -20q-106 0 -176.5 61.5t-85.5 162.5h-88v-215h-114zM370 261q0 -74 42 -119t106 -45q66 0 108 45t42 119t-41.5 119.5t-108.5 45.5
q-63 0 -105.5 -46t-42.5 -119zM575 755l-127 -157l-77 54l118 167z" />
    <glyph glyph-name="uniF472" unicode="&#x44f;`" horiz-adv-x="539" 
d="M272 520h214v-520h-114v171h-97l-132 -171h-133l150 190q-54 13 -86.5 56t-32.5 102q0 55 27 93t77.5 58.5t126.5 20.5zM159 344q0 -30 26.5 -48.5t73.5 -18.5h113v137h-110q-53 0 -78 -18.5t-25 -51.5zM452 755l-127 -157l-77 54l118 167z" />
    <glyph glyph-name="uniF473" unicode="&#x451;`" horiz-adv-x="569" 
d="M89 672q0 25 19 41.5t44 16.5q24 0 44 -17t20 -41q0 -27 -20 -44t-44 -17q-25 0 -44 17t-19 44zM373 672q0 25 20 41.5t46 16.5q25 0 44.5 -17t19.5 -41q0 -27 -19 -44t-45 -17q-27 0 -46.5 17t-19.5 44zM390 762l-103 -164l-56 22l60 173zM449 166l70 -69
q-39 -52 -93.5 -79t-117.5 -27q-61 0 -113 19t-89 54.5t-57 86t-20 110.5q0 57 17.5 106.5t51.5 86.5t84.5 57.5t113.5 20.5q51 0 96 -17t78.5 -48.5t51.5 -76t18 -96.5q0 -26 -6 -73h-386q7 -61 52.5 -92.5t109.5 -31.5q41 0 78.5 19t60.5 50zM291 429q-56 0 -93.5 -29.5
t-48.5 -79.5h273q-7 52 -41.5 80.5t-89.5 28.5z" />
    <glyph glyph-name="uniFB01" unicode="fi" horiz-adv-x="579" 
d="M3 414v106h84v17q0 66 22.5 110t63 67.5t96.5 23.5q20 0 42 -4.5t36 -12.5l-40 -99q-12 10 -32 10q-74 0 -74 -98v-14h133v-106h-133v-414h-114v414h-84zM396 0v520h114v-520h-114zM386 669q0 25 19.5 42.5t47.5 17.5q27 0 46.5 -17.5t19.5 -42.5q0 -26 -19 -44t-47 -18
q-29 0 -48 17.5t-19 44.5z" />
    <glyph glyph-name="uniFB02" unicode="fl" horiz-adv-x="511" 
d="M338 0v606q-22 26 -63 26q-74 0 -74 -98v-14h83v-106h-83v-414h-114v414h-84v106h84v17q0 66 22.5 110t63 67.5t96.5 23.5q27 0 55.5 -9t48.5 -23l79 29v-735h-114z" />
    <glyph glyph-name=".notdef" horiz-adv-x="236" 
 />
    <glyph glyph-name=".null" horiz-adv-x="0" 
 />
    <glyph glyph-name="nonmarkingreturn" horiz-adv-x="333" 
 />
    <glyph glyph-name="space" unicode=" " horiz-adv-x="236" 
 />
    <glyph glyph-name="exclam" unicode="!" horiz-adv-x="309" 
d="M96 215v485h118v-485h-118zM73 73q0 12 7.5 29t27.5 30.5t46 13.5q33 0 56.5 -23t23.5 -50q0 -29 -23.5 -52t-56.5 -23q-35 0 -58 22.5t-23 52.5z" />
    <glyph glyph-name="quotedbl" unicode="&#x22;" horiz-adv-x="440" 
d="M73 452v248h116v-248h-116zM251 452v248h116v-248h-116z" />
    <glyph glyph-name="numbersign" unicode="#" horiz-adv-x="707" 
d="M290 16l64 175h-122l-77 -208l-102 33l65 175h-78v99h115l46 120h-161v99h197l77 208l102 -33l-66 -175h123l76 208l102 -32l-66 -176h82v-99h-118l-45 -120h163v-99h-200l-76 -208zM314 410l-46 -120h124l43 120h-121z" />
    <glyph glyph-name="dollar" unicode="$" 
d="M471 190q0 40 -36.5 64t-126.5 46t-125.5 35.5t-60.5 29t-43.5 35.5t-29 48t-10.5 62q0 70 58 124t152 69v80h115v-78q66 -7 123.5 -32.5t96.5 -64.5l-66 -86q-45 37 -95.5 55t-112.5 18q-43 0 -76.5 -10t-51.5 -28t-18 -44q0 -19 11 -34.5t38.5 -30t116.5 -36.5t124 -36
t57 -27.5t40.5 -32.5t31.5 -48t13 -69q0 -51 -27 -94t-79.5 -73.5t-125.5 -37.5v-86h-115v91q-70 12 -132.5 45.5t-97.5 75.5l72 85q45 -47 110 -73.5t137 -26.5q29 0 61 7.5t52 28t20 49.5z" />
    <glyph glyph-name="percent" unicode="%" horiz-adv-x="907" 
d="M154 32l514 696l86 -62l-510 -686zM37 525q0 28 9.5 58.5t33 57t61.5 44.5t88 18q29 0 61.5 -8.5t61 -30t48.5 -56.5t20 -83q0 -77 -54.5 -127t-136.5 -50q-29 0 -62 8.5t-61.5 30t-48.5 56.5t-20 82zM150 525q0 -17 8 -36.5t28 -32.5t43 -13q33 0 55.5 23t22.5 59
q0 35 -23 58t-55 23t-55.5 -23t-23.5 -58zM487 174q0 28 9.5 58.5t33 56.5t61.5 44t88 18q29 0 61.5 -8.5t64.5 -32.5t48.5 -61t16.5 -75q0 -77 -55 -127.5t-136 -50.5q-82 0 -137 50.5t-55 127.5zM600 174q0 -35 24 -58t55 -23q32 0 55 23t23 58q0 36 -23.5 59t-54.5 23
q-32 0 -55.5 -23t-23.5 -59z" />
    <glyph glyph-name="ampersand" unicode="&#x26;" horiz-adv-x="783" 
d="M780 0h-154q-19 14 -34 27t-31.5 28.5t-22.5 21.5q-28 -27 -66.5 -48t-79.5 -29.5t-76 -8.5q-60 0 -111 14.5t-87 41.5t-55 63.5t-19 79.5q0 51 24.5 91.5t65 73.5t108.5 74q-63 80 -63 148q0 41 22 71t58 45.5t85 15.5q84 0 126 -35.5t42 -96.5q0 -22 -11 -51.5t-39 -61
t-65 -56.5q34 -56 140 -169q31 44 50.5 108.5t19.5 135.5h116q0 -62 -16 -133t-41.5 -122t-49.5 -79q73 -81 164 -149zM321 100q39 0 76.5 16.5t57.5 40.5q-110 124 -152 181q-89 -56 -110 -82.5t-21 -54.5q0 -18 12.5 -41.5t48 -41.5t88.5 -18zM301 561q0 -9 5 -23t33 -51
q51 36 51 75q0 20 -11.5 33t-32.5 13q-22 0 -33.5 -12t-11.5 -35z" />
    <glyph glyph-name="quotesingle" unicode="'" horiz-adv-x="262" 
d="M73 452v248h116v-248h-116z" />
    <glyph glyph-name="parenleft" unicode="(" horiz-adv-x="342" 
d="M332 -135l-77 -67q-74 64 -122.5 139t-74 157.5t-25.5 168.5q0 84 25.5 165.5t74 157t122.5 142.5l76 -67q-60 -56 -99.5 -119t-61 -133t-21.5 -146q0 -40 8.5 -88t33 -107.5t64 -113t77.5 -89.5z" />
    <glyph glyph-name="parenright" unicode=")" horiz-adv-x="341" 
d="M88 -201l-78 67q33 29 66 70.5t59 93.5t41.5 112t15.5 121q0 76 -21.5 146t-60.5 133t-99 119l76 67q74 -67 122 -142.5t73.5 -157t25.5 -165.5q0 -55 -12 -114t-37.5 -119.5t-68.5 -120t-102 -110.5z" />
    <glyph glyph-name="asterisk" unicode="*" horiz-adv-x="500" 
d="M309 700l-5 -123l119 43l33 -107l-121 -34l79 -99l-96 -69l-68 100l-68 -101l-96 69l79 101l-121 34l33 107l121 -43l-4 122h115z" />
    <glyph glyph-name="plus" unicode="+" horiz-adv-x="599" 
d="M64 309v101h182v182h106v-182h184v-101h-184v-184h-106v184h-182z" />
    <glyph glyph-name="comma" unicode="," horiz-adv-x="254" 
d="M119 0q-16 -2 -33.5 5.5t-28.5 26.5t-11 37q0 22 12 41.5t31 27.5t37 8q43 0 63 -32.5t20 -77.5q0 -42 -20 -78t-55.5 -63.5t-76.5 -36.5l-28 66q26 5 56.5 29.5t33.5 46.5z" />
    <glyph glyph-name="hyphen" unicode="-" horiz-adv-x="416" 
d="M69 227v101h278v-101h-278z" />
    <glyph glyph-name="period" unicode="." horiz-adv-x="251" 
d="M45 73q0 12 7.5 29t27.5 30.5t46 13.5q33 0 56.5 -23t23.5 -50q0 -29 -23.5 -52t-56.5 -23q-35 0 -58 22.5t-23 52.5z" />
    <glyph glyph-name="slash" unicode="/" horiz-adv-x="357" 
d="M-37 -164l328 881l102 -33l-329 -887z" />
    <glyph glyph-name="zero" unicode="0" horiz-adv-x="680" 
d="M37 350q0 76 20 142t58.5 114t95.5 74.5t128 26.5t128.5 -26.5t96.5 -74.5t59 -114t20 -142q0 -77 -19.5 -143t-58 -113.5t-96 -74t-128.5 -26.5t-128.5 26.5t-96.5 74.5t-59 113.5t-20 142.5zM161 350q0 -115 47.5 -178.5t132.5 -63.5q89 0 133.5 62.5t44.5 179.5
t-45.5 179.5t-134.5 62.5q-86 0 -132 -63.5t-46 -178.5z" />
    <glyph glyph-name="one" unicode="1" horiz-adv-x="397" 
d="M2 588l235 114h76v-702h-116v559l-154 -71z" />
    <glyph glyph-name="two" unicode="2" horiz-adv-x="618" 
d="M135 478l-105 42q26 89 101 138t178 49q118 0 185 -57t67 -150q0 -99 -57.5 -173.5t-194.5 -168.5l-80 -46h354v-112h-543v89l158 115q3 3 9.5 7.5t48.5 37t72.5 59.5t53.5 53.5t39 57t16 62.5q0 24 -11.5 50t-43 43t-75.5 17q-35 0 -69 -12t-61 -39t-42 -62z" />
    <glyph glyph-name="three" unicode="3" horiz-adv-x="609" 
d="M141 500l-103 46q27 76 101 119.5t172 43.5q54 0 100.5 -12.5t80.5 -35.5t53 -56t19 -72q0 -59 -31.5 -102.5t-81.5 -57.5q22 -5 52 -21t53 -52t23 -91q0 -49 -20.5 -89.5t-57 -69t-84.5 -43.5t-101 -15q-40 0 -86 9.5t-87.5 31t-72.5 55.5t-46 78l110 46
q10 -22 33.5 -46.5t62.5 -41t76 -16.5q63 0 105.5 27t42.5 73t-39.5 70.5t-130.5 24.5h-68v110h72q67 0 109.5 27.5t42.5 67.5t-39.5 63.5t-99.5 23.5q-45 0 -78 -14.5t-52 -37t-30 -43.5z" />
    <glyph glyph-name="four" unicode="4" horiz-adv-x="668" 
d="M414 0v133h-396v78l413 489h100v-460h119v-107h-119v-133h-117zM178 240h236v269z" />
    <glyph glyph-name="five" unicode="5" horiz-adv-x="609" 
d="M58 317l32 383h457v-113h-351l-15 -155q50 25 124 25q125 0 193.5 -63t68.5 -167q0 -52 -20 -96t-56 -75t-86 -47.5t-107 -16.5q-15 0 -50.5 3.5t-69 15.5t-60.5 29t-53 46.5t-42 75.5l112 41q13 -33 43.5 -56t65 -31t60.5 -8q32 0 64 10.5t53.5 39t21.5 65.5
q0 59 -40.5 92t-111.5 33q-82 0 -132 -41z" />
    <glyph glyph-name="six" unicode="6" horiz-adv-x="666" 
d="M37 331q0 91 25.5 163t71 119.5t107 71.5t131.5 24q38 0 81.5 -9t81.5 -31t65 -51l-67 -85q-30 26 -72.5 42.5t-90.5 16.5q-42 0 -81 -14t-69 -42t-46.5 -70t-16.5 -95q32 47 90.5 77t121.5 30q124 0 195.5 -64t71.5 -172q0 -54 -20.5 -101t-58.5 -80.5t-89.5 -51.5
t-111.5 -18q-70 0 -129.5 22.5t-101.5 66t-65 107.5t-23 144zM176 255q6 -37 27 -72t62.5 -55.5t95.5 -20.5q63 0 107 36t44 93q0 62 -40 95.5t-116 33.5q-29 0 -67.5 -13t-72 -42t-40.5 -55z" />
    <glyph glyph-name="seven" unicode="7" horiz-adv-x="574" 
d="M15 587v113h544v-76l-330 -624h-127l314 587h-401z" />
    <glyph glyph-name="eight" unicode="8" horiz-adv-x="678" 
d="M325 411h29q56 0 96.5 26.5t40.5 68.5q0 28 -16 48t-50.5 32t-86.5 12q-65 0 -108.5 -24.5t-43.5 -66.5q0 -19 13 -41.5t47 -38.5t79 -16zM352 308h-24q-74 0 -119 -29.5t-45 -72.5q0 -48 46.5 -76.5t128.5 -28.5q80 0 127 27.5t47 75.5q0 49 -42 76.5t-119 27.5zM340 -8
q-65 0 -120.5 14t-95.5 40.5t-62 64.5t-22 84q0 57 31 102.5t86 65.5q-38 16 -60 43.5t-28.5 55.5t-6.5 50q0 89 74 142.5t203 53.5q132 0 204.5 -53t72.5 -143q0 -48 -27.5 -88t-77.5 -59q127 -32 127 -166q0 -48 -22.5 -87t-63 -65.5t-95.5 -40.5t-117 -14z" />
    <glyph glyph-name="nine" unicode="9" horiz-adv-x="660" 
d="M623 369q0 -92 -24.5 -164t-69 -119.5t-104 -71t-127.5 -23.5q-38 0 -81.5 9t-81.5 31t-65 51l67 85q30 -26 72.5 -42.5t90.5 -16.5q31 0 65.5 9.5t68.5 37t51 71t17 89.5q-26 -39 -83.5 -64t-122.5 -25q-121 0 -193.5 64.5t-72.5 167.5q0 54 22 100.5t61 80t90 52
t106 18.5q69 0 127 -22.5t100 -66t64.5 -107.5t22.5 -144zM488 432q-1 43 -25.5 80.5t-63.5 59t-89 21.5q-45 0 -85 -21t-55.5 -50.5t-15.5 -57.5q0 -37 19.5 -68t57 -46t79.5 -15q26 0 64 11t72.5 36.5t41.5 49.5z" />
    <glyph glyph-name="colon" unicode=":" horiz-adv-x="321" 
d="M80 73q0 12 7.5 29t27.5 30.5t46 13.5q33 0 56.5 -23t23.5 -50q0 -29 -23.5 -52t-56.5 -23q-35 0 -58 22.5t-23 52.5zM80 447q0 12 7.5 29t27.5 30.5t46 13.5q33 0 56.5 -23t23.5 -50q0 -29 -23.5 -52t-56.5 -23q-35 0 -58 22.5t-23 52.5z" />
    <glyph glyph-name="semicolon" unicode=";" horiz-adv-x="320" 
d="M150 0q-16 -2 -33.5 5.5t-28.5 26.5t-11 37q0 22 12 41.5t31 27.5t37 8q43 0 63 -32.5t20 -77.5q0 -42 -20 -78t-55.5 -63.5t-76.5 -36.5l-28 66q26 5 56.5 29.5t33.5 46.5zM78 447q0 12 7.5 29t27.5 30.5t46 13.5q33 0 56.5 -23t23.5 -50q0 -29 -23.5 -52t-56.5 -23
q-35 0 -58 22.5t-23 52.5z" />
    <glyph glyph-name="less" unicode="&#x3c;" horiz-adv-x="556" 
d="M481 53l-453 285v47l453 282v-123l-295 -183l295 -185v-123z" />
    <glyph glyph-name="equal" unicode="=" horiz-adv-x="579" 
d="M64 402v99h452v-99h-452zM64 217v99h452v-99h-452z" />
    <glyph glyph-name="greater" unicode="&#x3e;" horiz-adv-x="556" 
d="M528 338l-453 -285v123l297 185l-297 183v123l453 -282v-47z" />
    <glyph glyph-name="question" unicode="?" horiz-adv-x="610" 
d="M446 500q0 18 -10 39.5t-44 37t-94 15.5q-30 0 -62 -10.5t-57.5 -37.5t-39.5 -65l-109 31q19 92 91 145t175 53q50 0 99.5 -9t88 -31.5t62.5 -59t24 -88.5q0 -37 -12 -72t-41.5 -63t-79 -51.5t-66 -33t-25.5 -21t-10.5 -20t-1.5 -11.5q0 -8 2 -18.5t2 -15.5l-109 -1
q-7 24 -7 54q0 36 19 61.5t44 41t79.5 42.5t68 48.5t13.5 39.5zM198 73q0 12 7.5 29t27.5 30.5t46 13.5q33 0 56.5 -23t23.5 -50q0 -29 -23.5 -52t-56.5 -23q-35 0 -58 22.5t-23 52.5z" />
    <glyph glyph-name="at" unicode="@" horiz-adv-x="970" 
d="M587 0v33q-19 -18 -51.5 -29.5t-69.5 -11.5q-36 0 -69 10t-60 28.5t-47.5 44.5t-35 65.5t-14.5 91.5q0 51 19.5 96.5t55.5 79.5t84.5 52.5t103.5 18.5q53 0 105 -15t93 -45v-313q54 8 82 52t28 122q0 65 -23.5 118t-66 89.5t-101 55.5t-126.5 19q-69 0 -130.5 -24
t-107 -68t-71 -104.5t-25.5 -129.5q0 -68 24.5 -128t69 -104.5t107 -69.5t133.5 -25q72 0 132 19l8 -103q-28 -8 -68 -13.5t-72 -5.5q-98 0 -181 33t-141.5 91.5t-89.5 137.5t-31 168q0 115 53 213t156 156.5t234 58.5q94 0 173.5 -27.5t136 -78t86.5 -121.5t30 -155
q0 -52 -15.5 -102.5t-47 -91t-79 -64.5t-106.5 -24h-85zM486 94q29 0 57.5 17t43.5 41v202q-16 10 -40 16.5t-45 6.5q-62 0 -103.5 -42.5t-41.5 -106.5q0 -60 36 -97t93 -37z" />
    <glyph glyph-name="A" unicode="A" horiz-adv-x="704" 
d="M-1 0l307 700h92l307 -700h-127l-68 155h-319l-67 -155h-125zM350 525l-115 -266h230z" />
    <glyph glyph-name="B" unicode="B" horiz-adv-x="675" 
d="M70 0v700h297q84 0 137 -19.5t80 -57.5t27 -99q0 -52 -22.5 -92t-61.5 -64q51 -16 79.5 -57.5t28.5 -106.5q0 -66 -30 -110t-90 -69t-154 -25h-291zM361 302h-170v-188h162q82 0 119 23t37 74q0 47 -35 69t-113 22zM351 586h-160v-174h173q57 0 89.5 23t32.5 62
q0 46 -30 67.5t-105 21.5z" />
    <glyph glyph-name="C" unicode="C" horiz-adv-x="692" 
d="M606 200l71 -78q-43 -60 -119.5 -95t-164.5 -35q-80 0 -147.5 25.5t-114.5 72.5t-72.5 114t-25.5 146q0 73 25.5 139t73 115t114.5 76.5t145 27.5q91 0 164.5 -34t110.5 -87l-80 -76q-35 39 -84 60t-105 21q-53 0 -97 -17t-75.5 -49t-48.5 -77.5t-17 -98.5
q0 -108 68 -175t175 -67q31 0 68 8t73 30t63 54z" />
    <glyph glyph-name="D" unicode="D" horiz-adv-x="716" 
d="M70 0v700h219q104 0 180.5 -27t123.5 -73.5t68.5 -108.5t21.5 -132q0 -75 -24.5 -141t-74.5 -114.5t-128 -76t-180 -27.5h-206zM287 586h-96v-472h94q52 0 102 12t87.5 40.5t60 76t22.5 116.5q0 78 -31.5 127.5t-90 74.5t-148.5 25z" />
    <glyph glyph-name="E" unicode="E" horiz-adv-x="645" 
d="M70 0v700h520v-114h-399v-176h373v-110h-373v-186h409v-114h-530z" />
    <glyph glyph-name="F" unicode="F" horiz-adv-x="615" 
d="M70 0v700h515v-114h-394v-198h368v-114h-368v-274h-121z" />
    <glyph glyph-name="G" unicode="G" horiz-adv-x="715" 
d="M380 264v110h302v-271q-35 -38 -87 -65t-102 -36.5t-87 -9.5q-79 0 -148 25.5t-119.5 73t-78 114t-27.5 145.5q0 73 26.5 139t75 115t115.5 76.5t143 27.5q87 0 161 -30.5t112 -82.5l-81 -77q-31 35 -79 54.5t-107 19.5q-109 0 -174.5 -66t-65.5 -176q0 -56 18.5 -101.5
t52 -76.5t79.5 -47.5t99 -16.5q42 0 84 12t74 37v107h-186z" />
    <glyph glyph-name="H" unicode="H" horiz-adv-x="749" 
d="M558 0v297h-367v-297h-121v700h121v-289h367v289h121v-700h-121z" />
    <glyph glyph-name="I" unicode="I" horiz-adv-x="261" 
d="M70 0v700h121v-700h-121z" />
    <glyph glyph-name="J" unicode="J" horiz-adv-x="486" 
d="M419 700v-483q0 -107 -57 -166t-153 -59q-41 0 -84 13t-78 45.5t-54 71.5l90 68q16 -26 36 -47t41.5 -29.5t38.5 -8.5q58 1 78.5 35t20.5 100v460h121z" />
    <glyph glyph-name="K" unicode="K" horiz-adv-x="680" 
d="M70 0v700h121v-307l314 307h158l-318 -314l341 -386h-161l-271 305l-63 -61v-244h-121z" />
    <glyph glyph-name="L" unicode="L" horiz-adv-x="598" 
d="M70 0v700h121v-586h397v-114h-518z" />
    <glyph glyph-name="M" unicode="M" horiz-adv-x="844" 
d="M70 0v700h107l250 -325l241 325h106v-700h-121v485l-213 -278h-31l-218 279v-486h-121z" />
    <glyph glyph-name="N" unicode="N" horiz-adv-x="738" 
d="M668 0h-94l-386 477v-477h-118v700h94l386 -479v479h118v-700z" />
    <glyph glyph-name="O" unicode="O" horiz-adv-x="782" 
d="M33 350q0 73 27.5 139t76.5 115t115 76.5t139 27.5t138.5 -26.5t115 -75t77 -115t27.5 -141.5t-27.5 -141t-77 -114.5t-115 -75.5t-138.5 -27q-72 0 -138 26.5t-115.5 75t-77 115t-27.5 141.5zM159 350q0 -52 18.5 -97t51 -77.5t74.5 -50t88 -17.5q48 0 90.5 17.5
t74.5 49.5t49.5 77.5t17.5 97.5t-18.5 97.5t-51.5 77.5t-75 49.5t-87 17.5q-46 0 -88.5 -17.5t-74.5 -49.5t-50.5 -77t-18.5 -98z" />
    <glyph glyph-name="P" unicode="P" horiz-adv-x="678" 
d="M191 0h-121v700h283q142 0 216.5 -58.5t74.5 -171.5q0 -70 -34 -121.5t-98 -80t-160 -28.5h-161v-240zM357 587h-166v-234h159q85 0 126.5 31t41.5 87q0 54 -38.5 85t-122.5 31z" />
    <glyph glyph-name="Q" unicode="Q" horiz-adv-x="782" 
d="M33 350q0 73 27.5 139t76.5 115t115 76.5t139 27.5t138.5 -26.5t115 -75t77 -115t27.5 -141.5q0 -52 -14.5 -102.5t-39 -88.5t-48.5 -62l65 -79l-84 -68l-68 83q-76 -41 -169 -41q-75 0 -141.5 26.5t-115 75t-75 114.5t-26.5 142zM159 350q0 -53 17.5 -98t49.5 -77
t74.5 -49.5t90.5 -17.5q52 0 98 24l-57 67l77 66l60 -73q25 29 39.5 70t14.5 88q0 53 -17.5 98t-49.5 77t-74.5 49.5t-90.5 17.5q-36 0 -75 -11.5t-78 -44t-59 -83t-20 -103.5z" />
    <glyph glyph-name="R" unicode="R" horiz-adv-x="683" 
d="M191 0h-121v700h275q96 0 156.5 -26.5t90 -74.5t29.5 -117q0 -44 -18.5 -87t-55.5 -73t-80 -42l210 -280h-147l-191 257h-148v-257zM342 586h-151v-215h157q32 0 67.5 10t57.5 36.5t22 64.5q0 56 -40 80t-113 24z" />
    <glyph glyph-name="S" unicode="S" horiz-adv-x="631" 
d="M476 190q0 40 -36.5 64t-126.5 46t-125.5 35.5t-60.5 29t-43.5 35.5t-29 48t-10.5 62q0 40 20 76t57 63.5t88 43t109 15.5q83 0 154 -26.5t117 -73.5l-66 -86q-45 37 -95.5 55t-112.5 18q-43 0 -76.5 -10t-51.5 -28t-18 -44q0 -19 11 -34.5t38.5 -30t116.5 -36.5t124 -36
t57 -27.5t40.5 -32.5t31.5 -48t13 -69q0 -44 -21 -83t-58 -66.5t-86.5 -42.5t-103.5 -15q-43 0 -101.5 12.5t-116 44.5t-90.5 71l72 85q45 -47 110 -73.5t137 -26.5q29 0 61 7.5t52 28t20 49.5z" />
    <glyph glyph-name="T" unicode="T" horiz-adv-x="593" 
d="M1 586v114h591v-114h-235v-586h-121v586h-235z" />
    <glyph glyph-name="U" unicode="U" horiz-adv-x="726" 
d="M662 700v-402q0 -77 -24 -136t-65.5 -96.5t-93.5 -55t-108 -17.5q-61 0 -117 20t-99 59t-67.5 98.5t-24.5 133.5v396h121v-381q0 -95 52 -154t135 -59q53 0 90 23.5t58.5 69.5t21.5 116v385h121z" />
    <glyph glyph-name="V" unicode="V" horiz-adv-x="722" 
d="M728 700l-316 -700h-86l-333 700h131l246 -525l230 525h128z" />
    <glyph glyph-name="W" unicode="W" horiz-adv-x="967" 
d="M966 700l-207 -700h-101l-171 487l-166 -487h-102l-218 700h126l149 -484l163 484h99l166 -482l142 482h120z" />
    <glyph glyph-name="X" unicode="X" horiz-adv-x="682" 
d="M667 700l-253 -345l262 -355h-148l-187 257l-187 -257h-147l262 355l-251 345h145l179 -245l179 245h146z" />
    <glyph glyph-name="Y" unicode="Y" horiz-adv-x="671" 
d="M678 700l-283 -397v-303h-121v303l-281 397h150l193 -279l197 279h145z" />
    <glyph glyph-name="Z" unicode="Z" horiz-adv-x="633" 
d="M29 586v114h574v-81l-418 -505h428v-114h-601v81l416 505h-399z" />
    <glyph glyph-name="bracketleft" unicode="[" horiz-adv-x="348" 
d="M60 -183v892h279v-112h-158v-668h158v-112h-279z" />
    <glyph glyph-name="backslash" unicode="\" horiz-adv-x="357" 
d="M65 717l328 -881l-101 -39l-329 887z" />
    <glyph glyph-name="bracketright" unicode="]" horiz-adv-x="348" 
d="M288 709v-892h-279v112h158v668h-158v112h279z" />
    <glyph glyph-name="asciicircum" unicode="^" horiz-adv-x="515" 
d="M23 412l200 295h71l198 -295h-131l-103 158l-105 -158h-130z" />
    <glyph glyph-name="underscore" unicode="_" horiz-adv-x="332" 
d="M0 -183v103h332v-103h-332z" />
    <glyph glyph-name="grave" unicode="`" horiz-adv-x="367" 
d="M300 598l-137 154l89 67l115 -167z" />
    <glyph glyph-name="a" unicode="a" horiz-adv-x="534" 
d="M109 371l-56 84q36 35 95.5 56t122.5 21q102 0 157.5 -56t55.5 -158v-318h-114v57q-25 -28 -66.5 -45.5t-94.5 -17.5q-85 0 -137 44.5t-52 119.5q0 42 18 73.5t51 52t77.5 30t96.5 9.5q25 0 56.5 -4t50.5 -10q1 56 -24.5 86.5t-87.5 30.5q-41 0 -76 -13t-73 -42zM234 93
q23 0 50 7.5t49.5 25t36.5 38.5v50q-16 5 -43.5 9.5t-51.5 4.5q-137 0 -137 -69q0 -30 26.5 -48t69.5 -18z" />
    <glyph glyph-name="b" unicode="b" horiz-adv-x="590" 
d="M53 82v648h114v-257q28 28 67 43.5t84 15.5q57 0 102.5 -19t77 -54.5t47.5 -84t16 -105.5q0 -127 -74.5 -202.5t-196.5 -75.5q-69 0 -133 24t-104 67zM297 426q-40 0 -75.5 -23t-54.5 -57v-201q16 -18 47 -33t79 -15q66 0 108 44t42 122q0 77 -40 120t-106 43z" />
    <glyph glyph-name="c" unicode="c" horiz-adv-x="538" 
d="M451 171l81 -52q-31 -60 -92.5 -94t-130.5 -34q-61 0 -113 19t-89.5 54.5t-57.5 86t-20 110.5q0 56 19.5 106t56 87t88 57.5t110.5 20.5q37 0 82 -11t83.5 -40t57.5 -67l-85 -56q-26 35 -58 51.5t-75 16.5q-71 0 -116 -46t-45 -119q0 -71 48 -117.5t125 -46.5
q82 0 131 74z" />
    <glyph glyph-name="d" unicode="d" horiz-adv-x="593" 
d="M426 0v57q-12 -16 -36.5 -33t-54 -24.5t-55.5 -7.5q-54 0 -100.5 18t-80 52.5t-52 84.5t-18.5 112q0 58 20 109t56 87.5t83.5 56.5t99.5 20q93 0 138 -39v237h114v-730h-114zM301 98q20 0 45 8.5t47.5 29.5t32.5 43v190q-40 57 -119 57q-49 0 -85.5 -23t-55.5 -59
t-19 -83q0 -75 43 -119t111 -44z" />
    <glyph glyph-name="e" unicode="e" horiz-adv-x="569" 
d="M449 166l70 -69q-39 -52 -93.5 -79t-117.5 -27q-61 0 -113 19t-89 54.5t-57 86t-20 110.5q0 57 17.5 106.5t51.5 86.5t84.5 57.5t113.5 20.5q51 0 96 -17t78.5 -48.5t51.5 -76t18 -96.5q0 -26 -6 -73h-386q7 -61 52.5 -92.5t109.5 -31.5q41 0 78.5 19t60.5 50zM291 429
q-56 0 -93.5 -29.5t-48.5 -79.5h273q-7 52 -41.5 80.5t-89.5 28.5z" />
    <glyph glyph-name="f" unicode="f" horiz-adv-x="343" 
d="M3 414v106h84v17q0 66 22.5 110t63 67.5t96.5 23.5q41 0 77.5 -16.5t56.5 -44.5l-64 -72q-22 27 -64 27q-74 0 -74 -98v-14h146v-106h-146v-414h-114v414h-84z" />
    <glyph glyph-name="g" unicode="g" horiz-adv-x="589" 
d="M536 520v-478q0 -63 -17 -111t-49 -79t-76 -46t-98 -15q-88 0 -150.5 36t-85.5 98l99 43q16 -30 49 -50.5t79 -20.5q68 0 101.5 32.5t33.5 91.5v23q-34 -53 -138 -53q-55 0 -102.5 18t-81.5 52.5t-52.5 85.5t-18.5 114q0 45 13.5 92t50 90.5t89 64.5t103.5 21
q92 0 137 -43v34h114zM303 97q21 0 45.5 8t44.5 28t29 43v192q-16 25 -47 40t-73 15q-66 0 -110.5 -43.5t-44.5 -120.5q0 -76 42 -119t114 -43z" />
    <glyph glyph-name="h" unicode="h" horiz-adv-x="584" 
d="M53 0v730h114v-255q28 28 68 42t83 14q105 0 160.5 -58.5t55.5 -179.5v-293h-114v286q0 73 -30.5 106t-95.5 33q-41 0 -74.5 -23.5t-52.5 -62.5v-339h-114z" />
    <glyph glyph-name="i" unicode="i" horiz-adv-x="239" 
d="M63 0v520h114v-520h-114zM53 669q0 25 19.5 42.5t47.5 17.5q27 0 46.5 -17.5t19.5 -42.5q0 -26 -19 -44t-47 -18q-29 0 -48 17.5t-19 44.5z" />
    <glyph glyph-name="j" unicode="j" horiz-adv-x="239" 
d="M178 520v-521q0 -99 -43 -153.5t-129 -54.5q-57 0 -100.5 24.5t-65.5 75.5l97 43q11 -17 24 -27t36 -10q67 0 67 105v518h114zM54 670q0 25 19 42.5t48 17.5q27 0 46 -17.5t19 -42.5q0 -27 -18 -45t-47 -18t-48 18t-19 45z" />
    <glyph glyph-name="k" unicode="k" horiz-adv-x="528" 
d="M53 0v730h114v-415l210 205h147l-237 -229l249 -291h-145l-191 216l-33 -26v-190h-114z" />
    <glyph glyph-name="l" unicode="l" horiz-adv-x="220" 
d="M53 0v730h114v-730h-114z" />
    <glyph glyph-name="m" unicode="m" horiz-adv-x="851" 
d="M801 345v-345h-114v313q0 112 -87 112q-38 0 -68.5 -21.5t-47.5 -58.5v-345h-114v338q0 38 -23 62.5t-62 24.5q-31 0 -57.5 -15.5t-40.5 -35t-20 -34.5v-340h-114v520h114v-45q20 28 58 42t84 14q50 0 84 -15.5t57 -48.5q54 64 157 64q92 0 143 -46.5t51 -139.5z" />
    <glyph glyph-name="n" unicode="n" horiz-adv-x="586" 
d="M53 0v520h114v-47q31 30 69 44t91 14q103 0 156 -57.5t53 -179.5v-294h-114v285q0 74 -31.5 107t-96.5 33q-41 0 -75.5 -24t-51.5 -64v-337h-114z" />
    <glyph glyph-name="o" unicode="o" horiz-adv-x="615" 
d="M29 261q0 57 20 107.5t57.5 87t89 56.5t111.5 20t111.5 -20t89 -56.5t58 -87t20.5 -107.5t-20.5 -107t-58 -86.5t-89 -56.5t-111.5 -20q-59 0 -110.5 20t-89 56.5t-58 86.5t-20.5 107zM147 261q0 -71 45 -117.5t115 -46.5q72 0 116.5 45t44.5 119q0 37 -15.5 75t-55 64
t-90.5 26q-69 0 -114.5 -45t-45.5 -120z" />
    <glyph glyph-name="p" unicode="p" horiz-adv-x="592" 
d="M53 -200v720h114v-47q23 29 63 44t81 15q57 0 104 -19.5t80 -54.5t50.5 -83.5t17.5 -105.5q0 -58 -18.5 -109.5t-53 -89t-83 -58.5t-105.5 -21q-44 0 -81.5 11.5t-54.5 31.5v-234h-114zM299 426q-46 0 -80.5 -24.5t-51.5 -60.5v-180q18 -30 51 -47t72 -17q69 0 112 45
t43 118q0 78 -39 122t-107 44z" />
    <glyph glyph-name="q" unicode="q" horiz-adv-x="589" 
d="M422 -200v241q-18 -21 -53.5 -35.5t-83.5 -14.5q-55 0 -102.5 19t-82 54.5t-53 86t-18.5 110.5q0 43 14 89t52.5 90.5t95 66.5t112.5 22q80 0 119 -33v24h114v-720h-114zM301 97q39 0 72.5 19.5t48.5 49.5v209q-37 48 -118 48q-40 0 -78 -20.5t-58.5 -60t-20.5 -83.5
q0 -74 43.5 -118t110.5 -44z" />
    <glyph glyph-name="r" unicode="r" horiz-adv-x="363" 
d="M53 0v520h114v-35q5 9 17.5 20t34 18.5t42.5 7.5q28 0 54 -8.5t49 -37.5l-65 -83q-15 23 -52 23q-27 0 -49 -19t-31 -54v-352h-114z" />
    <glyph glyph-name="s" unicode="s" horiz-adv-x="496" 
d="M356 148q0 10 -9.5 21t-33 20t-81.5 26t-94 33.5t-57.5 37.5t-30.5 44t-9 47q0 72 57 113.5t157 41.5q49 0 95.5 -16t74.5 -37.5t40 -38.5l-78 -74q-23 27 -63.5 43.5t-87.5 16.5q-25 0 -43.5 -6t-26 -17.5t-7.5 -23.5q0 -13 16 -25t79.5 -30t89 -28t45.5 -20.5t38 -25.5
t32.5 -39.5t14.5 -61.5q0 -49 -25.5 -83.5t-73.5 -54.5t-115 -20q-44 0 -91 12.5t-88 42.5t-62 70l90 62q22 -35 67.5 -58t94.5 -23q26 0 47 7t29.5 19t8.5 25z" />
    <glyph glyph-name="t" unicode="t" horiz-adv-x="413" 
d="M3 414v106h90v107h114v-107h168v-106h-168v-201q0 -61 16 -87t51 -26q40 0 74 44l68 -64q-21 -37 -64.5 -61.5t-94.5 -24.5q-76 0 -120 48t-44 139v233h-90z" />
    <glyph glyph-name="u" unicode="u" horiz-adv-x="578" 
d="M525 523v-523h-114v55q-26 -29 -63 -46.5t-82 -17.5q-108 0 -162 57t-54 176v299h114v-288q0 -73 29 -105.5t84 -32.5q44 0 78 23.5t56 66.5v336h114z" />
    <glyph glyph-name="v" unicode="v" horiz-adv-x="519" 
d="M538 520l-231 -520h-84l-242 520h129l157 -347l150 347h121z" />
    <glyph glyph-name="w" unicode="w" horiz-adv-x="755" 
d="M765 520l-168 -520h-91l-126 338l-127 -338h-89l-174 520h118l108 -329l122 329h86l124 -330l101 330h116z" />
    <glyph glyph-name="x" unicode="x" horiz-adv-x="555" 
d="M548 520l-199 -251l209 -269h-141l-141 185l-144 -185h-135l208 267l-198 253h140l132 -167l132 167h137z" />
    <glyph glyph-name="y" unicode="y" horiz-adv-x="548" 
d="M75 -194l45 97q11 -6 23 -6q47 0 82 87l18 47l-256 489h132l179 -351l138 351h122l-204 -505q-45 -112 -90.5 -168t-116.5 -56q-42 0 -72 15z" />
    <glyph glyph-name="z" unicode="z" horiz-adv-x="504" 
d="M36 414v106h448v-73l-292 -341h287v-106h-459v74l292 340h-276z" />
    <glyph glyph-name="braceleft" unicode="{" horiz-adv-x="345" 
d="M96 -38v165q0 45 -21 65t-62 20v101q43 0 59 13t20 30.5t4 35.5v165q0 81 36.5 116.5t121.5 35.5h78v-101h-55q-36 0 -51 -18.5t-15 -60.5v-161q0 -27 -8 -49.5t-22 -35t-28 -18.5q58 -19 58 -106v-167q0 -41 14.5 -57.5t51.5 -16.5h55v-101h-90q-73 0 -109.5 35
t-36.5 110z" />
    <glyph glyph-name="bar" unicode="|" horiz-adv-x="312" 
d="M97 0v700h118v-700h-118z" />
    <glyph glyph-name="braceright" unicode="}" horiz-adv-x="345" 
d="M249 127v-165q0 -76 -36.5 -110.5t-109.5 -34.5h-90v101h55q37 0 51.5 16.5t14.5 57.5v167q0 87 58 106q-14 6 -28 18.5t-22 35t-8 49.5v161q0 42 -14.5 60.5t-50.5 18.5h-56v101h78q85 0 121.5 -35.5t36.5 -116.5v-165q0 -35 12 -53t31.5 -22t39.5 -4v-101
q-41 0 -62 -20t-21 -65z" />
    <glyph glyph-name="asciitilde" unicode="~" horiz-adv-x="570" 
d="M84 280l-58 77q31 30 58.5 50t57 28t55.5 6q39 -3 92.5 -30t72.5 -31.5t30 -4.5q26 0 53.5 16t48.5 43l50 -80q-31 -35 -71 -56t-75 -21q-49 0 -105 29t-74.5 33.5t-31.5 4.5q-26 0 -52.5 -17.5t-50.5 -46.5z" />
    <glyph glyph-name="uni00A0" unicode="&#xa0;" horiz-adv-x="236" 
 />
    <glyph glyph-name="exclamdown" unicode="&#xa1;" horiz-adv-x="309" 
d="M96 -182v485h118v-485h-118zM73 445q0 30 23 52.5t58 22.5q33 0 56.5 -23t23.5 -52q0 -27 -23.5 -50t-56.5 -23q-17 0 -36 8t-32 26.5t-13 38.5z" />
    <glyph glyph-name="cent" unicode="&#xa2;" horiz-adv-x="538" 
d="M451 171l81 -52q-12 -24 -35.5 -50.5t-60.5 -46t-77 -26.5v-196h-120v198q-96 19 -153 89t-57 174q0 49 15 93t42.5 79t66.5 59t86 33v175h120v-173q57 -10 101.5 -40.5t65.5 -72.5l-85 -56q-41 54 -95 64v-323q64 10 105 72zM147 261q0 -53 28.5 -94.5t77.5 -58.5v309
q-48 -16 -77 -58t-29 -98z" />
    <glyph glyph-name="sterling" unicode="&#xa3;" horiz-adv-x="595" 
d="M64 260v96h57q-22 55 -27 72.5t-7 36t-2 35.5q0 29 10.5 63t40 70t77 55t97.5 19q62 0 118.5 -23t94.5 -66l-64 -91q-67 67 -151 67q-30 0 -55.5 -16t-35.5 -40t-10 -46q0 -15 4.5 -34.5t18.5 -55t18 -46.5h168v-96h-148l1 -21q0 -26 -8 -53.5t-21 -44.5q27 -1 86.5 -21
t89.5 -20q23 0 44.5 8.5t54.5 46.5l59 -79q-63 -77 -157 -77q-42 0 -113.5 22.5t-109.5 22.5q-64 0 -119 -54l-53 85q45 45 96 62q33 42 33 98l-2 25h-85z" />
    <glyph glyph-name="currency" unicode="&#xa4;" horiz-adv-x="630" 
d="M75 347q0 33 10 68t27 62l-86 87l74 73l88 -87q25 15 59.5 25t67.5 10q71 0 127 -35l93 91l74 -73l-91 -92q16 -26 27 -62.5t11 -66.5q0 -31 -10.5 -66.5t-27.5 -61.5l87 -88l-73 -74l-89 89q-24 -16 -58.5 -26t-69.5 -10q-75 0 -129 36l-93 -93l-72 73l91 93
q-16 26 -26.5 61.5t-10.5 66.5zM189 347q0 -25 12 -56t43 -53t71 -22t71.5 22t43.5 53t12 56q0 26 -12 57.5t-43.5 53.5t-71.5 22q-55 0 -90.5 -38t-35.5 -95z" />
    <glyph glyph-name="yen" unicode="&#xa5;" horiz-adv-x="671" 
d="M109 302v99h95l-211 299h150l193 -279l197 279h145l-213 -299h96v-99h-166v-85h166v-99h-166v-118h-121v118h-165v99h165v85h-165z" />
    <glyph glyph-name="brokenbar" unicode="&#xa6;" horiz-adv-x="312" 
d="M215 403h-118v297h118v-297zM97 297h118v-297h-118v297z" />
    <glyph glyph-name="section" unicode="&#xa7;" horiz-adv-x="507" 
d="M44 258q0 58 27 101.5t74 65.5q-24 19 -39.5 49t-15.5 68q0 43 22.5 81t65 57.5t87.5 19.5q41 0 83.5 -19.5t78.5 -66.5l-75 -68q-35 42 -81 42q-25 0 -43 -17t-18 -41q0 -22 12.5 -42t51.5 -36q41 -4 76.5 -20t60.5 -42t38.5 -60t13.5 -72q0 -56 -28.5 -101t-73.5 -68
q24 -19 39 -49t15 -63q0 -71 -49 -115.5t-125 -44.5q-97 0 -162 84l70 81q37 -53 92 -53q25 0 42 17t17 43q0 24 -19.5 44t-49.5 30q-31 3 -64 14.5t-60 35t-45 60t-18 85.5zM159 258q0 -19 9.5 -42t33 -39t51.5 -16q39 0 66.5 28t27.5 69q0 30 -15.5 54t-38 33.5t-40.5 9.5
t-40 -9.5t-38 -33.5t-16 -54z" />
    <glyph glyph-name="dieresis" unicode="&#xa8;" horiz-adv-x="473" 
d="M126 672q0 25 19 41.5t44 16.5q24 0 44 -17t20 -41q0 -27 -20 -44t-44 -17q-25 0 -44 17t-19 44zM343 672q0 25 20 41.5t46 16.5q25 0 44.5 -17t19.5 -41q0 -27 -19 -44t-45 -17q-27 0 -46.5 17t-19.5 44z" />
    <glyph glyph-name="copyright" unicode="&#xa9;" horiz-adv-x="966" 
d="M52 232q0 86 32.5 164t91 136.5t138.5 91.5t169 33q90 0 169.5 -31.5t138 -88.5t91 -136t32.5 -169q0 -42 -10.5 -96.5t-40 -109.5t-73 -98t-99 -72t-110.5 -39.5t-98 -10.5q-90 0 -169.5 31t-138 87.5t-91 136t-32.5 171.5zM157 232q0 -67 25 -127t69.5 -105t104.5 -70
t127 -25q69 0 129 25t104.5 69.5t68.5 105t24 127.5q0 70 -23.5 130.5t-67 104t-104.5 67.5t-131 24q-67 0 -127 -25.5t-104.5 -70.5t-69.5 -105t-25 -125zM629 157l62 -71q-28 -41 -83 -67.5t-108 -26.5q-55 0 -102 17.5t-81 49.5t-52.5 77.5t-18.5 99.5q0 49 18.5 94
t51 78.5t77 52t94.5 18.5q56 0 108 -22t86 -63l-71 -68q-48 50 -114 50q-43 0 -74.5 -22t-43.5 -54.5t-12 -60.5q0 -66 39.5 -106t100.5 -40q68 0 123 64z" />
    <glyph glyph-name="ordfeminine" unicode="&#xaa;" horiz-adv-x="455" 
d="M104 533l-36 72q64 42 165 43q75 0 116.5 -37t41.5 -103v-209h-101v36q-31 -40 -106 -40q-61 0 -99 30t-38 78q0 34 20.5 58t60 36.5t93.5 12.5q42 0 69 -8q0 30 -16.5 44t-57.5 14q-53 0 -112 -27zM212 379q50 0 78 36v19q-35 10 -72 10q-29 0 -47.5 -9t-18.5 -25
q0 -31 60 -31z" />
    <glyph glyph-name="guillemotleft" unicode="&#xab;" horiz-adv-x="553" 
d="M222 38l-185 218v6l185 212l78 -69l-127 -147l127 -148zM432 38l-184 218v6l185 212l78 -69l-127 -147l127 -148z" />
    <glyph glyph-name="logicalnot" unicode="&#xac;" horiz-adv-x="545" 
d="M35 310v99h475v-219h-96v120h-379z" />
    <glyph glyph-name="uni00AD" unicode="&#xad;" horiz-adv-x="416" 
d="M69 227v101h278v-101h-278z" />
    <glyph glyph-name="registered" unicode="&#xae;" horiz-adv-x="577" 
d="M38 485q0 49 19.5 93.5t54 78t81 52.5t96.5 19t96 -19t80.5 -52.5t54 -78t19.5 -93.5q0 -50 -19.5 -95t-54 -79t-80.5 -53t-96 -19t-96.5 19t-81 53t-54 79t-19.5 95zM82 484q0 -31 11 -65t36.5 -64t66 -51t92.5 -21q31 0 65.5 11t69.5 40.5t53.5 70.5t18.5 79
q0 30 -11 64t-37.5 64t-67.5 51.5t-91 21.5q-31 0 -65.5 -11t-69.5 -39.5t-53 -70t-18 -80.5zM254 341h-83v290h110q44 0 72 -11.5t42.5 -33t14.5 -51.5q0 -29 -14.5 -51.5t-36.5 -32.5l66 -110h-94l-46 81h-31v-81zM321 527q0 30 -37 30h-30v-59h32q14 0 24.5 7.5
t10.5 21.5z" />
    <glyph glyph-name="macron" unicode="&#xaf;" horiz-adv-x="451" 
d="M170 625v95h281v-95h-281z" />
    <glyph glyph-name="degree" unicode="&#xb0;" horiz-adv-x="410" 
d="M38 551q0 24 8.5 51.5t29.5 52t54 41.5t75 17q69 0 118 -46.5t49 -114.5q0 -24 -8.5 -51t-29.5 -51.5t-54 -42t-75 -17.5q-25 0 -53 8.5t-53 28t-43 51.5t-18 73zM146 551q0 -24 17.5 -40t41.5 -16t41.5 16t17.5 40q0 25 -17.5 41t-41.5 16t-41.5 -16t-17.5 -41z" />
    <glyph glyph-name="plusminus" unicode="&#xb1;" horiz-adv-x="552" 
d="M51 382v98h175v183h99v-183h177v-98h-177v-109h-99v109h-175zM51 139v99h451v-99h-451z" />
    <glyph glyph-name="uni00B2" unicode="&#xb2;" horiz-adv-x="421" 
d="M110 568l-75 46q22 53 70.5 81.5t111.5 28.5q71 0 113 -34t42 -89q0 -27 -11.5 -59.5t-39 -62t-62.5 -52.5l-52 -33h181v-94h-345v81l88 54q136 84 136 142q0 53 -59 53q-34 0 -59 -17t-39 -45z" />
    <glyph glyph-name="uni00B3" unicode="&#xb3;" horiz-adv-x="429" 
d="M106 579l-70 54q19 30 49.5 52.5t65.5 31t65 8.5q33 0 72 -9t64 -34.5t25 -61.5q0 -34 -16 -57.5t-47 -38.5q21 -6 39 -20t26 -36t8 -43q0 -22 -9 -44.5t-30.5 -41.5t-56 -31.5t-81.5 -12.5q-43 0 -82 14t-64 39.5t-37 50.5l78 48q10 -26 39 -42t66 -16q71 0 71 41
t-73 41h-47v81h39q34 0 52.5 11t18.5 32q0 36 -57 36q-39 0 -63.5 -12.5t-44.5 -39.5z" />
    <glyph glyph-name="acute" unicode="&#xb4;" horiz-adv-x="447" 
d="M431 755l-127 -157l-77 54l118 167z" />
    <glyph glyph-name="uni00B5" unicode="&#xb5;" horiz-adv-x="583" 
d="M530 520v-520h-114v44q-24 -23 -63 -38t-87 -15q-27 0 -54.5 9t-44.5 23v-222h-114v719h114v-285q0 -72 27.5 -105t89.5 -33q36 0 73 17t59 42v364h114z" />
    <glyph glyph-name="uni00B5" unicode="&#x3bc;" horiz-adv-x="583" 
d="M530 520v-520h-114v44q-24 -23 -63 -38t-87 -15q-27 0 -54.5 9t-44.5 23v-222h-114v719h114v-285q0 -72 27.5 -105t89.5 -33q36 0 73 17t59 42v364h114z" />
    <glyph glyph-name="paragraph" unicode="&#xb6;" horiz-adv-x="446" 
d="M32 470q0 106 61 168t164 62h164v-101h-86v-577q0 -113 -42 -163t-126 -50q-36 0 -73 15t-60 40l50 87q38 -29 79 -29q31 0 43.5 24.5t12.5 75.5v222q-40 5 -74.5 23t-59.5 47t-39 69t-14 87z" />
    <glyph glyph-name="periodcentered" unicode="&#xb7;" horiz-adv-x="236" 
d="M39 301q0 23 20 42t50 19q27 0 47 -19.5t20 -41.5q0 -25 -19.5 -44.5t-47.5 -19.5q-30 0 -50 19t-20 45z" />
    <glyph glyph-name="cedilla" unicode="&#xb8;" horiz-adv-x="448" 
d="M192 -166l35 59q14 -11 35 -18t43 -7q40 0 40 21q0 23 -50 23h-13v88h63v-32q49 -3 76 -25.5t27 -59.5q0 -29 -20 -51t-51.5 -30.5t-65.5 -8.5q-67 0 -119 41z" />
    <glyph glyph-name="uni00B9" unicode="&#xb9;" horiz-adv-x="315" 
d="M10 653l162 68h77v-421h-105v305l-97 -40z" />
    <glyph glyph-name="ordmasculine" unicode="&#xba;" horiz-adv-x="462" 
d="M47 472q0 79 51 127.5t133 48.5t133.5 -48.5t51.5 -127.5q0 -78 -51.5 -127.5t-133.5 -49.5q-81 0 -132.5 49.5t-51.5 127.5zM152 472q0 -35 23.5 -57.5t55.5 -22.5q35 0 57.5 22t22.5 58q0 35 -23.5 56.5t-56.5 21.5q-34 0 -56.5 -21.5t-22.5 -56.5z" />
    <glyph glyph-name="guillemotright" unicode="&#xbb;" horiz-adv-x="553" 
d="M511 256l-184 -218l-79 72l128 148l-127 147l77 69l185 -212v-6zM301 256l-185 -218l-78 72l127 148l-127 147l77 69l186 -212v-6z" />
    <glyph glyph-name="onequarter" unicode="&#xbc;" horiz-adv-x="886" 
d="M110 48l549 672l83 -66l-547 -676zM27 653l162 68h77v-421h-105v305l-97 -40zM685 0v76h-246v73l258 271h87v-253h76v-91h-76v-76h-99zM560 167h125v126z" />
    <glyph glyph-name="onehalf" unicode="&#xbd;" horiz-adv-x="938" 
d="M110 48l549 672l83 -66l-547 -676zM27 653l162 68h77v-421h-105v305l-97 -40zM614 268l-75 46q22 53 70.5 81.5t111.5 28.5q71 0 113 -34t42 -89q0 -27 -11.5 -59.5t-39 -62t-62.5 -52.5l-52 -33h181v-94h-345v81l88 54q136 84 136 142q0 53 -59 53q-34 0 -59 -17
t-39 -45z" />
    <glyph glyph-name="threequarters" unicode="&#xbe;" horiz-adv-x="943" 
d="M167 48l549 672l83 -66l-547 -676zM741 0v76h-246v73l258 271h87v-253h76v-91h-76v-76h-99zM616 167h125v126zM106 579l-70 54q19 30 49.5 52.5t65.5 31t65 8.5q33 0 72 -9t64 -34.5t25 -61.5q0 -34 -16 -57.5t-47 -38.5q21 -6 39 -20t26 -36t8 -43q0 -22 -9 -44.5
t-30.5 -41.5t-56 -31.5t-81.5 -12.5q-43 0 -82 14t-64 39.5t-37 50.5l78 48q10 -26 39 -42t66 -16q71 0 71 41t-73 41h-47v81h39q34 0 52.5 11t18.5 32q0 36 -57 36q-39 0 -63.5 -12.5t-44.5 -39.5z" />
    <glyph glyph-name="questiondown" unicode="&#xbf;" horiz-adv-x="610" 
d="M164 18q0 -18 10 -39.5t44 -37t94 -15.5q30 0 62 10.5t57.5 37.5t39.5 65l109 -31q-19 -92 -91 -145t-175 -53q-50 0 -99.5 9t-88 31.5t-62.5 59t-24 88.5q0 37 12 72t41.5 63t79 51.5t66 33t25.5 21t10.5 20t1.5 11.5q0 8 -2 18.5t-2 15.5l109 1q7 -24 7 -54
q0 -36 -19 -61.5t-44 -41t-79.5 -42.5t-68 -48.5t-13.5 -39.5zM412 445q0 -12 -7.5 -29t-27.5 -30.5t-46 -13.5q-33 0 -56.5 23t-23.5 50q0 29 23.5 52t56.5 23q35 0 58 -22.5t23 -52.5z" />
    <glyph glyph-name="Agrave" unicode="&#xc0;" horiz-adv-x="704" 
d="M-1 0l307 700h92l307 -700h-127l-68 155h-319l-67 -155h-125zM350 525l-115 -266h230zM395 745l-219 104l53 100l210 -128z" />
    <glyph glyph-name="Aacute" unicode="&#xc1;" horiz-adv-x="704" 
d="M-1 0l307 700h92l307 -700h-127l-68 155h-319l-67 -155h-125zM350 525l-115 -266h230zM552 849l-220 -104l-43 76l210 128z" />
    <glyph glyph-name="Acircumflex" unicode="&#xc2;" horiz-adv-x="704" 
d="M-1 0l307 700h92l307 -700h-127l-68 155h-319l-67 -155h-125zM350 525l-115 -266h230zM350 929l184 -111l-47 -69l-139 73l-138 -73l-40 67l176 113h4z" />
    <glyph glyph-name="Atilde" unicode="&#xc3;" horiz-adv-x="704" 
d="M-1 0l307 700h92l307 -700h-127l-68 155h-319l-67 -155h-125zM350 525l-115 -266h230zM204 779l-36 72q21 25 53.5 40.5t61.5 15.5q30 0 74.5 -18t70.5 -18q47 0 76 31l31 -72q-20 -29 -51 -44.5t-66 -15.5q-25 0 -72 18t-76 18q-33 0 -66 -27z" />
    <glyph glyph-name="Adieresis" unicode="&#xc4;" horiz-adv-x="704" 
d="M-1 0l307 700h92l307 -700h-127l-68 155h-319l-67 -155h-125zM350 525l-115 -266h230zM162 828q0 26 20 44t50 18q11 0 26.5 -6t27.5 -21.5t12 -34.5q0 -27 -20.5 -44.5t-45.5 -17.5q-30 0 -50 17t-20 45zM405 828q0 26 20.5 44t48.5 18q25 0 45.5 -18t20.5 -44
q0 -27 -20 -44.5t-46 -17.5q-28 0 -48.5 17.5t-20.5 44.5z" />
    <glyph glyph-name="Aring" unicode="&#xc5;" horiz-adv-x="704" 
d="M-1 0l307 700h92l307 -700h-127l-68 155h-319l-67 -155h-125zM350 525l-115 -266h230zM213 838q0 34 16.5 57.5t47.5 37.5t73 14q44 0 76.5 -14t49 -37.5t16.5 -57.5q0 -33 -16 -56.5t-48.5 -39t-77.5 -15.5q-59 0 -98 29.5t-39 81.5zM300 838q0 -21 14 -33t38 -12
t38.5 12t14.5 33q0 20 -14.5 31t-38.5 11t-38 -11t-14 -31z" />
    <glyph glyph-name="AE" unicode="&#xc6;" horiz-adv-x="1133" 
d="M558 0v155h-308l-118 -155h-132l520 700h558v-114h-399v-176h373v-110h-373v-186h409v-114h-530zM324 259h234v314z" />
    <glyph glyph-name="Ccedilla" unicode="&#xc7;" horiz-adv-x="692" 
d="M254 -163l41 56q13 -10 35 -17.5t44 -7.5q39 0 39 21q0 23 -50 23h-12v82q-72 6 -131.5 34t-101 74.5t-63.5 110t-22 137.5q0 73 25.5 139t73 115t114.5 76.5t145 27.5q91 0 164.5 -34t110.5 -87l-80 -76q-35 39 -84 60t-105 21q-53 0 -97 -17t-75.5 -49t-48.5 -77.5
t-17 -98.5q0 -108 68 -175t175 -67q31 0 68 8t73 30t63 54l71 -78q-30 -42 -78 -72.5t-97 -42.5t-88 -14v-25q55 -3 82 -25.5t27 -59.5q0 -40 -32 -65t-97 -25q-90 0 -140 44z" />
    <glyph glyph-name="Egrave" unicode="&#xc8;" horiz-adv-x="645" 
d="M70 0v700h520v-114h-399v-176h373v-110h-373v-186h409v-114h-530zM385 745l-219 104l53 100l210 -128z" />
    <glyph glyph-name="Eacute" unicode="&#xc9;" horiz-adv-x="645" 
d="M70 0v700h520v-114h-399v-176h373v-110h-373v-186h409v-114h-530zM515 849l-220 -104l-43 76l210 128z" />
    <glyph glyph-name="Ecircumflex" unicode="&#xca;" horiz-adv-x="645" 
d="M70 0v700h520v-114h-399v-176h373v-110h-373v-186h409v-114h-530zM336 929l184 -111l-47 -69l-139 73l-138 -73l-40 67l176 113h4z" />
    <glyph glyph-name="Edieresis" unicode="&#xcb;" horiz-adv-x="645" 
d="M70 0v700h520v-114h-399v-176h373v-110h-373v-186h409v-114h-530zM144 828q0 26 20 44t50 18q11 0 26.5 -6t27.5 -21.5t12 -34.5q0 -27 -20.5 -44.5t-45.5 -17.5q-30 0 -50 17t-20 45zM387 828q0 26 20.5 44t48.5 18q25 0 45.5 -18t20.5 -44q0 -27 -20 -44.5t-46 -17.5
q-28 0 -48.5 17.5t-20.5 44.5z" />
    <glyph glyph-name="Igrave" unicode="&#xcc;" horiz-adv-x="261" 
d="M70 0v700h121v-700h-121zM164 745l-219 104l53 100l210 -128z" />
    <glyph glyph-name="Iacute" unicode="&#xcd;" horiz-adv-x="261" 
d="M70 0v700h121v-700h-121zM325 849l-220 -104l-43 76l210 128z" />
    <glyph glyph-name="Icircumflex" unicode="&#xce;" horiz-adv-x="261" 
d="M70 0v700h121v-700h-121zM129 929l184 -111l-47 -69l-139 73l-138 -73l-40 67l176 113h4z" />
    <glyph glyph-name="Idieresis" unicode="&#xcf;" horiz-adv-x="261" 
d="M70 0v700h121v-700h-121zM-59 828q0 26 20 44t50 18q11 0 26.5 -6t27.5 -21.5t12 -34.5q0 -27 -20.5 -44.5t-45.5 -17.5q-30 0 -50 17t-20 45zM184 828q0 26 20.5 44t48.5 18q25 0 45.5 -18t20.5 -44q0 -27 -20 -44.5t-46 -17.5q-28 0 -48.5 17.5t-20.5 44.5z" />
    <glyph glyph-name="Eth" unicode="&#xd0;" horiz-adv-x="778" 
d="M15 298v101h117v301h218q104 0 181 -27t123.5 -73.5t68 -108.5t21.5 -132q0 -75 -24.5 -141t-74 -114.5t-127.5 -76t-180 -27.5h-206v298h-117zM348 586h-95v-187h174v-101h-174v-184h94q52 0 102 12t87.5 40.5t59.5 76t22 116.5q0 227 -270 227z" />
    <glyph glyph-name="Ntilde" unicode="&#xd1;" horiz-adv-x="738" 
d="M668 0h-94l-386 477v-477h-118v700h94l386 -479v479h118v-700zM222 779l-36 72q21 25 53.5 40.5t61.5 15.5q30 0 74.5 -18t70.5 -18q47 0 76 31l31 -72q-20 -29 -51 -44.5t-66 -15.5q-25 0 -72 18t-76 18q-33 0 -66 -27z" />
    <glyph glyph-name="Ograve" unicode="&#xd2;" horiz-adv-x="782" 
d="M33 350q0 73 27.5 139t76.5 115t115 76.5t139 27.5t138.5 -26.5t115 -75t77 -115t27.5 -141.5t-27.5 -141t-77 -114.5t-115 -75.5t-138.5 -27q-72 0 -138 26.5t-115.5 75t-77 115t-27.5 141.5zM159 350q0 -52 18.5 -97t51 -77.5t74.5 -50t88 -17.5q48 0 90.5 17.5
t74.5 49.5t49.5 77.5t17.5 97.5t-18.5 97.5t-51.5 77.5t-75 49.5t-87 17.5q-46 0 -88.5 -17.5t-74.5 -49.5t-50.5 -77t-18.5 -98zM438 745l-219 104l53 100l210 -128z" />
    <glyph glyph-name="Oacute" unicode="&#xd3;" horiz-adv-x="782" 
d="M33 350q0 73 27.5 139t76.5 115t115 76.5t139 27.5t138.5 -26.5t115 -75t77 -115t27.5 -141.5t-27.5 -141t-77 -114.5t-115 -75.5t-138.5 -27q-72 0 -138 26.5t-115.5 75t-77 115t-27.5 141.5zM159 350q0 -52 18.5 -97t51 -77.5t74.5 -50t88 -17.5q48 0 90.5 17.5
t74.5 49.5t49.5 77.5t17.5 97.5t-18.5 97.5t-51.5 77.5t-75 49.5t-87 17.5q-46 0 -88.5 -17.5t-74.5 -49.5t-50.5 -77t-18.5 -98zM582 849l-220 -104l-43 76l210 128z" />
    <glyph glyph-name="Ocircumflex" unicode="&#xd4;" horiz-adv-x="782" 
d="M33 350q0 73 27.5 139t76.5 115t115 76.5t139 27.5t138.5 -26.5t115 -75t77 -115t27.5 -141.5t-27.5 -141t-77 -114.5t-115 -75.5t-138.5 -27q-72 0 -138 26.5t-115.5 75t-77 115t-27.5 141.5zM159 350q0 -52 18.5 -97t51 -77.5t74.5 -50t88 -17.5q48 0 90.5 17.5
t74.5 49.5t49.5 77.5t17.5 97.5t-18.5 97.5t-51.5 77.5t-75 49.5t-87 17.5q-46 0 -88.5 -17.5t-74.5 -49.5t-50.5 -77t-18.5 -98zM389 929l184 -111l-47 -69l-139 73l-138 -73l-40 67l176 113h4z" />
    <glyph glyph-name="Otilde" unicode="&#xd5;" horiz-adv-x="782" 
d="M33 350q0 73 27.5 139t76.5 115t115 76.5t139 27.5t138.5 -26.5t115 -75t77 -115t27.5 -141.5t-27.5 -141t-77 -114.5t-115 -75.5t-138.5 -27q-72 0 -138 26.5t-115.5 75t-77 115t-27.5 141.5zM159 350q0 -52 18.5 -97t51 -77.5t74.5 -50t88 -17.5q48 0 90.5 17.5
t74.5 49.5t49.5 77.5t17.5 97.5t-18.5 97.5t-51.5 77.5t-75 49.5t-87 17.5q-46 0 -88.5 -17.5t-74.5 -49.5t-50.5 -77t-18.5 -98zM243 779l-36 72q21 25 53.5 40.5t61.5 15.5q30 0 74.5 -18t70.5 -18q47 0 76 31l31 -72q-20 -29 -51 -44.5t-66 -15.5q-25 0 -72 18t-76 18
q-33 0 -66 -27z" />
    <glyph glyph-name="Odieresis" unicode="&#xd6;" horiz-adv-x="782" 
d="M33 350q0 73 27.5 139t76.5 115t115 76.5t139 27.5t138.5 -26.5t115 -75t77 -115t27.5 -141.5t-27.5 -141t-77 -114.5t-115 -75.5t-138.5 -27q-72 0 -138 26.5t-115.5 75t-77 115t-27.5 141.5zM159 350q0 -52 18.5 -97t51 -77.5t74.5 -50t88 -17.5q48 0 90.5 17.5
t74.5 49.5t49.5 77.5t17.5 97.5t-18.5 97.5t-51.5 77.5t-75 49.5t-87 17.5q-46 0 -88.5 -17.5t-74.5 -49.5t-50.5 -77t-18.5 -98zM202 828q0 26 20 44t50 18q11 0 26.5 -6t27.5 -21.5t12 -34.5q0 -27 -20.5 -44.5t-45.5 -17.5q-30 0 -50 17t-20 45zM445 828q0 26 20.5 44
t48.5 18q25 0 45.5 -18t20.5 -44q0 -27 -20 -44.5t-46 -17.5q-28 0 -48.5 17.5t-20.5 44.5z" />
    <glyph glyph-name="multiply" unicode="&#xd7;" horiz-adv-x="599" 
d="M93 488l72 72l129 -129l130 129l72 -72l-129 -130l129 -129l-72 -72l-130 130l-129 -130l-72 72l130 129z" />
    <glyph glyph-name="Oslash" unicode="&#xd8;" horiz-adv-x="782" 
d="M73 47l50 61q-42 47 -66 109.5t-24 132.5q0 73 27.5 139t76.5 115t115 76.5t139 27.5q99 0 183 -48l48 59l83 -66l-48 -59q43 -48 67.5 -111t24.5 -133q0 -75 -27.5 -141t-77 -114.5t-115 -75.5t-138.5 -27q-98 0 -183 47l-50 -62zM623 350q0 83 -45 146l-294 -363
q23 -11 52 -18t55 -7q48 0 90.5 17.5t74.5 49.5t49.5 77.5t17.5 97.5zM159 350q0 -83 43 -145l295 361q-23 12 -51.5 19t-54.5 7q-46 0 -88.5 -17.5t-74.5 -49.5t-50.5 -77t-18.5 -98z" />
    <glyph glyph-name="Ugrave" unicode="&#xd9;" horiz-adv-x="726" 
d="M662 700v-402q0 -77 -24 -136t-65.5 -96.5t-93.5 -55t-108 -17.5q-61 0 -117 20t-99 59t-67.5 98.5t-24.5 133.5v396h121v-381q0 -95 52 -154t135 -59q53 0 90 23.5t58.5 69.5t21.5 116v385h121zM411 745l-219 104l53 100l210 -128z" />
    <glyph glyph-name="Uacute" unicode="&#xda;" horiz-adv-x="726" 
d="M662 700v-402q0 -77 -24 -136t-65.5 -96.5t-93.5 -55t-108 -17.5q-61 0 -117 20t-99 59t-67.5 98.5t-24.5 133.5v396h121v-381q0 -95 52 -154t135 -59q53 0 90 23.5t58.5 69.5t21.5 116v385h121zM555 849l-220 -104l-43 76l210 128z" />
    <glyph glyph-name="Ucircumflex" unicode="&#xdb;" horiz-adv-x="726" 
d="M662 700v-402q0 -77 -24 -136t-65.5 -96.5t-93.5 -55t-108 -17.5q-61 0 -117 20t-99 59t-67.5 98.5t-24.5 133.5v396h121v-381q0 -95 52 -154t135 -59q53 0 90 23.5t58.5 69.5t21.5 116v385h121zM361 929l184 -111l-47 -69l-139 73l-138 -73l-40 67l176 113h4z" />
    <glyph glyph-name="Udieresis" unicode="&#xdc;" horiz-adv-x="726" 
d="M662 700v-402q0 -77 -24 -136t-65.5 -96.5t-93.5 -55t-108 -17.5q-61 0 -117 20t-99 59t-67.5 98.5t-24.5 133.5v396h121v-381q0 -95 52 -154t135 -59q53 0 90 23.5t58.5 69.5t21.5 116v385h121zM174 828q0 26 20 44t50 18q11 0 26.5 -6t27.5 -21.5t12 -34.5
q0 -27 -20.5 -44.5t-45.5 -17.5q-30 0 -50 17t-20 45zM417 828q0 26 20.5 44t48.5 18q25 0 45.5 -18t20.5 -44q0 -27 -20 -44.5t-46 -17.5q-28 0 -48.5 17.5t-20.5 44.5z" />
    <glyph glyph-name="Yacute" unicode="&#xdd;" horiz-adv-x="671" 
d="M678 700l-283 -397v-303h-121v303l-281 397h150l193 -279l197 279h145zM532 849l-220 -104l-43 76l210 128z" />
    <glyph glyph-name="Thorn" unicode="&#xde;" horiz-adv-x="658" 
d="M191 0h-121v700h121v-107h142q142 0 216.5 -58.5t74.5 -171.5q0 -70 -34 -121.5t-98 -80t-160 -28.5h-141v-133zM337 480h-146v-233h139q85 -1 126.5 30.5t41.5 86.5q0 54 -38.5 85t-122.5 31z" />
    <glyph glyph-name="germandbls" unicode="&#xdf;" horiz-adv-x="561" 
d="M283 738q105 0 159.5 -55t54.5 -152q0 -35 -12.5 -67.5t-33 -53t-40.5 -29.5q120 -32 120 -174q0 -101 -55.5 -159t-162.5 -58q-30 0 -59.5 5.5t-48.5 15.5l28 103q37 -17 76 -17q48 0 77.5 29t29.5 79t-33 77.5t-97 27.5h-50v107h25q39 0 65.5 13t41 37.5t14.5 56.5
q0 24 -10 49.5t-36 42t-61 16.5q-58 0 -83 -43.5t-25 -132.5v-456h-114v461q0 92 26 152.5t76.5 92.5t127.5 32z" />
    <glyph glyph-name="agrave" unicode="&#xe0;" horiz-adv-x="534" 
d="M109 371l-56 84q36 35 95.5 56t122.5 21q102 0 157.5 -56t55.5 -158v-318h-114v57q-25 -28 -66.5 -45.5t-94.5 -17.5q-85 0 -137 44.5t-52 119.5q0 42 18 73.5t51 52t77.5 30t96.5 9.5q25 0 56.5 -4t50.5 -10q1 56 -24.5 86.5t-87.5 30.5q-41 0 -76 -13t-73 -42zM234 93
q23 0 50 7.5t49.5 25t36.5 38.5v50q-16 5 -43.5 9.5t-51.5 4.5q-137 0 -137 -69q0 -30 26.5 -48t69.5 -18zM269 598l-137 154l89 67l115 -167z" />
    <glyph glyph-name="aacute" unicode="&#xe1;" horiz-adv-x="534" 
d="M109 371l-56 84q36 35 95.5 56t122.5 21q102 0 157.5 -56t55.5 -158v-318h-114v57q-25 -28 -66.5 -45.5t-94.5 -17.5q-85 0 -137 44.5t-52 119.5q0 42 18 73.5t51 52t77.5 30t96.5 9.5q25 0 56.5 -4t50.5 -10q1 56 -24.5 86.5t-87.5 30.5q-41 0 -76 -13t-73 -42zM234 93
q23 0 50 7.5t49.5 25t36.5 38.5v50q-16 5 -43.5 9.5t-51.5 4.5q-137 0 -137 -69q0 -30 26.5 -48t69.5 -18zM408 755l-127 -157l-77 54l118 167z" />
    <glyph glyph-name="acircumflex" unicode="&#xe2;" horiz-adv-x="534" 
d="M109 371l-56 84q36 35 95.5 56t122.5 21q102 0 157.5 -56t55.5 -158v-318h-114v57q-25 -28 -66.5 -45.5t-94.5 -17.5q-85 0 -137 44.5t-52 119.5q0 42 18 73.5t51 52t77.5 30t96.5 9.5q25 0 56.5 -4t50.5 -10q1 56 -24.5 86.5t-87.5 30.5q-41 0 -76 -13t-73 -42zM234 93
q23 0 50 7.5t49.5 25t36.5 38.5v50q-16 5 -43.5 9.5t-51.5 4.5q-137 0 -137 -69q0 -30 26.5 -48t69.5 -18zM269 790l157 -131l-57 -70l-102 88l-106 -85l-52 68l156 130h4z" />
    <glyph glyph-name="atilde" unicode="&#xe3;" horiz-adv-x="534" 
d="M109 371l-56 84q36 35 95.5 56t122.5 21q102 0 157.5 -56t55.5 -158v-318h-114v57q-25 -28 -66.5 -45.5t-94.5 -17.5q-85 0 -137 44.5t-52 119.5q0 42 18 73.5t51 52t77.5 30t96.5 9.5q25 0 56.5 -4t50.5 -10q1 56 -24.5 86.5t-87.5 30.5q-41 0 -76 -13t-73 -42zM234 93
q23 0 50 7.5t49.5 25t36.5 38.5v50q-16 5 -43.5 9.5t-51.5 4.5q-137 0 -137 -69q0 -30 26.5 -48t69.5 -18zM142 612l-49 53q27 34 59.5 52.5t62.5 18.5q24 0 62 -22t58 -22q34 0 66 30l40 -58q-25 -31 -56 -48.5t-60 -17.5q-24 0 -61.5 21.5t-57.5 21.5q-15 0 -32 -8.5
t-32 -20.5z" />
    <glyph glyph-name="adieresis" unicode="&#xe4;" horiz-adv-x="534" 
d="M109 371l-56 84q36 35 95.5 56t122.5 21q102 0 157.5 -56t55.5 -158v-318h-114v57q-25 -28 -66.5 -45.5t-94.5 -17.5q-85 0 -137 44.5t-52 119.5q0 42 18 73.5t51 52t77.5 30t96.5 9.5q25 0 56.5 -4t50.5 -10q1 56 -24.5 86.5t-87.5 30.5q-41 0 -76 -13t-73 -42zM234 93
q23 0 50 7.5t49.5 25t36.5 38.5v50q-16 5 -43.5 9.5t-51.5 4.5q-137 0 -137 -69q0 -30 26.5 -48t69.5 -18zM91 672q0 25 19 41.5t44 16.5q24 0 44 -17t20 -41q0 -27 -20 -44t-44 -17q-25 0 -44 17t-19 44zM308 672q0 25 20 41.5t46 16.5q25 0 44.5 -17t19.5 -41
q0 -27 -19 -44t-45 -17q-27 0 -46.5 17t-19.5 44z" />
    <glyph glyph-name="aring" unicode="&#xe5;" horiz-adv-x="534" 
d="M109 371l-56 84q36 35 95.5 56t122.5 21q102 0 157.5 -56t55.5 -158v-318h-114v57q-25 -28 -66.5 -45.5t-94.5 -17.5q-85 0 -137 44.5t-52 119.5q0 42 18 73.5t51 52t77.5 30t96.5 9.5q25 0 56.5 -4t50.5 -10q1 56 -24.5 86.5t-87.5 30.5q-41 0 -76 -13t-73 -42zM234 93
q23 0 50 7.5t49.5 25t36.5 38.5v50q-16 5 -43.5 9.5t-51.5 4.5q-137 0 -137 -69q0 -30 26.5 -48t69.5 -18zM145 701q0 48 35 82.5t87 34.5q38 0 69 -20t43 -47.5t12 -49.5t-12 -49t-43 -46.5t-69 -19.5q-52 0 -87 33.5t-35 81.5zM222 702q0 -20 12.5 -33t33.5 -13
q20 0 33 12.5t13 33.5t-12.5 33.5t-33.5 12.5t-33.5 -12.5t-12.5 -33.5z" />
    <glyph glyph-name="ae" unicode="&#xe6;" horiz-adv-x="908" 
d="M788 166l70 -69q-39 -52 -93.5 -79t-117.5 -27q-33 0 -74 8t-80.5 30.5t-66.5 55.5q-75 -91 -204 -91q-94 0 -148 45t-54 119q0 42 18 73.5t51 52t77.5 30t96.5 9.5q25 0 57 -4t51 -10q1 56 -25 86.5t-88 30.5q-41 0 -76 -13t-73 -42l-56 84q36 35 95.5 56t122.5 21
q57 0 101 -19t70 -53q34 34 83.5 53t109.5 19q51 0 96 -17t78.5 -48.5t51.5 -76t18 -96.5q0 -26 -6 -73h-386q7 -61 52.5 -92.5t109.5 -31.5q41 0 78.5 19t60.5 50zM234 93q24 0 52 9t51 29.5t34 42.5v40q-16 5 -43.5 9.5t-52.5 4.5q-137 0 -137 -69q0 -30 26.5 -48
t69.5 -18zM630 429q-56 0 -93.5 -29.5t-48.5 -79.5h273q-7 53 -41.5 81t-89.5 28z" />
    <glyph glyph-name="ccedilla" unicode="&#xe7;" horiz-adv-x="538" 
d="M171 -166l35 59q14 -11 35 -18t43 -7q40 0 40 21q0 23 -50 23h-13v82q-106 14 -169 85.5t-63 181.5q0 56 19.5 106t56 87t88 57.5t110.5 20.5q37 0 82 -11t83.5 -40t57.5 -67l-85 -56q-26 35 -58 51.5t-75 16.5q-71 0 -116 -46t-45 -119q0 -71 48 -117.5t125 -46.5
q82 0 131 74l81 -52q-30 -58 -86 -91t-122 -36v-24q49 -3 76 -25.5t27 -59.5q0 -29 -20 -51t-51.5 -30.5t-65.5 -8.5q-67 0 -119 41z" />
    <glyph glyph-name="egrave" unicode="&#xe8;" horiz-adv-x="569" 
d="M449 166l70 -69q-39 -52 -93.5 -79t-117.5 -27q-61 0 -113 19t-89 54.5t-57 86t-20 110.5q0 57 17.5 106.5t51.5 86.5t84.5 57.5t113.5 20.5q51 0 96 -17t78.5 -48.5t51.5 -76t18 -96.5q0 -26 -6 -73h-386q7 -61 52.5 -92.5t109.5 -31.5q41 0 78.5 19t60.5 50zM291 429
q-56 0 -93.5 -29.5t-48.5 -79.5h273q-7 52 -41.5 80.5t-89.5 28.5zM299 598l-137 154l89 67l115 -167z" />
    <glyph glyph-name="eacute" unicode="&#xe9;" horiz-adv-x="569" 
d="M449 166l70 -69q-39 -52 -93.5 -79t-117.5 -27q-61 0 -113 19t-89 54.5t-57 86t-20 110.5q0 57 17.5 106.5t51.5 86.5t84.5 57.5t113.5 20.5q51 0 96 -17t78.5 -48.5t51.5 -76t18 -96.5q0 -26 -6 -73h-386q7 -61 52.5 -92.5t109.5 -31.5q41 0 78.5 19t60.5 50zM291 429
q-56 0 -93.5 -29.5t-48.5 -79.5h273q-7 52 -41.5 80.5t-89.5 28.5zM425 755l-127 -157l-77 54l118 167z" />
    <glyph glyph-name="ecircumflex" unicode="&#xea;" horiz-adv-x="569" 
d="M449 166l70 -69q-39 -52 -93.5 -79t-117.5 -27q-61 0 -113 19t-89 54.5t-57 86t-20 110.5q0 57 17.5 106.5t51.5 86.5t84.5 57.5t113.5 20.5q51 0 96 -17t78.5 -48.5t51.5 -76t18 -96.5q0 -26 -6 -73h-386q7 -61 52.5 -92.5t109.5 -31.5q41 0 78.5 19t60.5 50zM291 429
q-56 0 -93.5 -29.5t-48.5 -79.5h273q-7 52 -41.5 80.5t-89.5 28.5zM300 790l157 -131l-57 -70l-102 88l-106 -85l-52 68l156 130h4z" />
    <glyph glyph-name="edieresis" unicode="&#xeb;" horiz-adv-x="569" 
d="M449 166l70 -69q-39 -52 -93.5 -79t-117.5 -27q-61 0 -113 19t-89 54.5t-57 86t-20 110.5q0 57 17.5 106.5t51.5 86.5t84.5 57.5t113.5 20.5q51 0 96 -17t78.5 -48.5t51.5 -76t18 -96.5q0 -26 -6 -73h-386q7 -61 52.5 -92.5t109.5 -31.5q41 0 78.5 19t60.5 50zM291 429
q-56 0 -93.5 -29.5t-48.5 -79.5h273q-7 52 -41.5 80.5t-89.5 28.5zM111 672q0 25 19 41.5t44 16.5q24 0 44 -17t20 -41q0 -27 -20 -44t-44 -17q-25 0 -44 17t-19 44zM328 672q0 25 20 41.5t46 16.5q25 0 44.5 -17t19.5 -41q0 -27 -19 -44t-45 -17q-27 0 -46.5 17t-19.5 44z
" />
    <glyph glyph-name="igrave" unicode="&#xec;" horiz-adv-x="253" 
d="M70 0v520h114v-520h-114zM138 598l-137 154l89 67l115 -167z" />
    <glyph glyph-name="iacute" unicode="&#xed;" horiz-adv-x="253" 
d="M70 0v520h114v-520h-114zM257 755l-127 -157l-77 54l118 167z" />
    <glyph glyph-name="icircumflex" unicode="&#xee;" horiz-adv-x="253" 
d="M70 0v520h114v-520h-114zM128 790l157 -131l-57 -70l-102 88l-106 -85l-52 68l156 130h4z" />
    <glyph glyph-name="idieresis" unicode="&#xef;" horiz-adv-x="253" 
d="M70 0v520h114v-520h-114zM-46 672q0 25 19 41.5t44 16.5q24 0 44 -17t20 -41q0 -27 -20 -44t-44 -17q-25 0 -44 17t-19 44zM171 672q0 25 20 41.5t46 16.5q25 0 44.5 -17t19.5 -41q0 -27 -19 -44t-45 -17q-27 0 -46.5 17t-19.5 44z" />
    <glyph glyph-name="eth" unicode="&#xf0;" horiz-adv-x="615" 
d="M288 783l80 -32l-23 -52q117 -52 179 -153t62 -243q0 -72 -20.5 -130.5t-57.5 -99t-89 -61.5t-112 -21q-59 0 -110.5 20t-89 56.5t-58 86.5t-20.5 107t20 105.5t57 83.5t89 53.5t112 18.5q37 0 72 -11t57 -31q-18 39 -52.5 72.5t-79.5 56.5l-26 -58l-80 32l25 56
q-38 9 -79 12l26 95q50 -6 93 -18zM146 261q0 -71 45.5 -117.5t115.5 -46.5q75 0 118.5 48t43.5 137q0 54 -12 80q-21 27 -57.5 43.5t-77.5 16.5q-80 0 -128 -43t-48 -118z" />
    <glyph glyph-name="ntilde" unicode="&#xf1;" horiz-adv-x="586" 
d="M53 0v520h114v-47q31 30 69 44t91 14q103 0 156 -57.5t53 -179.5v-294h-114v285q0 74 -31.5 107t-96.5 33q-41 0 -75.5 -24t-51.5 -64v-337h-114zM167 612l-49 53q27 34 59.5 52.5t62.5 18.5q24 0 62 -22t58 -22q34 0 66 30l40 -58q-25 -31 -56 -48.5t-60 -17.5
q-24 0 -61.5 21.5t-57.5 21.5q-15 0 -32 -8.5t-32 -20.5z" />
    <glyph glyph-name="ograve" unicode="&#xf2;" horiz-adv-x="615" 
d="M29 261q0 57 20 107.5t57.5 87t89 56.5t111.5 20t111.5 -20t89 -56.5t58 -87t20.5 -107.5t-20.5 -107t-58 -86.5t-89 -56.5t-111.5 -20q-59 0 -110.5 20t-89 56.5t-58 86.5t-20.5 107zM147 261q0 -71 45 -117.5t115 -46.5q72 0 116.5 45t44.5 119q0 37 -15.5 75t-55 64
t-90.5 26q-69 0 -114.5 -45t-45.5 -120zM308 598l-137 154l89 67l115 -167z" />
    <glyph glyph-name="oacute" unicode="&#xf3;" horiz-adv-x="615" 
d="M29 261q0 57 20 107.5t57.5 87t89 56.5t111.5 20t111.5 -20t89 -56.5t58 -87t20.5 -107.5t-20.5 -107t-58 -86.5t-89 -56.5t-111.5 -20q-59 0 -110.5 20t-89 56.5t-58 86.5t-20.5 107zM147 261q0 -71 45 -117.5t115 -46.5q72 0 116.5 45t44.5 119q0 37 -15.5 75t-55 64
t-90.5 26q-69 0 -114.5 -45t-45.5 -120zM441 755l-127 -157l-77 54l118 167z" />
    <glyph glyph-name="ocircumflex" unicode="&#xf4;" horiz-adv-x="615" 
d="M29 261q0 57 20 107.5t57.5 87t89 56.5t111.5 20t111.5 -20t89 -56.5t58 -87t20.5 -107.5t-20.5 -107t-58 -86.5t-89 -56.5t-111.5 -20q-59 0 -110.5 20t-89 56.5t-58 86.5t-20.5 107zM147 261q0 -71 45 -117.5t115 -46.5q72 0 116.5 45t44.5 119q0 37 -15.5 75t-55 64
t-90.5 26q-69 0 -114.5 -45t-45.5 -120zM309 790l157 -131l-57 -70l-102 88l-106 -85l-52 68l156 130h4z" />
    <glyph glyph-name="otilde" unicode="&#xf5;" horiz-adv-x="615" 
d="M29 261q0 57 20 107.5t57.5 87t89 56.5t111.5 20t111.5 -20t89 -56.5t58 -87t20.5 -107.5t-20.5 -107t-58 -86.5t-89 -56.5t-111.5 -20q-59 0 -110.5 20t-89 56.5t-58 86.5t-20.5 107zM147 261q0 -71 45 -117.5t115 -46.5q72 0 116.5 45t44.5 119q0 37 -15.5 75t-55 64
t-90.5 26q-69 0 -114.5 -45t-45.5 -120zM182 612l-49 53q27 34 59.5 52.5t62.5 18.5q24 0 62 -22t58 -22q34 0 66 30l40 -58q-25 -31 -56 -48.5t-60 -17.5q-24 0 -61.5 21.5t-57.5 21.5q-15 0 -32 -8.5t-32 -20.5z" />
    <glyph glyph-name="odieresis" unicode="&#xf6;" horiz-adv-x="615" 
d="M29 261q0 57 20 107.5t57.5 87t89 56.5t111.5 20t111.5 -20t89 -56.5t58 -87t20.5 -107.5t-20.5 -107t-58 -86.5t-89 -56.5t-111.5 -20q-59 0 -110.5 20t-89 56.5t-58 86.5t-20.5 107zM147 261q0 -71 45 -117.5t115 -46.5q72 0 116.5 45t44.5 119q0 37 -15.5 75t-55 64
t-90.5 26q-69 0 -114.5 -45t-45.5 -120zM134 672q0 25 19 41.5t44 16.5q24 0 44 -17t20 -41q0 -27 -20 -44t-44 -17q-25 0 -44 17t-19 44zM351 672q0 25 20 41.5t46 16.5q25 0 44.5 -17t19.5 -41q0 -27 -19 -44t-45 -17q-27 0 -46.5 17t-19.5 44z" />
    <glyph glyph-name="divide" unicode="&#xf7;" horiz-adv-x="566" 
d="M217 552q0 22 19 40.5t48 18.5q27 0 45.5 -18.5t18.5 -40.5q0 -24 -18.5 -42t-45.5 -18q-29 0 -48 18t-19 42zM217 167q0 23 19 41t48 18q27 0 45.5 -18.5t18.5 -40.5q0 -24 -18.5 -42.5t-45.5 -18.5q-29 0 -48 18t-19 43zM44 309v101h478v-101h-478z" />
    <glyph glyph-name="oslash" unicode="&#xf8;" horiz-adv-x="615" 
d="M29 261q0 57 20 107.5t57.5 87t89 56.5t111.5 20q33 0 68.5 -7.5t62.5 -20.5l51 62l82 -66l-49 -60q31 -35 47.5 -81.5t16.5 -97.5q0 -57 -20.5 -107t-58 -86.5t-89 -56.5t-111.5 -20q-72 0 -128 27l-52 -64l-84 70l49 59q-30 35 -46.5 81t-16.5 97zM147 261
q0 -49 21 -85l197 240q-30 10 -58 10q-69 0 -114.5 -45t-45.5 -120zM468 261q0 47 -21 86l-197 -241q27 -9 57 -9q72 0 116.5 45t44.5 119z" />
    <glyph glyph-name="ugrave" unicode="&#xf9;" horiz-adv-x="578" 
d="M525 523v-523h-114v55q-26 -29 -63 -46.5t-82 -17.5q-108 0 -162 57t-54 176v299h114v-288q0 -73 29 -105.5t84 -32.5q44 0 78 23.5t56 66.5v336h114zM304 598l-137 154l89 67l115 -167z" />
    <glyph glyph-name="uacute" unicode="&#xfa;" horiz-adv-x="578" 
d="M525 523v-523h-114v55q-26 -29 -63 -46.5t-82 -17.5q-108 0 -162 57t-54 176v299h114v-288q0 -73 29 -105.5t84 -32.5q44 0 78 23.5t56 66.5v336h114zM417 755l-127 -157l-77 54l118 167z" />
    <glyph glyph-name="ucircumflex" unicode="&#xfb;" horiz-adv-x="578" 
d="M525 523v-523h-114v55q-26 -29 -63 -46.5t-82 -17.5q-108 0 -162 57t-54 176v299h114v-288q0 -73 29 -105.5t84 -32.5q44 0 78 23.5t56 66.5v336h114zM291 790l157 -131l-57 -70l-102 88l-106 -85l-52 68l156 130h4z" />
    <glyph glyph-name="udieresis" unicode="&#xfc;" horiz-adv-x="578" 
d="M525 523v-523h-114v55q-26 -29 -63 -46.5t-82 -17.5q-108 0 -162 57t-54 176v299h114v-288q0 -73 29 -105.5t84 -32.5q44 0 78 23.5t56 66.5v336h114zM113 672q0 25 19 41.5t44 16.5q24 0 44 -17t20 -41q0 -27 -20 -44t-44 -17q-25 0 -44 17t-19 44zM330 672
q0 25 20 41.5t46 16.5q25 0 44.5 -17t19.5 -41q0 -27 -19 -44t-45 -17q-27 0 -46.5 17t-19.5 44z" />
    <glyph glyph-name="yacute" unicode="&#xfd;" horiz-adv-x="548" 
d="M75 -194l45 97q11 -6 23 -6q47 0 82 87l18 47l-256 489h132l179 -351l138 351h122l-204 -505q-45 -112 -90.5 -168t-116.5 -56q-42 0 -72 15zM412 755l-127 -157l-77 54l118 167z" />
    <glyph glyph-name="thorn" unicode="&#xfe;" horiz-adv-x="590" 
d="M53 -200v930h112v-257q23 29 63 44t81 15q57 0 104 -19.5t80 -54.5t50.5 -83.5t17.5 -105.5q0 -58 -18.5 -109.5t-53 -89t-83 -58.5t-105.5 -21q-44 0 -81.5 11.5t-54.5 31.5v-234h-112zM297 426q-46 0 -80.5 -24.5t-51.5 -60.5v-180q18 -30 51 -47t72 -17q69 0 112 45
t43 118q0 78 -39 122t-107 44z" />
    <glyph glyph-name="ydieresis" unicode="&#xff;" horiz-adv-x="548" 
d="M75 -194l45 97q11 -6 23 -6q47 0 82 87l18 47l-256 489h132l179 -351l138 351h122l-204 -505q-45 -112 -90.5 -168t-116.5 -56q-42 0 -72 15zM101 672q0 25 19 41.5t44 16.5q24 0 44 -17t20 -41q0 -27 -20 -44t-44 -17q-25 0 -44 17t-19 44zM318 672q0 25 20 41.5
t46 16.5q25 0 44.5 -17t19.5 -41q0 -27 -19 -44t-45 -17q-27 0 -46.5 17t-19.5 44z" />
    <glyph glyph-name="Amacron" unicode="&#x100;" horiz-adv-x="704" 
d="M-1 0l307 700h92l307 -700h-127l-68 155h-319l-67 -155h-125zM350 525l-115 -266h230zM198 780v95h307v-95h-307z" />
    <glyph glyph-name="amacron" unicode="&#x101;" horiz-adv-x="534" 
d="M109 371l-56 84q36 35 95.5 56t122.5 21q102 0 157.5 -56t55.5 -158v-318h-114v57q-25 -28 -66.5 -45.5t-94.5 -17.5q-85 0 -137 44.5t-52 119.5q0 42 18 73.5t51 52t77.5 30t96.5 9.5q25 0 56.5 -4t50.5 -10q1 56 -24.5 86.5t-87.5 30.5q-41 0 -76 -13t-73 -42zM234 93
q23 0 50 7.5t49.5 25t36.5 38.5v50q-16 5 -43.5 9.5t-51.5 4.5q-137 0 -137 -69q0 -30 26.5 -48t69.5 -18zM127 625v95h281v-95h-281z" />
    <glyph glyph-name="Abreve" unicode="&#x102;" horiz-adv-x="704" 
d="M-1 0l307 700h92l307 -700h-127l-68 155h-319l-67 -155h-125zM350 525l-115 -266h230zM161 865l52 59q56 -61 143 -61q45 0 81 17.5t59 43.5l45 -58q-19 -31 -53 -57.5t-69.5 -37t-62.5 -10.5q-32 0 -70.5 11.5t-72 37.5t-52.5 55z" />
    <glyph glyph-name="abreve" unicode="&#x103;" horiz-adv-x="534" 
d="M109 371l-56 84q36 35 95.5 56t122.5 21q102 0 157.5 -56t55.5 -158v-318h-114v57q-25 -28 -66.5 -45.5t-94.5 -17.5q-85 0 -137 44.5t-52 119.5q0 42 18 73.5t51 52t77.5 30t96.5 9.5q25 0 56.5 -4t50.5 -10q1 56 -24.5 86.5t-87.5 30.5q-41 0 -76 -13t-73 -42zM234 93
q23 0 50 7.5t49.5 25t36.5 38.5v50q-16 5 -43.5 9.5t-51.5 4.5q-137 0 -137 -69q0 -30 26.5 -48t69.5 -18zM99 717l51 58q26 -29 56 -42t56 -13t58 12t57 41l40 -55q-63 -95 -159 -95q-31 0 -63 12.5t-57.5 36t-38.5 45.5z" />
    <glyph glyph-name="Aogonek" unicode="&#x104;" horiz-adv-x="704" 
d="M669 -97l31 -73q-13 -12 -41.5 -21t-59.5 -9q-55 -1 -94 23t-39 70q0 35 26.5 65t82.5 47l-65 150h-319l-67 -155h-125l307 700h92l307 -700h-21q-19 0 -43.5 -8t-43 -26t-18.5 -36q0 -14 10 -25.5t34 -11.5q25 0 46 10zM350 525l-115 -266h230z" />
    <glyph glyph-name="aogonek" unicode="&#x105;" horiz-adv-x="534" 
d="M462 -96l34 -73q-14 -13 -41.5 -22t-59.5 -9q-54 0 -92 24.5t-38 71.5q0 19 10 40.5t36 40t59 29.5v47q-24 -27 -65.5 -43t-95.5 -16q-85 0 -137 44.5t-52 119.5q0 42 18 73.5t51 52t77.5 30t96.5 9.5q25 0 56.5 -4t50.5 -10q1 56 -24.5 86.5t-87.5 30.5q-41 0 -76 -13
t-73 -42l-56 84q36 35 95.5 56t122.5 21q102 0 157.5 -56t55.5 -158v-318h-3q-17 0 -40 -7t-41 -24.5t-18 -36.5q0 -17 10.5 -27t26.5 -10q24 0 43 9zM234 93q23 0 50 7.5t49.5 25t36.5 38.5v50q-16 5 -43.5 9.5t-51.5 4.5q-137 0 -137 -69q0 -30 26.5 -48t69.5 -18z" />
    <glyph glyph-name="Cacute" unicode="&#x106;" horiz-adv-x="692" 
d="M606 200l71 -78q-43 -60 -119.5 -95t-164.5 -35q-80 0 -147.5 25.5t-114.5 72.5t-72.5 114t-25.5 146q0 73 25.5 139t73 115t114.5 76.5t145 27.5q91 0 164.5 -34t110.5 -87l-80 -76q-35 39 -84 60t-105 21q-53 0 -97 -17t-75.5 -49t-48.5 -77.5t-17 -98.5
q0 -108 68 -175t175 -67q31 0 68 8t73 30t63 54zM565 849l-220 -104l-43 76l210 128z" />
    <glyph glyph-name="cacute" unicode="&#x107;" horiz-adv-x="538" 
d="M451 171l81 -52q-31 -60 -92.5 -94t-130.5 -34q-61 0 -113 19t-89.5 54.5t-57.5 86t-20 110.5q0 56 19.5 106t56 87t88 57.5t110.5 20.5q37 0 82 -11t83.5 -40t57.5 -67l-85 -56q-26 35 -58 51.5t-75 16.5q-71 0 -116 -46t-45 -119q0 -71 48 -117.5t125 -46.5
q82 0 131 74zM447 755l-127 -157l-77 54l118 167z" />
    <glyph glyph-name="Ccircumflex" unicode="&#x108;" horiz-adv-x="692" 
d="M606 200l71 -78q-43 -60 -119.5 -95t-164.5 -35q-80 0 -147.5 25.5t-114.5 72.5t-72.5 114t-25.5 146q0 73 25.5 139t73 115t114.5 76.5t145 27.5q91 0 164.5 -34t110.5 -87l-80 -76q-35 39 -84 60t-105 21q-53 0 -97 -17t-75.5 -49t-48.5 -77.5t-17 -98.5
q0 -108 68 -175t175 -67q31 0 68 8t73 30t63 54zM376 929l184 -111l-47 -69l-139 73l-138 -73l-40 67l176 113h4z" />
    <glyph glyph-name="ccircumflex" unicode="&#x109;" horiz-adv-x="538" 
d="M451 171l81 -52q-31 -60 -92.5 -94t-130.5 -34q-61 0 -113 19t-89.5 54.5t-57.5 86t-20 110.5q0 56 19.5 106t56 87t88 57.5t110.5 20.5q37 0 82 -11t83.5 -40t57.5 -67l-85 -56q-26 35 -58 51.5t-75 16.5q-71 0 -116 -46t-45 -119q0 -71 48 -117.5t125 -46.5
q82 0 131 74zM301 790l157 -131l-57 -70l-102 88l-106 -85l-52 68l156 130h4z" />
    <glyph glyph-name="Cdotaccent" unicode="&#x10a;" horiz-adv-x="692" 
d="M606 200l71 -78q-43 -60 -119.5 -95t-164.5 -35q-80 0 -147.5 25.5t-114.5 72.5t-72.5 114t-25.5 146q0 73 25.5 139t73 115t114.5 76.5t145 27.5q91 0 164.5 -34t110.5 -87l-80 -76q-35 39 -84 60t-105 21q-53 0 -97 -17t-75.5 -49t-48.5 -77.5t-17 -98.5
q0 -108 68 -175t175 -67q31 0 68 8t73 30t63 54zM314 827q0 25 19 42.5t48 17.5q27 0 46.5 -17.5t19.5 -42.5q0 -26 -19 -44t-47 -18q-30 0 -48.5 17.5t-18.5 44.5z" />
    <glyph glyph-name="cdotaccent" unicode="&#x10b;" horiz-adv-x="538" 
d="M451 171l81 -52q-31 -60 -92.5 -94t-130.5 -34q-61 0 -113 19t-89.5 54.5t-57.5 86t-20 110.5q0 56 19.5 106t56 87t88 57.5t110.5 20.5q37 0 82 -11t83.5 -40t57.5 -67l-85 -56q-26 35 -58 51.5t-75 16.5q-71 0 -116 -46t-45 -119q0 -71 48 -117.5t125 -46.5
q82 0 131 74zM233 671q0 25 19.5 42t47.5 17q27 0 46.5 -17t19.5 -42q0 -27 -19 -45t-47 -18q-29 0 -48 18t-19 45z" />
    <glyph glyph-name="Ccaron" unicode="&#x10c;" horiz-adv-x="692" 
d="M606 200l71 -78q-43 -60 -119.5 -95t-164.5 -35q-80 0 -147.5 25.5t-114.5 72.5t-72.5 114t-25.5 146q0 73 25.5 139t73 115t114.5 76.5t145 27.5q91 0 164.5 -34t110.5 -87l-80 -76q-35 39 -84 60t-105 21q-53 0 -97 -17t-75.5 -49t-48.5 -77.5t-17 -98.5
q0 -108 68 -175t175 -67q31 0 68 8t73 30t63 54zM375 750l-183 111l46 68l139 -79l138 79l41 -67l-177 -112h-4z" />
    <glyph glyph-name="ccaron" unicode="&#x10d;" horiz-adv-x="538" 
d="M451 171l81 -52q-31 -60 -92.5 -94t-130.5 -34q-61 0 -113 19t-89.5 54.5t-57.5 86t-20 110.5q0 56 19.5 106t56 87t88 57.5t110.5 20.5q37 0 82 -11t83.5 -40t57.5 -67l-85 -56q-26 35 -58 51.5t-75 16.5q-71 0 -116 -46t-45 -119q0 -71 48 -117.5t125 -46.5
q82 0 131 74zM301 609l-157 131l57 69l102 -87l106 85l52 -68l-156 -130h-4z" />
    <glyph glyph-name="Dcaron" unicode="&#x10e;" horiz-adv-x="716" 
d="M70 0v700h219q104 0 180.5 -27t123.5 -73.5t68.5 -108.5t21.5 -132q0 -75 -24.5 -141t-74.5 -114.5t-128 -76t-180 -27.5h-206zM287 586h-96v-472h94q52 0 102 12t87.5 40.5t60 76t22.5 116.5q0 78 -31.5 127.5t-90 74.5t-148.5 25zM302 750l-183 111l46 68l139 -79
l138 79l41 -67l-177 -112h-4z" />
    <glyph glyph-name="dcaron" unicode="&#x10f;" horiz-adv-x="633" 
d="M426 0v57q-12 -16 -36.5 -33t-54 -24.5t-55.5 -7.5q-54 0 -100.5 18t-80 52.5t-52 84.5t-18.5 112q0 58 20 109t56 87.5t83.5 56.5t99.5 20q93 0 138 -39v237h114v-730h-114zM301 98q20 0 45 8.5t47.5 29.5t32.5 43v190q-40 57 -119 57q-49 0 -85.5 -23t-55.5 -59
t-19 -83q0 -75 43 -119t111 -44zM603 731h119q13 -23 13 -67q0 -25 -11.5 -57t-39 -62t-57.5 -49l-49 44q23 21 35.5 51t12.5 55q0 23 -7 48t-16 37z" />
    <glyph glyph-name="Dcroat" unicode="&#x110;" horiz-adv-x="778" 
d="M15 298v101h117v301h218q104 0 181 -27t123.5 -73.5t68 -108.5t21.5 -132q0 -75 -24.5 -141t-74 -114.5t-127.5 -76t-180 -27.5h-206v298h-117zM348 586h-95v-187h174v-101h-174v-184h94q52 0 102 12t87.5 40.5t59.5 76t22 116.5q0 227 -270 227z" />
    <glyph glyph-name="dcroat" unicode="&#x111;" horiz-adv-x="593" 
d="M314 566v101h112v63h114v-63h52v-101h-52v-566h-114v57q-12 -16 -36.5 -33t-54 -24.5t-55.5 -7.5q-54 0 -100.5 18t-80 52.5t-52 84.5t-18.5 112q0 58 20 109t56 87.5t83.5 56.5t99.5 20q93 0 138 -39v73h-112zM301 98q20 0 45 8.5t47.5 29.5t32.5 43v190q-40 57 -119 57
q-49 0 -85.5 -23t-55.5 -59t-19 -83q0 -75 43 -119t111 -44z" />
    <glyph glyph-name="Emacron" unicode="&#x112;" horiz-adv-x="645" 
d="M70 0v700h520v-114h-399v-176h373v-110h-373v-186h409v-114h-530zM173 780v95h307v-95h-307z" />
    <glyph glyph-name="emacron" unicode="&#x113;" horiz-adv-x="569" 
d="M449 166l70 -69q-39 -52 -93.5 -79t-117.5 -27q-61 0 -113 19t-89 54.5t-57 86t-20 110.5q0 57 17.5 106.5t51.5 86.5t84.5 57.5t113.5 20.5q51 0 96 -17t78.5 -48.5t51.5 -76t18 -96.5q0 -26 -6 -73h-386q7 -61 52.5 -92.5t109.5 -31.5q41 0 78.5 19t60.5 50zM291 429
q-56 0 -93.5 -29.5t-48.5 -79.5h273q-7 52 -41.5 80.5t-89.5 28.5zM147 625v95h281v-95h-281z" />
    <glyph glyph-name="Edotaccent" unicode="&#x116;" horiz-adv-x="645" 
d="M70 0v700h520v-114h-399v-176h373v-110h-373v-186h409v-114h-530zM264 827q0 25 19 42.5t48 17.5q27 0 46.5 -17.5t19.5 -42.5q0 -26 -19 -44t-47 -18q-30 0 -48.5 17.5t-18.5 44.5z" />
    <glyph glyph-name="edotaccent" unicode="&#x117;" horiz-adv-x="569" 
d="M449 166l70 -69q-39 -52 -93.5 -79t-117.5 -27q-61 0 -113 19t-89 54.5t-57 86t-20 110.5q0 57 17.5 106.5t51.5 86.5t84.5 57.5t113.5 20.5q51 0 96 -17t78.5 -48.5t51.5 -76t18 -96.5q0 -26 -6 -73h-386q7 -61 52.5 -92.5t109.5 -31.5q41 0 78.5 19t60.5 50zM291 429
q-56 0 -93.5 -29.5t-48.5 -79.5h273q-7 52 -41.5 80.5t-89.5 28.5zM227 671q0 25 19.5 42t47.5 17q27 0 46.5 -17t19.5 -42q0 -27 -19 -45t-47 -18q-29 0 -48 18t-19 45z" />
    <glyph glyph-name="Eogonek" unicode="&#x118;" horiz-adv-x="645" 
d="M70 0v700h520v-114h-399v-176h373v-110h-373v-186h409v-114h-5q-30 0 -58 -13t-39.5 -29t-11.5 -28q0 -14 10 -25.5t34 -11.5q25 0 46 10l31 -73q-13 -12 -41.5 -21t-59.5 -9q-55 -1 -94 23t-39 70q0 36 25.5 63.5t67.5 43.5h-396z" />
    <glyph glyph-name="eogonek" unicode="&#x119;" horiz-adv-x="569" 
d="M449 166l70 -69q-17 -24 -41 -44.5t-47 -32.5q-69 -58 -69 -88q0 -17 10.5 -27t26.5 -10q23 0 42 9l35 -73q-13 -13 -41 -22t-60 -9q-54 0 -92 24t-38 68q0 24 15.5 48t62.5 52l-15 -1q-61 0 -113 19t-89 54.5t-57 86t-20 110.5q0 57 17.5 106.5t51.5 86.5t84.5 57.5
t113.5 20.5q51 0 96 -17t78.5 -48.5t51.5 -76t18 -96.5q0 -26 -6 -73h-386q7 -61 52.5 -92.5t109.5 -31.5q41 0 78.5 19t60.5 50zM291 429q-56 0 -93.5 -29.5t-48.5 -79.5h273q-7 52 -41.5 80.5t-89.5 28.5z" />
    <glyph glyph-name="Ecaron" unicode="&#x11a;" horiz-adv-x="645" 
d="M70 0v700h520v-114h-399v-176h373v-110h-373v-186h409v-114h-530zM335 750l-183 111l46 68l139 -79l138 79l41 -67l-177 -112h-4z" />
    <glyph glyph-name="ecaron" unicode="&#x11b;" horiz-adv-x="569" 
d="M449 166l70 -69q-39 -52 -93.5 -79t-117.5 -27q-61 0 -113 19t-89 54.5t-57 86t-20 110.5q0 57 17.5 106.5t51.5 86.5t84.5 57.5t113.5 20.5q51 0 96 -17t78.5 -48.5t51.5 -76t18 -96.5q0 -26 -6 -73h-386q7 -61 52.5 -92.5t109.5 -31.5q41 0 78.5 19t60.5 50zM291 429
q-56 0 -93.5 -29.5t-48.5 -79.5h273q-7 52 -41.5 80.5t-89.5 28.5zM283 609l-157 131l57 69l102 -87l106 85l52 -68l-156 -130h-4z" />
    <glyph glyph-name="Gcircumflex" unicode="&#x11c;" horiz-adv-x="715" 
d="M380 264v110h302v-271q-35 -38 -87 -65t-102 -36.5t-87 -9.5q-79 0 -148 25.5t-119.5 73t-78 114t-27.5 145.5q0 73 26.5 139t75 115t115.5 76.5t143 27.5q87 0 161 -30.5t112 -82.5l-81 -77q-31 35 -79 54.5t-107 19.5q-109 0 -174.5 -66t-65.5 -176q0 -56 18.5 -101.5
t52 -76.5t79.5 -47.5t99 -16.5q42 0 84 12t74 37v107h-186zM376 929l184 -111l-47 -69l-139 73l-138 -73l-40 67l176 113h4z" />
    <glyph glyph-name="gcircumflex" unicode="&#x11d;" horiz-adv-x="589" 
d="M536 520v-478q0 -63 -17 -111t-49 -79t-76 -46t-98 -15q-88 0 -150.5 36t-85.5 98l99 43q16 -30 49 -50.5t79 -20.5q68 0 101.5 32.5t33.5 91.5v23q-34 -53 -138 -53q-55 0 -102.5 18t-81.5 52.5t-52.5 85.5t-18.5 114q0 45 13.5 92t50 90.5t89 64.5t103.5 21
q92 0 137 -43v34h114zM303 97q21 0 45.5 8t44.5 28t29 43v192q-16 25 -47 40t-73 15q-66 0 -110.5 -43.5t-44.5 -120.5q0 -76 42 -119t114 -43zM303 790l157 -131l-57 -70l-102 88l-106 -85l-52 68l156 130h4z" />
    <glyph glyph-name="Gbreve" unicode="&#x11e;" horiz-adv-x="715" 
d="M380 264v110h302v-271q-35 -38 -87 -65t-102 -36.5t-87 -9.5q-79 0 -148 25.5t-119.5 73t-78 114t-27.5 145.5q0 73 26.5 139t75 115t115.5 76.5t143 27.5q87 0 161 -30.5t112 -82.5l-81 -77q-31 35 -79 54.5t-107 19.5q-109 0 -174.5 -66t-65.5 -176q0 -56 18.5 -101.5
t52 -76.5t79.5 -47.5t99 -16.5q42 0 84 12t74 37v107h-186zM199 865l52 59q56 -61 143 -61q45 0 81 17.5t59 43.5l45 -58q-19 -31 -53 -57.5t-69.5 -37t-62.5 -10.5q-32 0 -70.5 11.5t-72 37.5t-52.5 55z" />
    <glyph glyph-name="gbreve" unicode="&#x11f;" horiz-adv-x="589" 
d="M536 520v-478q0 -63 -17 -111t-49 -79t-76 -46t-98 -15q-88 0 -150.5 36t-85.5 98l99 43q16 -30 49 -50.5t79 -20.5q68 0 101.5 32.5t33.5 91.5v23q-34 -53 -138 -53q-55 0 -102.5 18t-81.5 52.5t-52.5 85.5t-18.5 114q0 45 13.5 92t50 90.5t89 64.5t103.5 21
q92 0 137 -43v34h114zM303 97q21 0 45.5 8t44.5 28t29 43v192q-16 25 -47 40t-73 15q-66 0 -110.5 -43.5t-44.5 -120.5q0 -76 42 -119t114 -43zM136 717l51 58q26 -29 56 -42t56 -13t58 12t57 41l40 -55q-63 -95 -159 -95q-31 0 -63 12.5t-57.5 36t-38.5 45.5z" />
    <glyph glyph-name="Gdotaccent" unicode="&#x120;" horiz-adv-x="715" 
d="M380 264v110h302v-271q-35 -38 -87 -65t-102 -36.5t-87 -9.5q-79 0 -148 25.5t-119.5 73t-78 114t-27.5 145.5q0 73 26.5 139t75 115t115.5 76.5t143 27.5q87 0 161 -30.5t112 -82.5l-81 -77q-31 35 -79 54.5t-107 19.5q-109 0 -174.5 -66t-65.5 -176q0 -56 18.5 -101.5
t52 -76.5t79.5 -47.5t99 -16.5q42 0 84 12t74 37v107h-186zM317 827q0 25 19 42.5t48 17.5q27 0 46.5 -17.5t19.5 -42.5q0 -26 -19 -44t-47 -18q-30 0 -48.5 17.5t-18.5 44.5z" />
    <glyph glyph-name="gdotaccent" unicode="&#x121;" horiz-adv-x="589" 
d="M536 520v-478q0 -63 -17 -111t-49 -79t-76 -46t-98 -15q-88 0 -150.5 36t-85.5 98l99 43q16 -30 49 -50.5t79 -20.5q68 0 101.5 32.5t33.5 91.5v23q-34 -53 -138 -53q-55 0 -102.5 18t-81.5 52.5t-52.5 85.5t-18.5 114q0 45 13.5 92t50 90.5t89 64.5t103.5 21
q92 0 137 -43v34h114zM303 97q21 0 45.5 8t44.5 28t29 43v192q-16 25 -47 40t-73 15q-66 0 -110.5 -43.5t-44.5 -120.5q0 -76 42 -119t114 -43zM238 671q0 25 19.5 42t47.5 17q27 0 46.5 -17t19.5 -42q0 -27 -19 -45t-47 -18q-29 0 -48 18t-19 45z" />
    <glyph glyph-name="Gcommaaccent" unicode="&#x122;" horiz-adv-x="715" 
d="M380 264v110h302v-271q-35 -38 -87 -65t-102 -36.5t-87 -9.5q-79 0 -148 25.5t-119.5 73t-78 114t-27.5 145.5q0 73 26.5 139t75 115t115.5 76.5t143 27.5q87 0 161 -30.5t112 -82.5l-81 -77q-31 35 -79 54.5t-107 19.5q-109 0 -174.5 -66t-65.5 -176q0 -56 18.5 -101.5
t52 -76.5t79.5 -47.5t99 -16.5q42 0 84 12t74 37v107h-186zM340 -100l94 62q20 -16 32.5 -38.5t12.5 -48.5q0 -25 -10.5 -55.5t-33.5 -56.5t-48 -41l-53 41q15 15 25 36.5t10 41.5q0 28 -29 59z" />
    <glyph glyph-name="gcommaaccent" unicode="&#x123;" horiz-adv-x="589" 
d="M377 633l-94 -61q-46 37 -46 86q0 26 10.5 56.5t33.5 56.5t48 41l54 -41q-16 -16 -26 -37t-10 -41q0 -28 30 -60zM536 520v-478q0 -63 -17 -111t-49 -79t-76 -46t-98 -15q-88 0 -150.5 36t-85.5 98l99 43q16 -30 49 -50.5t79 -20.5q68 0 101.5 32.5t33.5 91.5v23
q-34 -53 -138 -53q-55 0 -102.5 18t-81.5 52.5t-52.5 85.5t-18.5 114q0 45 13.5 92t50 90.5t89 64.5t103.5 21q92 0 137 -43v34h114zM303 97q21 0 45.5 8t44.5 28t29 43v192q-16 25 -47 40t-73 15q-66 0 -110.5 -43.5t-44.5 -120.5q0 -76 42 -119t114 -43z" />
    <glyph glyph-name="Hcircumflex" unicode="&#x124;" horiz-adv-x="749" 
d="M558 0v297h-367v-297h-121v700h121v-289h367v289h121v-700h-121zM372 929l184 -111l-47 -69l-139 73l-138 -73l-40 67l176 113h4z" />
    <glyph glyph-name="hcircumflex" unicode="&#x125;" horiz-adv-x="584" 
d="M53 0v730h114v-255q28 28 68 42t83 14q105 0 160.5 -58.5t55.5 -179.5v-293h-114v286q0 73 -30.5 106t-95.5 33q-41 0 -74.5 -23.5t-52.5 -62.5v-339h-114zM117 919l184 -111l-47 -69l-139 73l-138 -73l-40 67l176 113h4z" />
    <glyph glyph-name="Hbar" unicode="&#x126;" horiz-adv-x="749" 
d="M0 509v96h70v95h121v-95h367v95h121v-95h70v-96h-70v-509h-121v297h-367v-297h-121v509h-70zM191 411h367v98h-367v-98z" />
    <glyph glyph-name="hbar" unicode="&#x127;" horiz-adv-x="584" 
d="M0 566v101h53v63h114v-63h111v-101h-111v-91q28 28 68 42t83 14q105 0 160.5 -58.5t55.5 -179.5v-293h-114v286q0 73 -30.5 106t-95.5 33q-41 0 -74.5 -23.5t-52.5 -62.5v-339h-114v566h-53z" />
    <glyph glyph-name="Imacron" unicode="&#x12a;" horiz-adv-x="261" 
d="M70 0v700h121v-700h-121zM-23 780v95h307v-95h-307z" />
    <glyph glyph-name="imacron" unicode="&#x12b;" horiz-adv-x="253" 
d="M70 0v520h114v-520h-114zM-13 625v95h281v-95h-281z" />
    <glyph glyph-name="Iogonek" unicode="&#x12e;" horiz-adv-x="275" 
d="M176 -97l31 -73q-13 -12 -41.5 -21t-59.5 -9q-55 -1 -94 23t-39 70q0 38 28.5 66.5t75.5 44.5v696h121v-700h-7q-19 0 -43.5 -8t-43 -26t-18.5 -36q0 -14 10 -25.5t34 -11.5q25 0 46 10z" />
    <glyph glyph-name="iogonek" unicode="&#x12f;" horiz-adv-x="253" 
d="M161 -96l34 -73q-14 -13 -41.5 -22t-59.5 -9q-54 0 -92 24.5t-38 71.5q0 39 29.5 67.5t76.5 42.5v514h114v-520h-4q-17 0 -40 -7t-41 -24.5t-18 -36.5q0 -17 10.5 -27t26.5 -10q24 0 43 9zM60 669q0 25 19.5 42.5t47.5 17.5q27 0 46.5 -17.5t19.5 -42.5q0 -26 -19 -44
t-47 -18q-29 0 -48 17.5t-19 44.5z" />
    <glyph glyph-name="Idotaccent" unicode="&#x130;" horiz-adv-x="261" 
d="M70 0v700h121v-700h-121zM65 827q0 25 19 42.5t48 17.5q27 0 46.5 -17.5t19.5 -42.5q0 -26 -19 -44t-47 -18q-30 0 -48.5 17.5t-18.5 44.5z" />
    <glyph glyph-name="dotlessi" unicode="&#x131;" horiz-adv-x="253" 
d="M70 0v520h114v-520h-114z" />
    <glyph glyph-name="Jcircumflex" unicode="&#x134;" horiz-adv-x="486" 
d="M419 700v-483q0 -107 -57 -166t-153 -59q-41 0 -84 13t-78 45.5t-54 71.5l90 68q16 -26 36 -47t41.5 -29.5t38.5 -8.5q58 1 78.5 35t20.5 100v460h121zM348 929l184 -111l-47 -69l-139 73l-138 -73l-40 67l176 113h4z" />
    <glyph glyph-name="jcircumflex" unicode="&#x135;" horiz-adv-x="254" 
d="M186 520v-521q0 -99 -43 -153.5t-129 -54.5q-57 0 -100.5 24.5t-65.5 75.5l97 43q11 -17 24 -27t36 -10q67 0 67 105v518h114zM128 790l157 -131l-57 -70l-102 88l-106 -85l-52 68l156 130h4z" />
    <glyph glyph-name="Kcommaaccent" unicode="&#x136;" horiz-adv-x="680" 
d="M70 0v700h121v-307l314 307h158l-318 -314l341 -386h-161l-271 305l-63 -61v-244h-121zM252 -100l94 62q20 -16 32.5 -38.5t12.5 -48.5q0 -25 -10.5 -55.5t-33.5 -56.5t-48 -41l-53 41q15 15 25 36.5t10 41.5q0 28 -29 59z" />
    <glyph glyph-name="kcommaaccent" unicode="&#x137;" horiz-adv-x="528" 
d="M53 0v730h114v-415l210 205h147l-237 -229l249 -291h-145l-191 216l-33 -26v-190h-114zM180 -100l95 62q20 -16 32.5 -38.5t12.5 -48.5q0 -25 -10.5 -55.5t-33.5 -56.5t-48 -41l-53 41q15 15 25 36.5t10 41.5q0 27 -30 59z" />
    <glyph glyph-name="Lacute" unicode="&#x139;" horiz-adv-x="598" 
d="M70 0v700h121v-586h397v-114h-518zM482 849l-220 -104l-43 76l210 128z" />
    <glyph glyph-name="lacute" unicode="&#x13a;" horiz-adv-x="220" 
d="M53 0v730h114v-730h-114zM315 862l-220 -104l-43 76l210 128z" />
    <glyph glyph-name="Lcommaaccent" unicode="&#x13b;" horiz-adv-x="598" 
d="M70 0v700h121v-586h397v-114h-518zM260 -100l94 62q20 -16 32.5 -38.5t12.5 -48.5q0 -25 -10.5 -55.5t-33.5 -56.5t-48 -41l-53 41q15 15 25 36.5t10 41.5q0 28 -29 59z" />
    <glyph glyph-name="lcommaaccent" unicode="&#x13c;" horiz-adv-x="220" 
d="M53 0v730h114v-730h-114zM42 -100l95 62q20 -16 32.5 -38.5t12.5 -48.5q0 -25 -10.5 -55.5t-33.5 -56.5t-48 -41l-53 41q15 15 25 36.5t10 41.5q0 27 -30 59z" />
    <glyph glyph-name="Lcaron" unicode="&#x13d;" horiz-adv-x="598" 
d="M70 0v700h121v-586h397v-114h-518zM376 701h119q13 -23 13 -67q0 -25 -11.5 -57t-39 -62t-57.5 -49l-49 44q23 21 35.5 51t12.5 55q0 23 -7 48t-16 37z" />
    <glyph glyph-name="lcaron" unicode="&#x13e;" horiz-adv-x="254" 
d="M53 0v730h114v-730h-114zM223 731h119q13 -23 13 -67q0 -25 -11.5 -57t-39 -62t-57.5 -49l-49 44q23 21 35.5 51t12.5 55q0 23 -7 48t-16 37z" />
    <glyph glyph-name="Ldot" unicode="&#x13f;" horiz-adv-x="598" 
d="M70 0v700h121v-586h397v-114h-518zM353 389q0 23 20 42t50 19q27 0 47 -19.5t20 -41.5q0 -25 -19.5 -44.5t-47.5 -19.5q-30 0 -50 19t-20 45z" />
    <glyph glyph-name="ldot" unicode="&#x140;" horiz-adv-x="319" 
d="M53 0v730h114v-730h-114zM203 352q0 23 20 42t50 19q27 0 47 -19.5t20 -41.5q0 -25 -19.5 -44.5t-47.5 -19.5q-30 0 -50 19t-20 45z" />
    <glyph glyph-name="Lslash" unicode="&#x141;" horiz-adv-x="609" 
d="M0 127v124l81 59v390h121v-302l193 140v-123l-193 -141v-160h397v-114h-518v186z" />
    <glyph glyph-name="lslash" unicode="&#x142;" horiz-adv-x="312" 
d="M0 167v124l97 70v369h114v-286l101 74v-123l-101 -74v-321h-114v238z" />
    <glyph glyph-name="Nacute" unicode="&#x143;" horiz-adv-x="738" 
d="M668 0h-94l-386 477v-477h-118v700h94l386 -479v479h118v-700zM562 849l-220 -104l-43 76l210 128z" />
    <glyph glyph-name="nacute" unicode="&#x144;" horiz-adv-x="586" 
d="M53 0v520h114v-47q31 30 69 44t91 14q103 0 156 -57.5t53 -179.5v-294h-114v285q0 74 -31.5 107t-96.5 33q-41 0 -75.5 -24t-51.5 -64v-337h-114zM427 755l-127 -157l-77 54l118 167z" />
    <glyph glyph-name="Ncommaaccent" unicode="&#x145;" horiz-adv-x="738" 
d="M668 0h-94l-386 477v-477h-118v700h94l386 -479v479h118v-700zM313 -100l94 62q20 -16 32.5 -38.5t12.5 -48.5q0 -25 -10.5 -55.5t-33.5 -56.5t-48 -41l-53 41q15 15 25 36.5t10 41.5q0 28 -29 59z" />
    <glyph glyph-name="ncommaaccent" unicode="&#x146;" horiz-adv-x="586" 
d="M53 0v520h114v-47q31 30 69 44t91 14q103 0 156 -57.5t53 -179.5v-294h-114v285q0 74 -31.5 107t-96.5 33q-41 0 -75.5 -24t-51.5 -64v-337h-114zM216 -100l95 62q20 -16 32.5 -38.5t12.5 -48.5q0 -25 -10.5 -55.5t-33.5 -56.5t-48 -41l-53 41q15 15 25 36.5t10 41.5
q0 27 -30 59z" />
    <glyph glyph-name="Ncaron" unicode="&#x147;" horiz-adv-x="738" 
d="M668 0h-94l-386 477v-477h-118v700h94l386 -479v479h118v-700zM370 750l-183 111l46 68l139 -79l138 79l41 -67l-177 -112h-4z" />
    <glyph glyph-name="ncaron" unicode="&#x148;" horiz-adv-x="586" 
d="M53 0v520h114v-47q31 30 69 44t91 14q103 0 156 -57.5t53 -179.5v-294h-114v285q0 74 -31.5 107t-96.5 33q-41 0 -75.5 -24t-51.5 -64v-337h-114zM292 609l-157 131l57 69l102 -87l106 85l52 -68l-156 -130h-4z" />
    <glyph glyph-name="Omacron" unicode="&#x14c;" horiz-adv-x="782" 
d="M33 350q0 73 27.5 139t76.5 115t115 76.5t139 27.5t138.5 -26.5t115 -75t77 -115t27.5 -141.5t-27.5 -141t-77 -114.5t-115 -75.5t-138.5 -27q-72 0 -138 26.5t-115.5 75t-77 115t-27.5 141.5zM159 350q0 -52 18.5 -97t51 -77.5t74.5 -50t88 -17.5q48 0 90.5 17.5
t74.5 49.5t49.5 77.5t17.5 97.5t-18.5 97.5t-51.5 77.5t-75 49.5t-87 17.5q-46 0 -88.5 -17.5t-74.5 -49.5t-50.5 -77t-18.5 -98zM237 780v95h307v-95h-307z" />
    <glyph glyph-name="omacron" unicode="&#x14d;" horiz-adv-x="615" 
d="M29 261q0 57 20 107.5t57.5 87t89 56.5t111.5 20t111.5 -20t89 -56.5t58 -87t20.5 -107.5t-20.5 -107t-58 -86.5t-89 -56.5t-111.5 -20q-59 0 -110.5 20t-89 56.5t-58 86.5t-20.5 107zM147 261q0 -71 45 -117.5t115 -46.5q72 0 116.5 45t44.5 119q0 37 -15.5 75t-55 64
t-90.5 26q-69 0 -114.5 -45t-45.5 -120zM167 625v95h281v-95h-281z" />
    <glyph glyph-name="Ohungarumlaut" unicode="&#x150;" horiz-adv-x="782" 
d="M33 350q0 73 27.5 139t76.5 115t115 76.5t139 27.5t138.5 -26.5t115 -75t77 -115t27.5 -141.5t-27.5 -141t-77 -114.5t-115 -75.5t-138.5 -27q-72 0 -138 26.5t-115.5 75t-77 115t-27.5 141.5zM159 350q0 -52 18.5 -97t51 -77.5t74.5 -50t88 -17.5q48 0 90.5 17.5
t74.5 49.5t49.5 77.5t17.5 97.5t-18.5 97.5t-51.5 77.5t-75 49.5t-87 17.5q-46 0 -88.5 -17.5t-74.5 -49.5t-50.5 -77t-18.5 -98zM660 845l-187 -106l-47 53l157 129zM457 864l-163 -125l-48 49l117 133z" />
    <glyph glyph-name="ohungarumlaut" unicode="&#x151;" horiz-adv-x="615" 
d="M29 261q0 57 20 107.5t57.5 87t89 56.5t111.5 20t111.5 -20t89 -56.5t58 -87t20.5 -107.5t-20.5 -107t-58 -86.5t-89 -56.5t-111.5 -20q-59 0 -110.5 20t-89 56.5t-58 86.5t-20.5 107zM147 261q0 -71 45 -117.5t115 -46.5q72 0 116.5 45t44.5 119q0 37 -15.5 75t-55 64
t-90.5 26q-69 0 -114.5 -45t-45.5 -120zM530 755l-138 -157l-61 45l124 170zM366 766l-127 -168l-62 46l114 175z" />
    <glyph glyph-name="OE" unicode="&#x152;" horiz-adv-x="1156" 
d="M582 0v54q-41 -29 -90 -45.5t-101 -16.5q-72 0 -138 26.5t-115.5 75t-77 115t-27.5 141.5q0 73 27.5 139t76.5 115t115 76.5t139 27.5q108 0 191 -60v52h520v-114h-399v-176h373v-110h-373v-186h409v-114h-530zM391 108q59 0 109.5 26.5t81.5 72.5v283q-32 47 -83 74.5
t-108 27.5q-46 0 -88.5 -17.5t-74.5 -49.5t-50.5 -77t-18.5 -98q0 -52 18.5 -97t51 -77.5t74.5 -50t88 -17.5z" />
    <glyph glyph-name="oe" unicode="&#x153;" horiz-adv-x="957" 
d="M837 166l70 -69q-39 -52 -93 -79t-118 -27q-59 0 -109.5 17.5t-86.5 50.5q-37 -32 -87 -50t-106 -18q-59 0 -110.5 20t-89 56.5t-58 86.5t-20.5 107t20 107.5t57.5 87t89 56.5t111.5 20q55 0 104.5 -17.5t85.5 -49.5q72 67 187 67q51 0 96 -17t78.5 -48.5t51.5 -76
t18 -96.5q0 -36 -6 -73h-386q4 -30 20.5 -58.5t55 -47t86.5 -18.5q41 0 78.5 19t60.5 50zM314 97q38 0 71 13.5t53 35.5q-21 51 -21 115q0 57 19 111q-21 25 -54.5 39.5t-74.5 14.5q-51 0 -87.5 -23.5t-55 -59.5t-18.5 -82q0 -71 46.5 -117.5t121.5 -46.5zM679 429
q-56 0 -93 -29.5t-49 -79.5h273q-7 53 -41.5 81t-89.5 28z" />
    <glyph glyph-name="Racute" unicode="&#x154;" horiz-adv-x="683" 
d="M191 0h-121v700h275q96 0 156.5 -26.5t90 -74.5t29.5 -117q0 -44 -18.5 -87t-55.5 -73t-80 -42l210 -280h-147l-191 257h-148v-257zM342 586h-151v-215h157q32 0 67.5 10t57.5 36.5t22 64.5q0 56 -40 80t-113 24zM492 849l-220 -104l-43 76l210 128z" />
    <glyph glyph-name="racute" unicode="&#x155;" horiz-adv-x="363" 
d="M53 0v520h114v-35q5 9 17.5 20t34 18.5t42.5 7.5q28 0 54 -8.5t49 -37.5l-65 -83q-15 23 -52 23q-27 0 -49 -19t-31 -54v-352h-114zM322 755l-127 -157l-77 54l118 167z" />
    <glyph glyph-name="Rcommaaccent" unicode="&#x156;" horiz-adv-x="683" 
d="M191 0h-121v700h275q96 0 156.5 -26.5t90 -74.5t29.5 -117q0 -44 -18.5 -87t-55.5 -73t-80 -42l210 -280h-147l-191 257h-148v-257zM342 586h-151v-215h157q32 0 67.5 10t57.5 36.5t22 64.5q0 56 -40 80t-113 24zM267 -100l94 62q20 -16 32.5 -38.5t12.5 -48.5
q0 -25 -10.5 -55.5t-33.5 -56.5t-48 -41l-53 41q15 15 25 36.5t10 41.5q0 28 -29 59z" />
    <glyph glyph-name="rcommaaccent" unicode="&#x157;" horiz-adv-x="363" 
d="M53 0v520h114v-35q5 9 17.5 20t34 18.5t42.5 7.5q28 0 54 -8.5t49 -37.5l-65 -83q-15 23 -52 23q-27 0 -49 -19t-31 -54v-352h-114zM71 -100l95 62q20 -16 32.5 -38.5t12.5 -48.5q0 -25 -10.5 -55.5t-33.5 -56.5t-48 -41l-53 41q15 15 25 36.5t10 41.5q0 27 -30 59z" />
    <glyph glyph-name="Rcaron" unicode="&#x158;" horiz-adv-x="683" 
d="M191 0h-121v700h275q96 0 156.5 -26.5t90 -74.5t29.5 -117q0 -44 -18.5 -87t-55.5 -73t-80 -42l210 -280h-147l-191 257h-148v-257zM342 586h-151v-215h157q32 0 67.5 10t57.5 36.5t22 64.5q0 56 -40 80t-113 24zM312 750l-183 111l46 68l139 -79l138 79l41 -67
l-177 -112h-4z" />
    <glyph glyph-name="rcaron" unicode="&#x159;" horiz-adv-x="363" 
d="M53 0v520h114v-35q5 9 17.5 20t34 18.5t42.5 7.5q28 0 54 -8.5t49 -37.5l-65 -83q-15 23 -52 23q-27 0 -49 -19t-31 -54v-352h-114zM190 609l-157 131l57 69l102 -87l106 85l52 -68l-156 -130h-4z" />
    <glyph glyph-name="Sacute" unicode="&#x15a;" horiz-adv-x="631" 
d="M476 190q0 40 -36.5 64t-126.5 46t-125.5 35.5t-60.5 29t-43.5 35.5t-29 48t-10.5 62q0 40 20 76t57 63.5t88 43t109 15.5q83 0 154 -26.5t117 -73.5l-66 -86q-45 37 -95.5 55t-112.5 18q-43 0 -76.5 -10t-51.5 -28t-18 -44q0 -19 11 -34.5t38.5 -30t116.5 -36.5t124 -36
t57 -27.5t40.5 -32.5t31.5 -48t13 -69q0 -44 -21 -83t-58 -66.5t-86.5 -42.5t-103.5 -15q-43 0 -101.5 12.5t-116 44.5t-90.5 71l72 85q45 -47 110 -73.5t137 -26.5q29 0 61 7.5t52 28t20 49.5zM513 849l-220 -104l-43 76l210 128z" />
    <glyph glyph-name="sacute" unicode="&#x15b;" horiz-adv-x="496" 
d="M356 148q0 10 -9.5 21t-33 20t-81.5 26t-94 33.5t-57.5 37.5t-30.5 44t-9 47q0 72 57 113.5t157 41.5q49 0 95.5 -16t74.5 -37.5t40 -38.5l-78 -74q-23 27 -63.5 43.5t-87.5 16.5q-25 0 -43.5 -6t-26 -17.5t-7.5 -23.5q0 -13 16 -25t79.5 -30t89 -28t45.5 -20.5t38 -25.5
t32.5 -39.5t14.5 -61.5q0 -49 -25.5 -83.5t-73.5 -54.5t-115 -20q-44 0 -91 12.5t-88 42.5t-62 70l90 62q22 -35 67.5 -58t94.5 -23q26 0 47 7t29.5 19t8.5 25zM389 755l-127 -157l-77 54l118 167z" />
    <glyph glyph-name="Scircumflex" unicode="&#x15c;" horiz-adv-x="631" 
d="M476 190q0 40 -36.5 64t-126.5 46t-125.5 35.5t-60.5 29t-43.5 35.5t-29 48t-10.5 62q0 40 20 76t57 63.5t88 43t109 15.5q83 0 154 -26.5t117 -73.5l-66 -86q-45 37 -95.5 55t-112.5 18q-43 0 -76.5 -10t-51.5 -28t-18 -44q0 -19 11 -34.5t38.5 -30t116.5 -36.5t124 -36
t57 -27.5t40.5 -32.5t31.5 -48t13 -69q0 -44 -21 -83t-58 -66.5t-86.5 -42.5t-103.5 -15q-43 0 -101.5 12.5t-116 44.5t-90.5 71l72 85q45 -47 110 -73.5t137 -26.5q29 0 61 7.5t52 28t20 49.5zM320 929l184 -111l-47 -69l-139 73l-138 -73l-40 67l176 113h4z" />
    <glyph glyph-name="scircumflex" unicode="&#x15d;" horiz-adv-x="496" 
d="M356 148q0 10 -9.5 21t-33 20t-81.5 26t-94 33.5t-57.5 37.5t-30.5 44t-9 47q0 72 57 113.5t157 41.5q49 0 95.5 -16t74.5 -37.5t40 -38.5l-78 -74q-23 27 -63.5 43.5t-87.5 16.5q-25 0 -43.5 -6t-26 -17.5t-7.5 -23.5q0 -13 16 -25t79.5 -30t89 -28t45.5 -20.5t38 -25.5
t32.5 -39.5t14.5 -61.5q0 -49 -25.5 -83.5t-73.5 -54.5t-115 -20q-44 0 -91 12.5t-88 42.5t-62 70l90 62q22 -35 67.5 -58t94.5 -23q26 0 47 7t29.5 19t8.5 25zM257 790l157 -131l-57 -70l-102 88l-106 -85l-52 68l156 130h4z" />
    <glyph glyph-name="Scedilla" unicode="&#x15e;" horiz-adv-x="611" 
d="M177 -163l41 56q13 -10 35 -17.5t44 -7.5q39 0 39 21q0 23 -50 23h-12v83q-39 5 -81.5 19t-90 44t-75.5 73l75 87q40 -51 100.5 -82t130.5 -31q25 0 54 7.5t49 28.5t20 49q0 32 -28.5 55t-121 48t-132.5 42t-68 39.5t-45 56.5t-17 79q0 29 12.5 62.5t47.5 67t90.5 51
t113.5 17.5q85 0 154 -28.5t110 -82.5l-80 -78q-33 34 -80.5 55t-106.5 21q-53 0 -94.5 -21t-41.5 -61q0 -19 11.5 -36t40.5 -32t109.5 -37.5t120.5 -39.5t68 -38.5t45 -54.5t17 -76t-18 -80.5t-51.5 -65t-78.5 -43.5t-96 -18v-24q55 -3 82 -25.5t27 -59.5q0 -40 -32 -65
t-97 -25q-90 0 -140 44z" />
    <glyph glyph-name="scedilla" unicode="&#x15f;" horiz-adv-x="496" 
d="M130 -166l35 59q14 -11 35 -18t43 -7q40 0 40 21q0 23 -50 23h-13v81q-51 6 -95.5 27t-69.5 47.5t-36 48.5l90 62q22 -35 67.5 -58t94.5 -23q26 0 47 7t29.5 19t8.5 25q0 10 -9.5 21t-33 20t-81.5 26t-94 33.5t-57.5 37.5t-30.5 44t-9 47q0 72 57 113.5t157 41.5
q49 0 95.5 -16t74.5 -37.5t40 -38.5l-78 -74q-23 27 -63.5 43.5t-87.5 16.5q-25 0 -43.5 -6t-26 -17.5t-7.5 -23.5q0 -13 16 -25t79.5 -30t89 -28t45.5 -20.5t38 -25.5t32.5 -39.5t14.5 -61.5q0 -27 -10 -54.5t-33.5 -49t-60.5 -36t-87 -17.5v-24q49 -3 76 -25.5t27 -59.5
q0 -29 -20 -51t-51.5 -30.5t-65.5 -8.5q-67 0 -119 41z" />
    <glyph glyph-name="Scaron" unicode="&#x160;" horiz-adv-x="631" 
d="M476 190q0 40 -36.5 64t-126.5 46t-125.5 35.5t-60.5 29t-43.5 35.5t-29 48t-10.5 62q0 40 20 76t57 63.5t88 43t109 15.5q83 0 154 -26.5t117 -73.5l-66 -86q-45 37 -95.5 55t-112.5 18q-43 0 -76.5 -10t-51.5 -28t-18 -44q0 -19 11 -34.5t38.5 -30t116.5 -36.5t124 -36
t57 -27.5t40.5 -32.5t31.5 -48t13 -69q0 -44 -21 -83t-58 -66.5t-86.5 -42.5t-103.5 -15q-43 0 -101.5 12.5t-116 44.5t-90.5 71l72 85q45 -47 110 -73.5t137 -26.5q29 0 61 7.5t52 28t20 49.5zM316 750l-183 111l46 68l139 -79l138 79l41 -67l-177 -112h-4z" />
    <glyph glyph-name="scaron" unicode="&#x161;" horiz-adv-x="496" 
d="M356 148q0 10 -9.5 21t-33 20t-81.5 26t-94 33.5t-57.5 37.5t-30.5 44t-9 47q0 72 57 113.5t157 41.5q49 0 95.5 -16t74.5 -37.5t40 -38.5l-78 -74q-23 27 -63.5 43.5t-87.5 16.5q-25 0 -43.5 -6t-26 -17.5t-7.5 -23.5q0 -13 16 -25t79.5 -30t89 -28t45.5 -20.5t38 -25.5
t32.5 -39.5t14.5 -61.5q0 -49 -25.5 -83.5t-73.5 -54.5t-115 -20q-44 0 -91 12.5t-88 42.5t-62 70l90 62q22 -35 67.5 -58t94.5 -23q26 0 47 7t29.5 19t8.5 25zM247 609l-157 131l57 69l102 -87l106 85l52 -68l-156 -130h-4z" />
    <glyph glyph-name="Tcommaaccent" unicode="&#x162;" horiz-adv-x="593" 
d="M1 586v114h591v-114h-235v-586h-29v-32q54 -3 80.5 -25.5t26.5 -59.5q0 -40 -32 -65t-97 -25q-90 0 -140 44l41 56q13 -10 35 -17.5t44 -7.5q39 0 39 21q0 23 -50 23h-11v88h-28v586h-235z" />
    <glyph glyph-name="tcommaaccent" unicode="&#x163;" horiz-adv-x="413" 
d="M125 -166l35 59q14 -11 35 -18t43 -7q40 0 40 21q0 23 -50 23h-13v86q-27 6 -56 24.5t-47.5 59.5t-18.5 99v233h-90v106h90v107h114v-107h168v-106h-168v-201q0 -61 16 -87t51 -26q40 0 74 44l68 -64q-19 -33 -56.5 -57t-81.5 -28v-27q49 -3 76 -25.5t27 -59.5
q0 -29 -20 -51t-51.5 -30.5t-65.5 -8.5q-67 0 -119 41z" />
    <glyph glyph-name="Tcaron" unicode="&#x164;" horiz-adv-x="593" 
d="M1 586v114h591v-114h-235v-586h-121v586h-235zM298 750l-183 111l46 68l139 -79l138 79l41 -67l-177 -112h-4z" />
    <glyph glyph-name="tcaron" unicode="&#x165;" horiz-adv-x="413" 
d="M3 414v106h91v107h112v-414q0 -61 16.5 -87t51.5 -26q40 0 74 44l68 -64q-21 -37 -64.5 -61.5t-94.5 -24.5q-76 0 -119.5 48t-43.5 139v233h-91zM280 711h119q13 -23 13 -67q0 -25 -11.5 -57t-39 -62t-57.5 -49l-49 44q23 21 35.5 51t12.5 55q0 23 -7 48t-16 37z" />
    <glyph glyph-name="Umacron" unicode="&#x16a;" horiz-adv-x="726" 
d="M662 700v-402q0 -77 -24 -136t-65.5 -96.5t-93.5 -55t-108 -17.5q-61 0 -117 20t-99 59t-67.5 98.5t-24.5 133.5v396h121v-381q0 -95 52 -154t135 -59q53 0 90 23.5t58.5 69.5t21.5 116v385h121zM209 780v95h307v-95h-307z" />
    <glyph glyph-name="umacron" unicode="&#x16b;" horiz-adv-x="578" 
d="M525 523v-523h-114v55q-26 -29 -63 -46.5t-82 -17.5q-108 0 -162 57t-54 176v299h114v-288q0 -73 29 -105.5t84 -32.5q44 0 78 23.5t56 66.5v336h114zM149 625v95h281v-95h-281z" />
    <glyph glyph-name="Ubreve" unicode="&#x16c;" horiz-adv-x="726" 
d="M662 700v-402q0 -77 -24 -136t-65.5 -96.5t-93.5 -55t-108 -17.5q-61 0 -117 20t-99 59t-67.5 98.5t-24.5 133.5v396h121v-381q0 -95 52 -154t135 -59q53 0 90 23.5t58.5 69.5t21.5 116v385h121zM173 865l52 59q56 -61 143 -61q45 0 81 17.5t59 43.5l45 -58
q-19 -31 -53 -57.5t-69.5 -37t-62.5 -10.5q-32 0 -70.5 11.5t-72 37.5t-52.5 55z" />
    <glyph glyph-name="ubreve" unicode="&#x16d;" horiz-adv-x="578" 
d="M525 523v-523h-114v55q-26 -29 -63 -46.5t-82 -17.5q-108 0 -162 57t-54 176v299h114v-288q0 -73 29 -105.5t84 -32.5q44 0 78 23.5t56 66.5v336h114zM127 717l51 58q26 -29 56 -42t56 -13t58 12t57 41l40 -55q-63 -95 -159 -95q-31 0 -63 12.5t-57.5 36t-38.5 45.5z" />
    <glyph glyph-name="Uring" unicode="&#x16e;" horiz-adv-x="726" 
d="M662 700v-402q0 -77 -24 -136t-65.5 -96.5t-93.5 -55t-108 -17.5q-61 0 -117 20t-99 59t-67.5 98.5t-24.5 133.5v396h121v-381q0 -95 52 -154t135 -59q53 0 90 23.5t58.5 69.5t21.5 116v385h121zM224 838q0 34 16.5 57.5t47.5 37.5t73 14q44 0 76.5 -14t49 -37.5
t16.5 -57.5q0 -33 -16 -56.5t-48.5 -39t-77.5 -15.5q-59 0 -98 29.5t-39 81.5zM311 838q0 -21 14 -33t38 -12t38.5 12t14.5 33q0 20 -14.5 31t-38.5 11t-38 -11t-14 -31z" />
    <glyph glyph-name="uring" unicode="&#x16f;" horiz-adv-x="578" 
d="M525 523v-523h-114v55q-26 -29 -63 -46.5t-82 -17.5q-108 0 -162 57t-54 176v299h114v-288q0 -73 29 -105.5t84 -32.5q44 0 78 23.5t56 66.5v336h114zM167 701q0 48 35 82.5t87 34.5q38 0 69 -20t43 -47.5t12 -49.5t-12 -49t-43 -46.5t-69 -19.5q-52 0 -87 33.5t-35 81.5
zM244 702q0 -20 12.5 -33t33.5 -13q20 0 33 12.5t13 33.5t-12.5 33.5t-33.5 12.5t-33.5 -12.5t-12.5 -33.5z" />
    <glyph glyph-name="Uhungarumlaut" unicode="&#x170;" horiz-adv-x="726" 
d="M662 700v-402q0 -77 -24 -136t-65.5 -96.5t-93.5 -55t-108 -17.5q-61 0 -117 20t-99 59t-67.5 98.5t-24.5 133.5v396h121v-381q0 -95 52 -154t135 -59q53 0 90 23.5t58.5 69.5t21.5 116v385h121zM626 845l-187 -106l-47 53l157 129zM423 864l-163 -125l-48 49l117 133z
" />
    <glyph glyph-name="uhungarumlaut" unicode="&#x171;" horiz-adv-x="578" 
d="M525 523v-523h-114v55q-26 -29 -63 -46.5t-82 -17.5q-108 0 -162 57t-54 176v299h114v-288q0 -73 29 -105.5t84 -32.5q44 0 78 23.5t56 66.5v336h114zM506 755l-138 -157l-61 45l124 170zM342 766l-127 -168l-62 46l114 175z" />
    <glyph glyph-name="Uogonek" unicode="&#x172;" horiz-adv-x="726" 
d="M662 700v-402q0 -82 -27 -143.5t-77 -101.5t-122 -54q-14 -12 -22.5 -27.5t-8.5 -31.5q0 -47 44 -47q25 0 46 10l31 -73q-13 -12 -41.5 -21t-59.5 -9q-55 -1 -94 23t-39 70q0 56 70 100q-60 2 -114.5 22.5t-96 59.5t-65 97.5t-23.5 131.5v396h121v-381q0 -95 52 -154
t135 -59q53 0 90 23.5t58.5 69.5t21.5 116v385h121z" />
    <glyph glyph-name="uogonek" unicode="&#x173;" horiz-adv-x="578" 
d="M503 -96l34 -73q-14 -13 -41.5 -22t-59.5 -9q-54 0 -92 24.5t-38 71.5q0 19 10 40.5t36 40t59 29.5v49q-26 -29 -63 -46.5t-82 -17.5q-108 0 -162 57t-54 176v299h114v-288q0 -73 29 -105.5t84 -32.5q44 0 78 23.5t56 66.5v336h114v-523h-11q-16 -1 -37.5 -9t-37.5 -24.5
t-16 -34.5q0 -17 10.5 -27t26.5 -10q24 0 43 9z" />
    <glyph glyph-name="Ydieresis" unicode="&#x178;" horiz-adv-x="671" 
d="M678 700l-283 -397v-303h-121v303l-281 397h150l193 -279l197 279h145zM146 828q0 26 20 44t50 18q11 0 26.5 -6t27.5 -21.5t12 -34.5q0 -27 -20.5 -44.5t-45.5 -17.5q-30 0 -50 17t-20 45zM389 828q0 26 20.5 44t48.5 18q25 0 45.5 -18t20.5 -44q0 -27 -20 -44.5
t-46 -17.5q-28 0 -48.5 17.5t-20.5 44.5z" />
    <glyph glyph-name="Zacute" unicode="&#x179;" horiz-adv-x="633" 
d="M29 586v114h574v-81l-418 -505h428v-114h-601v81l416 505h-399zM495 849l-220 -104l-43 76l210 128z" />
    <glyph glyph-name="zacute" unicode="&#x17a;" horiz-adv-x="504" 
d="M36 414v106h448v-73l-292 -341h287v-106h-459v74l292 340h-276zM389 755l-127 -157l-77 54l118 167z" />
    <glyph glyph-name="Zdotaccent" unicode="&#x17b;" horiz-adv-x="633" 
d="M29 586v114h574v-81l-418 -505h428v-114h-601v81l416 505h-399zM250 827q0 25 19 42.5t48 17.5q27 0 46.5 -17.5t19.5 -42.5q0 -26 -19 -44t-47 -18q-30 0 -48.5 17.5t-18.5 44.5z" />
    <glyph glyph-name="zdotaccent" unicode="&#x17c;" horiz-adv-x="504" 
d="M36 414v106h448v-73l-292 -341h287v-106h-459v74l292 340h-276zM185 671q0 25 19.5 42t47.5 17q27 0 46.5 -17t19.5 -42q0 -27 -19 -45t-47 -18q-29 0 -48 18t-19 45z" />
    <glyph glyph-name="Zcaron" unicode="&#x17d;" horiz-adv-x="633" 
d="M29 586v114h574v-81l-418 -505h428v-114h-601v81l416 505h-399zM317 750l-183 111l46 68l139 -79l138 79l41 -67l-177 -112h-4z" />
    <glyph glyph-name="zcaron" unicode="&#x17e;" horiz-adv-x="504" 
d="M36 414v106h448v-73l-292 -341h287v-106h-459v74l292 340h-276zM251 609l-157 131l57 69l102 -87l106 85l52 -68l-156 -130h-4z" />
    <glyph glyph-name="uni018F" unicode="&#x18f;" horiz-adv-x="761" 
d="M27 312q0 24 4.5 53t11.5 49h558q-14 83 -76 132t-158 49q-56 0 -116 -25.5t-98 -73.5l-81 78q48 65 130.5 99.5t170.5 34.5q80 0 146.5 -25t112.5 -71.5t70.5 -112.5t24.5 -146q0 -77 -24.5 -143.5t-70.5 -115t-113.5 -75.5t-149.5 -27q-63 0 -117 17t-94 46t-71.5 72.5
t-45.5 94t-14 90.5zM602 301h-454q4 -42 20 -78t44 -62.5t69 -41t92 -14.5q58 0 106.5 21.5t82.5 65.5t40 109z" />
    <glyph glyph-name="florin" unicode="&#x192;" horiz-adv-x="555" 
d="M335 481l-5 -24h144v-105h-162l-61 -342q-13 -74 -34 -119.5t-57.5 -72t-92.5 -26.5q-35 0 -67 13t-54 35l38 88q15 -14 34.5 -22t38.5 -8q60 0 76 89l66 365h-134v105h153l7 42q33 210 204 210q80 0 127 -40l-41 -90q-35 24 -78 24q-21 0 -41.5 -9t-35.5 -36.5
t-25 -76.5z" />
    <glyph glyph-name="uni01DD" unicode="&#x1dd;" horiz-adv-x="569" 
d="M120 357l-70 69q82 106 234 106q53 0 100 -19t82 -55t54.5 -86.5t19.5 -109.5q0 -57 -17.5 -106.5t-51.5 -86.5t-84.5 -57.5t-113.5 -20.5q-51 0 -96 17t-78 49t-51.5 77t-18.5 97q0 36 6 73h386q-7 57 -48.5 89.5t-91.5 32.5q-110 0 -161 -69zM278 94q56 0 94 30.5
t48 80.5h-273q3 -24 16 -50.5t44 -43.5t71 -17z" />
    <glyph glyph-name="Scommaaccent" unicode="&#x218;" horiz-adv-x="631" 
d="M476 190q0 40 -36.5 64t-126.5 46t-125.5 35.5t-60.5 29t-43.5 35.5t-29 48t-10.5 62q0 40 20 76t57 63.5t88 43t109 15.5q83 0 154 -26.5t117 -73.5l-66 -86q-45 37 -95.5 55t-112.5 18q-43 0 -76.5 -10t-51.5 -28t-18 -44q0 -19 11 -34.5t38.5 -30t116.5 -36.5t124 -36
t57 -27.5t40.5 -32.5t31.5 -48t13 -69q0 -44 -21 -83t-58 -66.5t-86.5 -42.5t-103.5 -15q-43 0 -101.5 12.5t-116 44.5t-90.5 71l72 85q45 -47 110 -73.5t137 -26.5q29 0 61 7.5t52 28t20 49.5zM249 -100l94 62q20 -16 32.5 -38.5t12.5 -48.5q0 -25 -10.5 -55.5t-33.5 -56.5
t-48 -41l-53 41q15 15 25 36.5t10 41.5q0 28 -29 59z" />
    <glyph glyph-name="scommaaccent" unicode="&#x219;" horiz-adv-x="496" 
d="M356 148q0 10 -9.5 21t-33 20t-81.5 26t-94 33.5t-57.5 37.5t-30.5 44t-9 47q0 72 57 113.5t157 41.5q49 0 95.5 -16t74.5 -37.5t40 -38.5l-78 -74q-23 27 -63.5 43.5t-87.5 16.5q-25 0 -43.5 -6t-26 -17.5t-7.5 -23.5q0 -13 16 -25t79.5 -30t89 -28t45.5 -20.5t38 -25.5
t32.5 -39.5t14.5 -61.5q0 -49 -25.5 -83.5t-73.5 -54.5t-115 -20q-44 0 -91 12.5t-88 42.5t-62 70l90 62q22 -35 67.5 -58t94.5 -23q26 0 47 7t29.5 19t8.5 25zM181 -100l95 62q20 -16 32.5 -38.5t12.5 -48.5q0 -25 -10.5 -55.5t-33.5 -56.5t-48 -41l-53 41q15 15 25 36.5
t10 41.5q0 27 -30 59z" />
    <glyph glyph-name="uni021A" unicode="&#x21a;" horiz-adv-x="593" 
d="M1 586v114h591v-114h-235v-586h-121v586h-235zM230 -100l94 62q20 -16 32.5 -38.5t12.5 -48.5q0 -25 -10.5 -55.5t-33.5 -56.5t-48 -41l-53 41q15 15 25 36.5t10 41.5q0 28 -29 59z" />
    <glyph glyph-name="uni021B" unicode="&#x21b;" horiz-adv-x="413" 
d="M3 414v106h90v107h114v-107h168v-106h-168v-201q0 -61 16 -87t51 -26q40 0 74 44l68 -64q-21 -37 -64.5 -61.5t-94.5 -24.5q-76 0 -120 48t-44 139v233h-90zM163 -100l95 62q20 -16 32.5 -38.5t12.5 -48.5q0 -25 -10.5 -55.5t-33.5 -56.5t-48 -41l-53 41q15 15 25 36.5
t10 41.5q0 27 -30 59z" />
    <glyph glyph-name="uni0237" unicode="&#x237;" horiz-adv-x="254" 
d="M186 520v-521q0 -99 -43 -153.5t-129 -54.5q-57 0 -100.5 24.5t-65.5 75.5l97 43q11 -17 24 -27t36 -10q67 0 67 105v518h114z" />
    <glyph glyph-name="uni0259" unicode="&#x259;" horiz-adv-x="569" 
d="M120 357l-70 69q82 106 234 106q53 0 100 -19t82 -55t54.5 -86.5t19.5 -109.5q0 -57 -17.5 -106.5t-51.5 -86.5t-84.5 -57.5t-113.5 -20.5q-51 0 -96 17t-78 49t-51.5 77t-18.5 97q0 36 6 73h386q-7 57 -48.5 89.5t-91.5 32.5q-110 0 -161 -69zM278 94q56 0 94 30.5
t48 80.5h-273q3 -24 16 -50.5t44 -43.5t71 -17z" />
    <glyph glyph-name="afii57929" unicode="&#x2bc;" horiz-adv-x="198" 
d="M58 677l95 60q45 -38 45 -100q0 -25 -11.5 -56t-38.5 -60t-58 -49l-49 45q22 18 34.5 41.5t12.5 45.5q0 19 -9 39t-21 34z" />
    <glyph glyph-name="circumflex" unicode="&#x2c6;" horiz-adv-x="461" 
d="M304 790l157 -131l-57 -70l-102 88l-106 -85l-52 68l156 130h4z" />
    <glyph glyph-name="caron" unicode="&#x2c7;" horiz-adv-x="458" 
d="M298 609l-157 131l57 69l102 -87l106 85l52 -68l-156 -130h-4z" />
    <glyph glyph-name="breve" unicode="&#x2d8;" horiz-adv-x="462" 
d="M144 717l51 58q26 -29 56 -42t56 -13t58 12t57 41l40 -55q-63 -95 -159 -95q-31 0 -63 12.5t-57.5 36t-38.5 45.5z" />
    <glyph glyph-name="dotaccent" unicode="&#x2d9;" horiz-adv-x="250" 
d="M60 671q0 25 19.5 42t47.5 17q27 0 46.5 -17t19.5 -42q0 -27 -19 -45t-47 -18q-29 0 -48 18t-19 45z" />
    <glyph glyph-name="ring" unicode="&#x2da;" horiz-adv-x="430" 
d="M184 701q0 48 35 82.5t87 34.5q38 0 69 -20t43 -47.5t12 -49.5t-12 -49t-43 -46.5t-69 -19.5q-52 0 -87 33.5t-35 81.5zM261 702q0 -20 12.5 -33t33.5 -13q20 0 33 12.5t13 33.5t-12.5 33.5t-33.5 12.5t-33.5 -12.5t-12.5 -33.5z" />
    <glyph glyph-name="ogonek" unicode="&#x2db;" horiz-adv-x="384" 
d="M350 -96l34 -73q-14 -13 -41.5 -22t-59.5 -9q-54 0 -92 24.5t-38 71.5q0 23 13.5 46.5t46 43t77.5 28.5t79 9v-23q-17 0 -40 -7t-41 -24.5t-18 -36.5q0 -17 10.5 -27t26.5 -10q24 0 43 9z" />
    <glyph glyph-name="tilde" unicode="&#x2dc;" horiz-adv-x="466" 
d="M167 612l-49 53q27 34 59.5 52.5t62.5 18.5q24 0 62 -22t58 -22q34 0 66 30l40 -58q-25 -31 -56 -48.5t-60 -17.5q-24 0 -61.5 21.5t-57.5 21.5q-15 0 -32 -8.5t-32 -20.5z" />
    <glyph glyph-name="hungarumlaut" unicode="&#x2dd;" horiz-adv-x="537" 
d="M537 755l-138 -157l-61 45l124 170zM373 766l-127 -168l-62 46l114 175z" />
    <glyph glyph-name="gravecomb" unicode="&#x300;" horiz-adv-x="0" 
d="M-275 598l-137 154l89 67l115 -167z" />
    <glyph glyph-name="acutecomb" unicode="&#x301;" horiz-adv-x="0" 
d="M-168 755l-127 -157l-77 54l118 167z" />
    <glyph glyph-name="Delta" unicode="&#x394;" horiz-adv-x="726" 
d="M18 0l303 707h78l309 -707h-690zM360 509l-173 -406h350z" />
    <glyph glyph-name="Delta" unicode="&#x2206;" horiz-adv-x="726" 
d="M18 0l303 707h78l309 -707h-690zM360 509l-173 -406h350z" />
    <glyph glyph-name="Omega" unicode="&#x3a9;" horiz-adv-x="821" 
d="M59 0v117h124q-19 8 -40 30t-39.5 56t-30 79t-11.5 94q0 74 26 136t73.5 106.5t112 68t137.5 23.5q94 0 173.5 -38.5t127 -115.5t47.5 -180q0 -64 -18 -116t-47.5 -89t-63.5 -54h132v-117h-312v117q55 17 97 56t64.5 88.5t22.5 104.5q0 32 -10.5 69t-40.5 76.5
t-76.5 60.5t-95.5 21q-64 0 -117.5 -30t-80 -85t-26.5 -114q0 -33 10 -70.5t33.5 -73t59.5 -64t80 -39.5v-117h-311z" />
    <glyph glyph-name="Omega" unicode="&#x2126;" horiz-adv-x="821" 
d="M59 0v117h124q-19 8 -40 30t-39.5 56t-30 79t-11.5 94q0 74 26 136t73.5 106.5t112 68t137.5 23.5q94 0 173.5 -38.5t127 -115.5t47.5 -180q0 -64 -18 -116t-47.5 -89t-63.5 -54h132v-117h-312v117q55 17 97 56t64.5 88.5t22.5 104.5q0 32 -10.5 69t-40.5 76.5
t-76.5 60.5t-95.5 21q-64 0 -117.5 -30t-80 -85t-26.5 -114q0 -33 10 -70.5t33.5 -73t59.5 -64t80 -39.5v-117h-311z" />
    <glyph glyph-name="pi" unicode="&#x3c0;" horiz-adv-x="667" 
d="M42 414v106h583v-106h-94v-257q0 -24 7.5 -42.5t33.5 -18.5q25 0 56 22l26 -86q-23 -19 -55 -30.5t-65 -11.5q-116 0 -116 151v273h-162v-63q0 -108 -12.5 -178.5t-39 -110t-68.5 -55.5t-104 -16l-9 109q30 0 50.5 8.5t35.5 32t23.5 70.5t9.5 121l1 82h-101z" />
    <glyph glyph-name="afii10023" unicode="&#x401;" horiz-adv-x="645" 
d="M70 0v700h520v-114h-399v-176h373v-110h-373v-186h409v-114h-530zM136 828q0 26 20 44t50 18q11 0 26.5 -6t27.5 -21.5t12 -34.5q0 -27 -20.5 -44.5t-45.5 -17.5q-30 0 -50 17t-20 45zM379 828q0 26 20.5 44t48.5 18q25 0 45.5 -18t20.5 -44q0 -27 -20 -44.5t-46 -17.5
q-28 0 -48.5 17.5t-20.5 44.5z" />
    <glyph glyph-name="afii10051" unicode="&#x402;" horiz-adv-x="754" 
d="M598 203q0 61 -31 95t-86 35q-39 0 -73.5 -18t-53.5 -48v-267h-121v587h-232v113h587v-113h-234v-190q22 21 62.5 35t87.5 14q67 0 115 -26.5t74.5 -76t26.5 -123.5q0 -73 -24 -123t-67 -78t-101 -28q-41 0 -73 15.5t-50 42.5l68 80q11 -12 22 -18.5t31 -6.5
q33 0 52.5 26t19.5 73z" />
    <glyph glyph-name="afii10052" unicode="&#x403;" horiz-adv-x="580" 
d="M70 0v700h510v-114h-389v-586h-121zM502 849l-220 -104l-43 76l210 128z" />
    <glyph glyph-name="afii10053" unicode="&#x404;" horiz-adv-x="687" 
d="M483 413v-113h-326q5 -36 20.5 -71.5t49 -66t80 -44t91.5 -13.5q60 0 107 27.5t74 71.5l93 -50q-21 -49 -63 -85.5t-97 -56.5t-106 -20q-82 0 -151.5 25.5t-119 72.5t-76 114t-26.5 146q0 76 26 142t74.5 114.5t116.5 75t149 26.5q51 0 103.5 -16t93 -43t63.5 -66
l-89 -66q-27 37 -75 57.5t-104 20.5q-88 0 -151 -49t-81 -133h324z" />
    <glyph glyph-name="afii10054" unicode="&#x405;" horiz-adv-x="631" 
d="M476 190q0 40 -36.5 64t-126.5 46t-125.5 35.5t-60.5 29t-43.5 35.5t-29 48t-10.5 62q0 40 20 76t57 63.5t88 43t109 15.5q83 0 154 -26.5t117 -73.5l-66 -86q-45 37 -95.5 55t-112.5 18q-43 0 -76.5 -10t-51.5 -28t-18 -44q0 -19 11 -34.5t38.5 -30t116.5 -36.5t124 -36
t57 -27.5t40.5 -32.5t31.5 -48t13 -69q0 -44 -21 -83t-58 -66.5t-86.5 -42.5t-103.5 -15q-43 0 -101.5 12.5t-116 44.5t-90.5 71l72 85q45 -47 110 -73.5t137 -26.5q29 0 61 7.5t52 28t20 49.5z" />
    <glyph glyph-name="afii10055" unicode="&#x406;" horiz-adv-x="261" 
d="M70 0v700h121v-700h-121z" />
    <glyph glyph-name="afii10056" unicode="&#x407;" horiz-adv-x="275" 
d="M-12 805q0 24 18.5 41t45.5 17q25 0 45 -17t20 -41q0 -25 -20 -42t-45 -17q-27 0 -45.5 16.5t-18.5 42.5zM158 805q0 24 19.5 41t46.5 17q25 0 44 -17t19 -41q0 -25 -18.5 -42t-44.5 -17q-27 0 -46.5 17t-19.5 42zM77 0v700h121v-700h-121z" />
    <glyph glyph-name="afii10057" unicode="&#x408;" horiz-adv-x="486" 
d="M419 700v-483q0 -107 -57 -166t-153 -59q-41 0 -84 13t-78 45.5t-54 71.5l90 68q16 -26 36 -47t41.5 -29.5t38.5 -8.5q58 1 78.5 35t20.5 100v460h121z" />
    <glyph glyph-name="afii10058" unicode="&#x409;" horiz-adv-x="1046" 
d="M510 586h-250v-94q0 -175 -26.5 -283t-74.5 -161t-117 -52l-42 3v117q50 -6 79.5 29.5t46 130t16.5 269.5v155h489v-250h118q71 0 123.5 -15t85.5 -43.5t49 -69.5t16 -91q0 -56 -20 -99.5t-57.5 -72.5t-90.5 -44t-118 -15h-227v586zM747 336h-116v-222h110
q77 0 116.5 27.5t39.5 89.5q0 105 -150 105z" />
    <glyph glyph-name="afii10059" unicode="&#x40a;" horiz-adv-x="1047" 
d="M637 432h118q135 0 202 -54t67 -157q0 -111 -73.5 -166t-206.5 -55h-228v318h-325v-318h-121v700h121v-268h325v268h121v-268zM754 318h-117v-204h111q76 0 113 24t37 81q0 53 -35 76t-109 23z" />
    <glyph glyph-name="afii10060" unicode="&#x40b;" horiz-adv-x="735" 
d="M1 586v114h587v-114h-234v-185q63 45 135 45q48 0 87 -13.5t67.5 -41.5t43.5 -73.5t15 -105.5v-212h-121v195q0 27 -8 60t-33.5 55.5t-69.5 22.5q-31 0 -63.5 -16.5t-52.5 -42.5v-274h-121v586h-232z" />
    <glyph glyph-name="afii10061" unicode="&#x40c;" horiz-adv-x="680" 
d="M70 0v700h121v-307l314 307h158l-318 -314l341 -386h-161l-271 305l-63 -61v-244h-121zM497 849l-220 -104l-43 76l210 128z" />
    <glyph glyph-name="afii10062" unicode="&#x40e;" horiz-adv-x="707" 
d="M196 14l47 101q12 -5 23 -5q33 0 67 70l-333 520h149l246 -393l185 393h127l-259 -538q-38 -81 -80 -123t-105 -42q-36 0 -67 17zM160 908h114q22 -59 86 -59q33 0 56.5 15t29.5 44h114q-5 -67 -61 -112.5t-135 -45.5q-32 0 -65.5 8t-61.5 27t-48.5 49.5t-28.5 73.5z" />
    <glyph glyph-name="afii10145" unicode="&#x40f;" horiz-adv-x="733" 
d="M70 0v700h121v-587h351v587h121v-700h-238v-144h-117v144h-238z" />
    <glyph glyph-name="afii10017" unicode="&#x410;" horiz-adv-x="704" 
d="M-1 0l307 700h92l307 -700h-127l-68 155h-319l-67 -155h-125zM350 525l-115 -266h230z" />
    <glyph glyph-name="afii10018" unicode="&#x411;" horiz-adv-x="662" 
d="M582 700v-114h-391v-159h193q122 0 185 -54t63 -154q0 -111 -73 -165t-211 -54h-278v700h512zM360 313h-169v-199h163q77 0 115 25t38 79q0 49 -35.5 72t-111.5 23z" />
    <glyph glyph-name="afii10019" unicode="&#x412;" horiz-adv-x="675" 
d="M70 0v700h297q84 0 137 -19.5t80 -57.5t27 -99q0 -52 -22.5 -92t-61.5 -64q51 -16 79.5 -57.5t28.5 -106.5q0 -66 -30 -110t-90 -69t-154 -25h-291zM361 302h-170v-188h162q82 0 119 23t37 74q0 47 -35 69t-113 22zM351 586h-160v-174h173q57 0 89.5 23t32.5 62
q0 46 -30 67.5t-105 21.5z" />
    <glyph glyph-name="afii10020" unicode="&#x413;" horiz-adv-x="580" 
d="M70 0v700h510v-114h-389v-586h-121z" />
    <glyph glyph-name="afii10021" unicode="&#x414;" horiz-adv-x="743" 
d="M0 -123v236h75q44 65 61 179.5t17 305.5v102h495v-587h85v-236h-117v123h-499v-123h-117zM268 587v-44q0 -159 -16.5 -263t-50.5 -167h326v474h-259z" />
    <glyph glyph-name="afii10022" unicode="&#x415;" horiz-adv-x="645" 
d="M70 0v700h520v-114h-399v-176h373v-110h-373v-186h409v-114h-530z" />
    <glyph glyph-name="afii10024" unicode="&#x416;" horiz-adv-x="948" 
d="M288 381l-286 319h148l263 -291v291h121v-292l262 292h150l-289 -318l291 -382h-145l-239 315l-30 -31v-284h-121v284l-33 32l-241 -316h-139z" />
    <glyph glyph-name="afii10025" unicode="&#x417;" horiz-adv-x="650" 
d="M332 -10q-110 0 -194 38t-131 111l94 66q79 -102 228 -102q72 0 117 31t45 77q0 42 -43 65.5t-120 23.5h-117v114h111q63 0 104 25t41 65q0 18 -7.5 33.5t-22 27.5t-46.5 22t-80 10q-64 0 -109 -23.5t-80 -66.5l-94 65q46 63 120.5 100.5t179.5 37.5q54 0 101.5 -13.5
t83.5 -39t56 -63t20 -83.5q0 -45 -26.5 -82.5t-70.5 -60.5q45 -15 73.5 -44t38 -59t9.5 -53q0 -51 -21.5 -92.5t-60 -70.5t-90 -44t-109.5 -15z" />
    <glyph glyph-name="afii10026" unicode="&#x418;" horiz-adv-x="747" 
d="M171 0h-101v700h121v-485l384 485h102v-700h-121v485z" />
    <glyph glyph-name="afii10027" unicode="&#x419;" horiz-adv-x="747" 
d="M171 0h-101v700h121v-485l384 485h102v-700h-121v485zM174 908h114q22 -59 86 -59q33 0 56.5 15t29.5 44h114q-5 -67 -61 -112.5t-135 -45.5q-32 0 -65.5 8t-61.5 27t-48.5 49.5t-28.5 73.5z" />
    <glyph glyph-name="afii10028" unicode="&#x41a;" horiz-adv-x="680" 
d="M70 0v700h121v-307l314 307h158l-318 -314l341 -386h-161l-271 305l-63 -61v-244h-121z" />
    <glyph glyph-name="afii10029" unicode="&#x41b;" horiz-adv-x="718" 
d="M527 0v587h-267v-95q0 -175 -26.5 -283t-74.5 -161t-117 -52l-42 3v117q50 -6 79.5 29.5t46 130t16.5 269.5v155h506v-700h-121z" />
    <glyph glyph-name="afii10030" unicode="&#x41c;" horiz-adv-x="844" 
d="M70 0v700h107l250 -325l241 325h106v-700h-121v485l-213 -278h-31l-218 279v-486h-121z" />
    <glyph glyph-name="afii10031" unicode="&#x41d;" horiz-adv-x="749" 
d="M558 0v297h-367v-297h-121v700h121v-289h367v289h121v-700h-121z" />
    <glyph glyph-name="afii10032" unicode="&#x41e;" horiz-adv-x="782" 
d="M33 350q0 73 27.5 139t76.5 115t115 76.5t139 27.5t138.5 -26.5t115 -75t77 -115t27.5 -141.5t-27.5 -141t-77 -114.5t-115 -75.5t-138.5 -27q-72 0 -138 26.5t-115.5 75t-77 115t-27.5 141.5zM159 350q0 -52 18.5 -97t51 -77.5t74.5 -50t88 -17.5q48 0 90.5 17.5
t74.5 49.5t49.5 77.5t17.5 97.5t-18.5 97.5t-51.5 77.5t-75 49.5t-87 17.5q-46 0 -88.5 -17.5t-74.5 -49.5t-50.5 -77t-18.5 -98z" />
    <glyph glyph-name="afii10033" unicode="&#x41f;" horiz-adv-x="746" 
d="M555 0v586h-364v-586h-121v700h606v-700h-121z" />
    <glyph glyph-name="afii10034" unicode="&#x420;" horiz-adv-x="678" 
d="M191 0h-121v700h283q142 0 216.5 -58.5t74.5 -171.5q0 -70 -34 -121.5t-98 -80t-160 -28.5h-161v-240zM357 587h-166v-234h159q85 0 126.5 31t41.5 87q0 54 -38.5 85t-122.5 31z" />
    <glyph glyph-name="afii10035" unicode="&#x421;" horiz-adv-x="692" 
d="M606 200l71 -78q-43 -60 -119.5 -95t-164.5 -35q-80 0 -147.5 25.5t-114.5 72.5t-72.5 114t-25.5 146q0 73 25.5 139t73 115t114.5 76.5t145 27.5q91 0 164.5 -34t110.5 -87l-80 -76q-35 39 -84 60t-105 21q-53 0 -97 -17t-75.5 -49t-48.5 -77.5t-17 -98.5
q0 -108 68 -175t175 -67q31 0 68 8t73 30t63 54z" />
    <glyph glyph-name="afii10036" unicode="&#x422;" horiz-adv-x="593" 
d="M1 586v114h591v-114h-235v-586h-121v586h-235z" />
    <glyph glyph-name="afii10037" unicode="&#x423;" horiz-adv-x="707" 
d="M196 14l47 101q12 -5 23 -5q33 0 67 70l-333 520h149l246 -393l185 393h127l-259 -538q-38 -81 -80 -123t-105 -42q-36 0 -67 17z" />
    <glyph glyph-name="afii10038" unicode="&#x424;" horiz-adv-x="877" 
d="M379 -15v83h-4q-76 0 -140.5 20.5t-111 59.5t-71.5 93t-25 119q0 68 26 123.5t73.5 92.5t112.5 56.5t140 19.5v63h120v-63q70 0 133.5 -18.5t113 -55t77.5 -92.5t28 -126q0 -64 -25 -118.5t-71.5 -93t-111 -59.5t-139.5 -21h-5v-83h-120zM501 539h-2v-358h5q48 0 89 11.5
t70.5 34t45.5 56.5t16 77q0 86 -57 132.5t-167 46.5zM153 360q0 -78 59 -128.5t163 -50.5h4v358q-74 0 -124 -22.5t-76 -62t-26 -94.5z" />
    <glyph glyph-name="afii10039" unicode="&#x425;" horiz-adv-x="682" 
d="M667 700l-253 -345l262 -355h-148l-187 257l-187 -257h-147l262 355l-251 345h145l179 -245l179 245h146z" />
    <glyph glyph-name="afii10040" unicode="&#x426;" horiz-adv-x="747" 
d="M70 0v700h121v-586h340v586h121v-586h85v-237h-117v123h-550z" />
    <glyph glyph-name="afii10041" unicode="&#x427;" horiz-adv-x="696" 
d="M627 700v-700h-121v281q-31 -17 -86.5 -30.5t-106.5 -13.5q-89 0 -148.5 28.5t-90.5 80t-31 126.5v228h121v-159q0 -77 21 -117.5t57 -57t90 -16.5q43 0 91 13t83 36v301h121z" />
    <glyph glyph-name="afii10042" unicode="&#x428;" horiz-adv-x="925" 
d="M70 0v700h121v-586h211v586h121v-586h211v586h121v-700h-785z" />
    <glyph glyph-name="afii10043" unicode="&#x429;" horiz-adv-x="950" 
d="M70 0v700h121v-586h211v586h121v-586h211v586h121v-586h85v-237h-117v123h-753z" />
    <glyph glyph-name="afii10044" unicode="&#x42a;" horiz-adv-x="749" 
d="M0 587v113h282v-247h156q143 0 215.5 -56.5t72.5 -165.5q0 -115 -77.5 -173t-219.5 -58h-268v587h-161zM436 340h-154v-226h151q84 0 125.5 27.5t41.5 89.5q0 54 -42 81.5t-122 27.5z" />
    <glyph glyph-name="afii10045" unicode="&#x42b;" horiz-adv-x="865" 
d="M675 0v700h121v-700h-121zM318 340h-127v-226h125q84 0 125.5 27.5t41.5 89.5q0 109 -165 109zM191 700v-247h130q141 0 214.5 -59.5t73.5 -162.5q0 -113 -78 -172t-219 -59h-242v700h121z" />
    <glyph glyph-name="afii10046" unicode="&#x42c;" horiz-adv-x="661" 
d="M348 340h-157v-226h154q167 0 167 117q0 54 -42 81.5t-122 27.5zM191 700v-247h159q143 0 215.5 -57t72.5 -165q0 -113 -77.5 -172t-218.5 -59h-272v700h121z" />
    <glyph glyph-name="afii10047" unicode="&#x42d;" horiz-adv-x="701" 
d="M204 301v113h337q-14 83 -76 132t-158 49q-40 0 -85 -14t-77.5 -38t-51.5 -47l-80 78q24 33 66 64t106 50.5t128 19.5q80 0 146.5 -25t113 -71.5t71 -113t24.5 -145.5q0 -77 -24.5 -143.5t-71.5 -115t-115 -75.5t-152 -27q-60 0 -116.5 16t-102 46.5t-79.5 78.5l82 69
q17 -23 49 -46.5t79 -37t93 -13.5q96 0 159 54t74 142h-339z" />
    <glyph glyph-name="afii10048" unicode="&#x42e;" horiz-adv-x="997" 
d="M70 0v700h121v-291h89q9 63 38 118t74 95.5t103.5 63t124.5 22.5q75 0 139.5 -26.5t110 -74.5t70 -114.5t24.5 -142.5q0 -36 -8.5 -82t-31.5 -92t-64 -88t-104.5 -69t-135.5 -27q-139 0 -232 85t-109 227h-88v-304h-121zM400 350q0 -53 16.5 -98.5t46.5 -78t70.5 -50.5
t86.5 -18q48 0 89 18t69.5 50.5t44 78t15.5 98.5q0 39 -10.5 81.5t-40 83t-75 60.5t-92.5 20q-46 0 -86.5 -17.5t-70.5 -50.5t-46.5 -78.5t-16.5 -98.5z" />
    <glyph glyph-name="afii10049" unicode="&#x42f;" horiz-adv-x="691" 
d="M500 0v246h-155l-197 -246h-145l217 267q-80 20 -124 73.5t-44 131.5q0 48 17.5 89.5t53.5 72.5t90 48.5t123 17.5h285v-700h-121zM315 359h185v228h-173q-48 0 -83.5 -14t-50.5 -41t-15 -60q0 -46 37.5 -78t99.5 -35z" />
    <glyph glyph-name="afii10065" unicode="&#x430;" horiz-adv-x="534" 
d="M109 371l-56 84q36 35 95.5 56t122.5 21q102 0 157.5 -56t55.5 -158v-318h-114v57q-25 -28 -66.5 -45.5t-94.5 -17.5q-85 0 -137 44.5t-52 119.5q0 42 18 73.5t51 52t77.5 30t96.5 9.5q25 0 56.5 -4t50.5 -10q1 56 -24.5 86.5t-87.5 30.5q-41 0 -76 -13t-73 -42zM234 93
q23 0 50 7.5t49.5 25t36.5 38.5v50q-16 5 -43.5 9.5t-51.5 4.5q-137 0 -137 -69q0 -30 26.5 -48t69.5 -18z" />
    <glyph glyph-name="afii10066" unicode="&#x431;" horiz-adv-x="604" 
d="M508 743l19 -103q-44 -18 -145.5 -25t-139.5 -24q-89 -42 -97 -174q21 30 55 49t70 25t65 6q50 0 94 -15.5t76.5 -46.5t51 -76.5t18.5 -102.5q0 -56 -19 -105t-53.5 -85t-84 -56t-107.5 -20q-62 0 -113.5 20.5t-88.5 60.5t-57 99t-20 132q0 114 17 186t53.5 122t98.5 81
q24 12 58 20.5t122 14t127 17.5zM150 283v-11q0 -75 45 -125.5t115 -50.5q43 0 75 17.5t52 51.5t20 84q0 65 -37.5 103.5t-106.5 38.5q-29 0 -62.5 -11t-60.5 -37.5t-40 -59.5z" />
    <glyph glyph-name="afii10067" unicode="&#x432;" horiz-adv-x="536" 
d="M53 0v520h222q111 0 165 -32t54 -106q0 -63 -58 -106q35 -14 54 -46.5t19 -74.5q0 -75 -55 -115t-155 -40h-246zM291 215h-124v-112h121q103 0 103 55q0 30 -24.5 43.5t-75.5 13.5zM272 417h-105v-103h134q35 0 55 13.5t20 39.5q0 22 -18.5 36t-85.5 14z" />
    <glyph glyph-name="afii10068" unicode="&#x433;" horiz-adv-x="449" 
d="M53 0v520h392v-106h-278v-414h-114z" />
    <glyph glyph-name="afii10069" unicode="&#x434;" horiz-adv-x="599" 
d="M5 -119v225h60q16 28 30.5 72.5t21.5 108.5t7 143v90h398v-414h73v-225h-106v119h-378v-119h-106zM232 414v-43q0 -73 -13.5 -146t-35.5 -119h225v308h-176z" />
    <glyph glyph-name="afii10070" unicode="&#x435;" horiz-adv-x="569" 
d="M449 166l70 -69q-39 -52 -93.5 -79t-117.5 -27q-61 0 -113 19t-89 54.5t-57 86t-20 110.5q0 57 17.5 106.5t51.5 86.5t84.5 57.5t113.5 20.5q51 0 96 -17t78.5 -48.5t51.5 -76t18 -96.5q0 -26 -6 -73h-386q7 -61 52.5 -92.5t109.5 -31.5q41 0 78.5 19t60.5 50zM291 429
q-56 0 -93.5 -29.5t-48.5 -79.5h273q-7 52 -41.5 80.5t-89.5 28.5z" />
    <glyph glyph-name="afii10072" unicode="&#x436;" horiz-adv-x="761" 
d="M213 283l-214 237h142l182 -203v203h114v-204l186 204h138l-216 -236l221 -284h-139l-168 220l-22 -23v-197h-114v196l-24 25l-166 -221h-136z" />
    <glyph glyph-name="afii10073" unicode="&#x437;" horiz-adv-x="510" 
d="M248 -12q-91 0 -148 33.5t-92 92.5l86 60q22 -38 62.5 -60.5t92.5 -22.5q24 0 51.5 6.5t46 24t18.5 41.5q0 26 -21.5 39t-61.5 13h-115v99h109q31 0 51 15.5t20 39.5q0 15 -10 30t-34.5 24t-54.5 9q-40 0 -76.5 -14t-70.5 -56l-81 54q12 21 40 49t78 49t116 21
q100 0 155.5 -41.5t55.5 -108.5q0 -64 -51 -104q37 -21 53 -49.5t16 -67.5q0 -30 -12 -61t-40.5 -56.5t-74.5 -42t-108 -16.5z" />
    <glyph glyph-name="afii10074" unicode="&#x438;" horiz-adv-x="596" 
d="M152 0h-99v520h114v-339l276 339h99v-520h-114v338z" />
    <glyph glyph-name="afii10075" unicode="&#x439;" horiz-adv-x="596" 
d="M152 0h-99v520h114v-339l276 339h99v-520h-114v338zM132 741h105q1 -31 19.5 -49.5t52.5 -18.5q33 0 50.5 18.5t17.5 49.5h104q-1 -27 -10 -55t-33.5 -53t-59.5 -36.5t-69 -11.5q-56 0 -95.5 20.5t-60 54.5t-21.5 81z" />
    <glyph glyph-name="afii10076" unicode="&#x43a;" horiz-adv-x="545" 
d="M53 0v520h114v-211l225 211h149l-253 -235l262 -285h-146l-199 214l-38 -37v-177h-114z" />
    <glyph glyph-name="afii10077" unicode="&#x43b;" horiz-adv-x="580" 
d="M413 0v414h-184v-81q0 -74 -10.5 -141t-36.5 -112.5t-67.5 -67t-104.5 -16.5l-9 106q36 -3 61 20.5t40 84t15 165.5v148h410v-520h-114z" />
    <glyph glyph-name="afii10078" unicode="&#x43c;" horiz-adv-x="667" 
d="M53 0v520h102l182 -236l182 236h94v-520h-114v323l-161 -209l-171 212v-326h-114z" />
    <glyph glyph-name="afii10079" unicode="&#x43d;" horiz-adv-x="585" 
d="M417 0v211h-250v-211h-114v520h114v-204h250v204h114v-520h-114z" />
    <glyph glyph-name="afii10080" unicode="&#x43e;" horiz-adv-x="615" 
d="M29 261q0 57 20 107.5t57.5 87t89 56.5t111.5 20t111.5 -20t89 -56.5t58 -87t20.5 -107.5t-20.5 -107t-58 -86.5t-89 -56.5t-111.5 -20q-59 0 -110.5 20t-89 56.5t-58 86.5t-20.5 107zM147 261q0 -71 45 -117.5t115 -46.5q72 0 116.5 45t44.5 119q0 37 -15.5 75t-55 64
t-90.5 26q-69 0 -114.5 -45t-45.5 -120z" />
    <glyph glyph-name="afii10081" unicode="&#x43f;" horiz-adv-x="579" 
d="M411 0v414h-244v-414h-114v520h472v-520h-114z" />
    <glyph glyph-name="afii10082" unicode="&#x440;" horiz-adv-x="592" 
d="M53 -200v720h114v-47q23 29 63 44t81 15q57 0 104 -19.5t80 -54.5t50.5 -83.5t17.5 -105.5q0 -58 -18.5 -109.5t-53 -89t-83 -58.5t-105.5 -21q-44 0 -81.5 11.5t-54.5 31.5v-234h-114zM299 426q-46 0 -80.5 -24.5t-51.5 -60.5v-180q18 -30 51 -47t72 -17q69 0 112 45
t43 118q0 78 -39 122t-107 44z" />
    <glyph glyph-name="afii10083" unicode="&#x441;" horiz-adv-x="538" 
d="M451 171l81 -52q-31 -60 -92.5 -94t-130.5 -34q-61 0 -113 19t-89.5 54.5t-57.5 86t-20 110.5q0 56 19.5 106t56 87t88 57.5t110.5 20.5q37 0 82 -11t83.5 -40t57.5 -67l-85 -56q-26 35 -58 51.5t-75 16.5q-71 0 -116 -46t-45 -119q0 -71 48 -117.5t125 -46.5
q82 0 131 74z" />
    <glyph glyph-name="afii10084" unicode="&#x442;" horiz-adv-x="496" 
d="M3 414v106h490v-106h-188v-414h-114v414h-188z" />
    <glyph glyph-name="afii10085" unicode="&#x443;" horiz-adv-x="548" 
d="M75 -194l45 97q11 -6 23 -6q47 0 82 87l18 47l-256 489h132l179 -351l138 351h122l-204 -505q-45 -112 -90.5 -168t-116.5 -56q-42 0 -72 15z" />
    <glyph glyph-name="afii10086" unicode="&#x444;" horiz-adv-x="734" 
d="M310 -200v190h-6q-64 0 -116.5 20t-88.5 56t-55 86t-19 107q0 53 19 102t55 87t88.5 59.5t115.5 21.5h7v201h114v-201h8q62 0 113.5 -20.5t88 -57t56 -86t19.5 -106.5t-18.5 -107t-54.5 -86t-89 -56t-117 -20h-6v-190h-114zM143 259q0 -77 41.5 -120t119.5 -43h6v327h-7
q-79 0 -119.5 -44.5t-40.5 -119.5zM430 423h-6v-327h6q161 0 161 163q0 75 -40.5 119.5t-120.5 44.5z" />
    <glyph glyph-name="afii10087" unicode="&#x445;" horiz-adv-x="555" 
d="M548 520l-199 -251l209 -269h-141l-141 185l-144 -185h-135l208 267l-198 253h140l132 -167l132 167h137z" />
    <glyph glyph-name="afii10088" unicode="&#x446;" horiz-adv-x="598" 
d="M53 0v520h114v-414h241v414h114v-414h70v-225h-106v119h-433z" />
    <glyph glyph-name="afii10089" unicode="&#x447;" horiz-adv-x="546" 
d="M493 520v-520h-114v204q-24 -22 -61.5 -35t-78.5 -13q-209 0 -209 207v157h114v-118q0 -76 28 -108t92 -32q33 0 65 16.5t50 40.5v201h114z" />
    <glyph glyph-name="afii10090" unicode="&#x448;" horiz-adv-x="748" 
d="M53 0v520h114v-414h150v414h114v-414h150v414h114v-520h-642z" />
    <glyph glyph-name="afii10091" unicode="&#x449;" horiz-adv-x="771" 
d="M53 0v520h114v-414h150v414h114v-414h150v414h114v-414h69v-225h-106v119h-605z" />
    <glyph glyph-name="afii10092" unicode="&#x44a;" horiz-adv-x="593" 
d="M3 414v106h241v-149h110q75 0 122.5 -22t72 -62.5t24.5 -100.5q0 -58 -26 -99.5t-75.5 -64t-124.5 -22.5h-217v414h-127zM344 265h-100v-159h100q59 0 85 20t26 59q0 80 -111 80z" />
    <glyph glyph-name="afii10093" unicode="&#x44b;" horiz-adv-x="696" 
d="M53 0v520h114v-151h90q75 0 123 -21.5t72.5 -62t24.5 -99.5q0 -58 -26.5 -99t-76.5 -64t-125 -23h-196zM248 263h-81v-157h80q59 0 85.5 20t26.5 59t-26.5 58.5t-84.5 19.5zM529 0v520h114v-520h-114z" />
    <glyph glyph-name="afii10094" unicode="&#x44c;" horiz-adv-x="517" 
d="M53 0v520h114v-151h110q75 0 123 -21.5t72.5 -62t24.5 -99.5q0 -58 -26.5 -99.5t-76 -64t-124.5 -22.5h-217zM267 263h-100v-157h99q59 0 86 20t27 59q0 78 -112 78z" />
    <glyph glyph-name="afii10095" unicode="&#x44d;" horiz-adv-x="547" 
d="M155 216v99h243q-12 56 -53 83.5t-104 27.5q-31 0 -62.5 -10t-54.5 -28.5t-36 -37.5l-83 61q43 59 106 90t139 31q60 0 110 -19t85.5 -54.5t54.5 -86t19 -111.5q0 -57 -18.5 -106.5t-54 -86t-87 -57t-114.5 -20.5q-56 0 -104 14t-82 39t-54 62l83 60q50 -69 147 -69
q50 0 88 18.5t55 47t22 53.5h-245z" />
    <glyph glyph-name="afii10096" unicode="&#x44e;" horiz-adv-x="815" 
d="M53 0v520h114v-202h90q18 96 88 155t172 59q58 0 108 -20t86 -56.5t55.5 -87t19.5 -107.5t-19.5 -107t-56 -86.5t-86.5 -56.5t-107 -20q-106 0 -176.5 61.5t-85.5 162.5h-88v-215h-114zM370 261q0 -74 42 -119t106 -45q66 0 108 45t42 119t-41.5 119.5t-108.5 45.5
q-63 0 -105.5 -46t-42.5 -119z" />
    <glyph glyph-name="afii10097" unicode="&#x44f;" horiz-adv-x="539" 
d="M272 520h214v-520h-114v171h-97l-132 -171h-133l150 190q-54 13 -86.5 56t-32.5 102q0 55 27 93t77.5 58.5t126.5 20.5zM159 344q0 -30 26.5 -48.5t73.5 -18.5h113v137h-110q-53 0 -78 -18.5t-25 -51.5z" />
    <glyph glyph-name="afii10071" unicode="&#x451;" horiz-adv-x="569" 
d="M449 166l70 -69q-39 -52 -93.5 -79t-117.5 -27q-61 0 -113 19t-89 54.5t-57 86t-20 110.5q0 57 17.5 106.5t51.5 86.5t84.5 57.5t113.5 20.5q51 0 96 -17t78.5 -48.5t51.5 -76t18 -96.5q0 -26 -6 -73h-386q7 -61 52.5 -92.5t109.5 -31.5q41 0 78.5 19t60.5 50zM291 429
q-56 0 -93.5 -29.5t-48.5 -79.5h273q-7 52 -41.5 80.5t-89.5 28.5zM122 672q0 25 19 41.5t44 16.5q24 0 44 -17t20 -41q0 -27 -20 -44t-44 -17q-25 0 -44 17t-19 44zM339 672q0 25 20 41.5t46 16.5q25 0 44.5 -17t19.5 -41q0 -27 -19 -44t-45 -17q-27 0 -46.5 17t-19.5 44z
" />
    <glyph glyph-name="afii10099" unicode="&#x452;" horiz-adv-x="649" 
d="M0 520v103h128v107h114v-107h210v-103h-210v-156q59 57 150 57q106 0 165 -61t59 -182q0 -44 -9 -94t-33 -101t-68.5 -100.5t-116.5 -89.5l-66 79q49 29 91 69.5t63.5 96.5t21.5 126q0 80 -33 115.5t-95 35.5q-37 0 -75 -25t-54 -60v-230h-114v520h-128z" />
    <glyph glyph-name="afii10100" unicode="&#x453;" horiz-adv-x="449" 
d="M53 0v520h392v-106h-278v-414h-114zM398 755l-127 -157l-77 54l118 167z" />
    <glyph glyph-name="afii10101" unicode="&#x454;" horiz-adv-x="541" 
d="M371 315v-99h-224q12 -62 56.5 -90.5t106.5 -28.5q86 0 132 65l85 -48q-32 -61 -93.5 -92t-132.5 -31q-58 0 -108.5 20t-87 56t-56.5 86t-20 108q0 60 20 111t57.5 86.5t89.5 54.5t113 19q49 0 94.5 -14.5t76 -40t46.5 -51.5l-86 -59q-24 31 -57 45t-75 14
q-59 0 -102 -28.5t-57 -82.5h222z" />
    <glyph glyph-name="afii10102" unicode="&#x455;" horiz-adv-x="496" 
d="M356 148q0 10 -9.5 21t-33 20t-81.5 26t-94 33.5t-57.5 37.5t-30.5 44t-9 47q0 72 57 113.5t157 41.5q49 0 95.5 -16t74.5 -37.5t40 -38.5l-78 -74q-23 27 -63.5 43.5t-87.5 16.5q-25 0 -43.5 -6t-26 -17.5t-7.5 -23.5q0 -13 16 -25t79.5 -30t89 -28t45.5 -20.5t38 -25.5
t32.5 -39.5t14.5 -61.5q0 -49 -25.5 -83.5t-73.5 -54.5t-115 -20q-44 0 -91 12.5t-88 42.5t-62 70l90 62q22 -35 67.5 -58t94.5 -23q26 0 47 7t29.5 19t8.5 25z" />
    <glyph glyph-name="afii10103" unicode="&#x456;" horiz-adv-x="239" 
d="M63 0v520h114v-520h-114zM53 669q0 25 19.5 42.5t47.5 17.5q27 0 46.5 -17.5t19.5 -42.5q0 -26 -19 -44t-47 -18q-29 0 -48 17.5t-19 44.5z" />
    <glyph glyph-name="afii10104" unicode="&#x457;" horiz-adv-x="247" 
d="M66 0v520h114v-520h-114zM-17 669q0 25 18 43t44 18q21 0 39.5 -18t18.5 -43q0 -26 -18.5 -44.5t-39.5 -18.5q-26 0 -44 18t-18 45zM144 669q0 25 18.5 43t42.5 18q23 0 41.5 -18t18.5 -43q0 -27 -18 -45t-42 -18t-42.5 18.5t-18.5 44.5z" />
    <glyph glyph-name="afii10105" unicode="&#x458;" horiz-adv-x="239" 
d="M178 520v-521q0 -99 -43 -153.5t-129 -54.5q-57 0 -100.5 24.5t-65.5 75.5l97 43q11 -17 24 -27t36 -10q67 0 67 105v518h114zM54 670q0 25 19 42.5t48 17.5q27 0 46 -17.5t19 -42.5q0 -27 -18 -45t-47 -18t-48 18t-19 45z" />
    <glyph glyph-name="afii10106" unicode="&#x459;" horiz-adv-x="831" 
d="M411 414h-182v-81q0 -74 -10.5 -141t-36.5 -112.5t-67.5 -67t-104.5 -16.5l-9 106q36 -3 61 20.5t40 84t15 165.5v148h408v-157h63q75 0 122.5 -21t72 -60.5t24.5 -99.5q0 -57 -26 -97.5t-75 -62.5t-124 -22h-171v414zM580 256h-55v-150h62q56 0 79 19t23 56
q0 39 -25.5 57t-83.5 18z" />
    <glyph glyph-name="afii10107" unicode="&#x45a;" horiz-adv-x="835" 
d="M53 0v520h114v-184h249v184h114v-184h62q76 0 124 -18t72 -54t24 -94t-26 -95t-75.5 -56t-125.5 -19h-169v230h-249v-230h-114zM584 231h-54v-125h53q60 0 85.5 15t25.5 48t-25.5 47.5t-84.5 14.5z" />
    <glyph glyph-name="afii10108" unicode="&#x45b;" horiz-adv-x="647" 
d="M0 520v103h128v107h114v-107h210v-103h-210v-163q55 58 154 58q104 0 159 -58.5t55 -179.5v-177h-114v169q0 78 -32.5 109t-92.5 31q-40 0 -76 -22.5t-53 -61.5v-225h-114v520h-128z" />
    <glyph glyph-name="afii10109" unicode="&#x45c;" horiz-adv-x="545" 
d="M53 0v520h114v-211l225 211h149l-253 -235l262 -285h-146l-199 214l-38 -37v-177h-114zM409 755l-127 -157l-77 54l118 167z" />
    <glyph glyph-name="afii10110" unicode="&#x45e;" horiz-adv-x="548" 
d="M75 -193l45 97q11 -6 23 -6q47 0 82 87l18 47l-256 489h132l179 -351l138 351h122l-204 -505q-45 -112 -90.5 -168t-116.5 -56q-42 0 -72 15zM108 741h105q1 -31 19.5 -49.5t52.5 -18.5q33 0 50.5 18.5t17.5 49.5h104q-1 -27 -10 -55t-33.5 -53t-59.5 -36.5t-69 -11.5
q-56 0 -95.5 20.5t-60 54.5t-21.5 81z" />
    <glyph glyph-name="afii10193" unicode="&#x45f;" horiz-adv-x="597" 
d="M62 0v520h114v-414h247v414h114v-520h-185v-138h-106v138h-184z" />
    <glyph glyph-name="afii10146" unicode="&#x462;" horiz-adv-x="717" 
d="M0 502v113h126v85h121v-85h227v-113h-227v-75h159q145 0 216.5 -51.5t71.5 -158.5q0 -41 -13.5 -81t-47 -70t-90.5 -48t-145 -18h-272v502h-126zM404 313h-157v-199h154q85 0 126 23t41 80q0 53 -40 74.5t-124 21.5z" />
    <glyph glyph-name="afii10194" unicode="&#x463;" horiz-adv-x="582" 
d="M402 419h-170v-76h110q75 0 123 -20.5t72.5 -58t24.5 -92.5t-26.5 -93t-76 -58.5t-124.5 -20.5h-217v419h-115v101h115v210h114v-210h170v-101zM332 236h-100v-130h100q60 0 86 16t26 49q0 35 -26 50t-86 15z" />
    <glyph glyph-name="afii10147" unicode="&#x472;" horiz-adv-x="782" 
d="M33 350q0 73 27.5 139t76.5 115t115 76.5t139 27.5t138.5 -26.5t115 -75t77 -115t27.5 -141.5t-27.5 -141t-77 -114.5t-115 -75.5t-138.5 -27q-72 0 -138 26.5t-115.5 75t-77 115t-27.5 141.5zM391 108q31 0 65.5 9t66.5 30.5t58 58.5t37 89h-454q18 -84 81.5 -135.5
t145.5 -51.5zM391 592q-39 0 -76 -13t-67.5 -37t-52 -58t-30.5 -75h451q-11 51 -41.5 91t-78 66t-105.5 26z" />
    <glyph glyph-name="afii10195" unicode="&#x473;" horiz-adv-x="615" 
d="M29 261q0 57 20 107.5t57.5 87t89 56.5t111.5 20t111.5 -20t89 -56.5t58 -87t20.5 -107.5t-20.5 -107t-58 -86.5t-89 -56.5t-111.5 -20q-59 0 -110.5 20t-89 56.5t-58 86.5t-20.5 107zM307 97q42 0 77.5 18t53.5 45.5t24 52.5h-309q6 -24 24 -51.5t53 -46t77 -18.5z
M307 426q-55 0 -97 -30.5t-56 -81.5h307q-15 51 -57.5 81.5t-96.5 30.5z" />
    <glyph glyph-name="afii10148" unicode="&#x474;" horiz-adv-x="769" 
d="M645 514l-233 -514h-86l-333 700h131l246 -525l172 392q31 70 75 105.5t93 35.5q45 0 86 -29l-47 -98q-11 10 -30 10q-40 -2 -74 -77z" />
    <glyph glyph-name="afii10196" unicode="&#x475;" horiz-adv-x="568" 
d="M454 331l-147 -331h-84l-242 520h129l157 -347l103 237q50 118 140 116q56 -2 91 -37l-50 -86q-11 11 -28 11q-32 0 -69 -83z" />
    <glyph glyph-name="afii10050" unicode="&#x490;" horiz-adv-x="582" 
d="M70 0v700h396v121h114v-234h-389v-587h-121z" />
    <glyph glyph-name="afii10098" unicode="&#x491;" horiz-adv-x="445" 
d="M53 0v520h286v100h106v-206h-278v-414h-114z" />
    <glyph glyph-name="uni1E9E" unicode="&#x1e9e;" horiz-adv-x="656" 
d="M345 708q63 0 111 -18.5t82 -52.5t49 -81l-136 -160q34 -4 70 -19t59 -44.5t31 -62t8 -63.5q0 -98 -64.5 -157.5t-173.5 -59.5q-68 0 -122 27l37 107q40 -20 81 -20q51 0 85.5 26.5t34.5 74.5t-35 73t-101 25h-44v91l133 153q-44 48 -113 48q-149 0 -149 -166v-429h-121
v448q0 88 32 144.5t92.5 86t153.5 29.5z" />
    <glyph glyph-name="uni2010" unicode="&#x2010;" horiz-adv-x="416" 
d="M69 227v101h278v-101h-278z" />
    <glyph glyph-name="uni2011" unicode="&#x2011;" horiz-adv-x="416" 
d="M69 227v101h278v-101h-278z" />
    <glyph glyph-name="figuredash" unicode="&#x2012;" horiz-adv-x="607" 
d="M85 311v99h437v-99h-437z" />
    <glyph glyph-name="endash" unicode="&#x2013;" horiz-adv-x="607" 
d="M85 227v99h437v-99h-437z" />
    <glyph glyph-name="emdash" unicode="&#x2014;" horiz-adv-x="796" 
d="M85 227v99h626v-99h-626z" />
    <glyph glyph-name="quoteleft" unicode="&#x2018;" horiz-adv-x="247" 
d="M189 530l-96 -59q-47 53 -47 99q0 42 19.5 76.5t45.5 55.5t46 33l49 -44q-22 -18 -34 -42.5t-12 -49.5q0 -34 29 -69z" />
    <glyph glyph-name="quoteright" unicode="&#x2019;" horiz-adv-x="247" 
d="M58 677l95 60q47 -53 47 -100q0 -30 -12 -61t-38.5 -57.5t-59.5 -46.5l-49 45q45 38 45 92q0 34 -28 68z" />
    <glyph glyph-name="quotesinglbase" unicode="&#x201a;" horiz-adv-x="247" 
d="M58 71l95 60q47 -53 47 -100q0 -30 -12 -61t-38.5 -57.5t-59.5 -46.5l-49 45q22 17 33.5 41.5t11.5 50.5q0 34 -28 68z" />
    <glyph glyph-name="quotedblleft" unicode="&#x201c;" horiz-adv-x="424" 
d="M189 530l-96 -59q-47 53 -47 99q0 42 19.5 76.5t45.5 55.5t46 33l49 -44q-22 -18 -34 -42.5t-12 -49.5q0 -34 29 -69zM365 530l-95 -59q-47 53 -47 99q0 42 19.5 76.5t45.5 55.5t46 33l49 -44q-22 -18 -34 -42.5t-12 -49.5q0 -32 28 -69z" />
    <glyph glyph-name="quotedblright" unicode="&#x201d;" horiz-adv-x="424" 
d="M235 677l95 60q47 -53 47 -100q0 -30 -12 -61t-38.5 -57.5t-59.5 -46.5l-50 45q22 18 34 42.5t12 49.5q0 31 -28 68zM58 677l95 60q47 -53 47 -100q0 -30 -12 -61t-38.5 -57.5t-59.5 -46.5l-49 45q45 38 45 92q0 34 -28 68z" />
    <glyph glyph-name="quotedblbase" unicode="&#x201e;" horiz-adv-x="424" 
d="M235 71l95 60q47 -53 47 -100q0 -30 -12 -61t-38.5 -57.5t-59.5 -46.5l-50 45q22 17 34 42t12 50q0 31 -28 68zM58 71l95 60q47 -53 47 -100q0 -30 -12 -61t-38.5 -57.5t-59.5 -46.5l-49 45q22 17 33.5 41.5t11.5 50.5q0 34 -28 68z" />
    <glyph glyph-name="dagger" unicode="&#x2020;" horiz-adv-x="458" 
d="M33 386v106h139v208h114v-208h139v-106h-139v-478h-114v478h-139z" />
    <glyph glyph-name="daggerdbl" unicode="&#x2021;" horiz-adv-x="458" 
d="M33 386v106h139v208h114v-208h139v-106h-139v-137h139v-106h-139v-235h-114v235h-139v106h139v137h-139z" />
    <glyph glyph-name="bullet" unicode="&#x2022;" horiz-adv-x="302" 
d="M51 361q0 16 9 34.5t31 32t48 13.5q16 0 36 -8t35 -28t15 -44q0 -32 -26 -56.5t-60 -24.5q-26 0 -48 14t-31 33t-9 34z" />
    <glyph glyph-name="ellipsis" unicode="&#x2026;" horiz-adv-x="795" 
d="M604 62q0 23 20 42.5t50 19.5q27 0 47 -19.5t20 -42.5q0 -25 -20 -44.5t-47 -19.5q-30 0 -50 19.5t-20 44.5zM329 62q0 23 20 42.5t50 19.5q28 0 47.5 -19.5t19.5 -42.5q0 -25 -19.5 -44.5t-47.5 -19.5q-30 0 -50 19.5t-20 44.5zM54 62q0 23 20 42.5t50 19.5
q27 0 47.5 -19.5t20.5 -42.5q0 -25 -20 -44.5t-48 -19.5q-30 0 -50 19.5t-20 44.5z" />
    <glyph glyph-name="perthousand" unicode="&#x2030;" horiz-adv-x="1332" 
d="M37 525q0 28 9.5 58.5t33 57t61.5 44.5t88 18q29 0 61.5 -8.5t61 -30t48.5 -56.5t20 -83q0 -77 -54.5 -127t-136.5 -50q-29 0 -62 8.5t-61.5 30t-48.5 56.5t-20 82zM150 525q0 -17 8 -36.5t28 -32.5t43 -13q33 0 55.5 23t22.5 59q0 35 -23 58t-55 23t-55.5 -23t-23.5 -58
zM157 34l515 689l82 -58l-515 -688zM487 174q0 28 9.5 58.5t33 56.5t61.5 44t88 18q29 0 61.5 -8.5t64.5 -32.5t48.5 -61t16.5 -75q0 -77 -55 -127.5t-136 -50.5q-82 0 -137 50.5t-55 127.5zM600 174q0 -35 24 -58t55 -23q32 0 55 23t23 58q0 36 -23.5 59t-54.5 23
q-32 0 -55.5 -23t-23.5 -59zM912 174q0 28 9.5 58.5t33 56.5t61.5 44t88 18t96 -22t70.5 -64.5t24.5 -90.5q0 -77 -54.5 -127.5t-136.5 -50.5t-137 50.5t-55 127.5zM1025 174q0 -35 24 -58t55 -23q32 0 55 23t23 58q0 36 -23 59t-55 23t-55.5 -23t-23.5 -59z" />
    <glyph glyph-name="guilsinglleft" unicode="&#x2039;" horiz-adv-x="342" 
d="M222 38l-185 218v6l185 212l78 -69l-127 -147l127 -148z" />
    <glyph glyph-name="guilsinglright" unicode="&#x203a;" horiz-adv-x="342" 
d="M301 256l-185 -218l-78 72l127 148l-127 147l77 69l186 -212v-6z" />
    <glyph glyph-name="fraction" unicode="&#x2044;" horiz-adv-x="332" 
d="M-150 48l549 672l83 -66l-547 -676z" />
    <glyph glyph-name="uni2070" unicode="&#x2070;" horiz-adv-x="483" 
d="M43 510q0 94 54 154t144 60q33 0 68 -10.5t64 -36.5t48 -68t19 -99q0 -94 -53.5 -154t-143.5 -60q-33 0 -68 10.5t-67.5 39.5t-48.5 73.5t-16 90.5zM149 510q0 -25 9 -53t32 -46t53 -18q41 0 66 30.5t25 86.5t-24 86.5t-69 30.5q-43 0 -67.5 -30.5t-24.5 -86.5z" />
    <glyph glyph-name="uni2074" unicode="&#x2074;" horiz-adv-x="453" 
d="M258 300v76h-246v73l258 271h87v-253h76v-91h-76v-76h-99zM133 467h125v126z" />
    <glyph glyph-name="uni2075" unicode="&#x2075;" horiz-adv-x="416" 
d="M61 471l21 249h278v-94h-195l-9 -57q22 5 57 5q74 0 117.5 -38t43.5 -99q0 -23 -9 -48t-30.5 -45.5t-55.5 -34.5t-79 -14q-57 0 -101.5 20.5t-71.5 60.5l74 60q14 -20 40 -33.5t54 -13.5q35 0 54.5 13.5t19.5 34.5q0 25 -24 39t-66 14q-51 0 -118 -19z" />
    <glyph glyph-name="uni2076" unicode="&#x2076;" horiz-adv-x="469" 
d="M43 499q0 41 11 81.5t37 72.5t67.5 52t98.5 20q94 0 151 -41l-42 -75q-45 25 -111 25q-23 0 -49 -9t-43 -32t-17 -54q46 46 120 46q80 0 124.5 -38.5t44.5 -101.5q0 -40 -22 -73t-64 -55t-99 -22q-67 0 -113.5 27.5t-70 72t-23.5 104.5zM159 457q2 -28 26.5 -48t63.5 -20
q37 0 59 15t22 41q0 25 -23.5 38.5t-60.5 13.5q-65 0 -87 -40z" />
    <glyph glyph-name="uni2077" unicode="&#x2077;" horiz-adv-x="386" 
d="M20 622v98h346v-75l-192 -345h-117l185 322h-222z" />
    <glyph glyph-name="uni2078" unicode="&#x2078;" horiz-adv-x="484" 
d="M232 556h20q27 0 44 10.5t17 30.5q0 15 -13.5 26t-58.5 11q-33 0 -51.5 -9.5t-18.5 -27.5q0 -20 16.5 -30.5t44.5 -10.5zM251 475h-17q-36 0 -57 -12t-21 -33t22.5 -32.5t63.5 -11.5q86 0 86 43q0 22 -20.5 34t-56.5 12zM242 295q-51 0 -97 14.5t-70.5 44t-24.5 63.5
q0 33 18 59.5t50 41.5q-52 26 -52 89q0 53 49.5 85.5t126.5 32.5t126.5 -32.5t49.5 -85.5q0 -57 -53 -87q69 -24 69 -100q0 -58 -54.5 -91.5t-137.5 -33.5z" />
    <glyph glyph-name="uni2079" unicode="&#x2079;" horiz-adv-x="469" 
d="M425 521q0 -54 -16 -97t-45 -71.5t-68 -43t-84 -14.5q-94 0 -151 41l42 75q45 -25 110 -25q24 0 50 9t43 32t17 54q-46 -46 -120 -46q-80 0 -125 38.5t-45 101.5q0 40 22 73t64.5 55t99.5 22q44 0 82 -13.5t65.5 -39.5t43 -64.5t15.5 -86.5zM310 563q-2 28 -26.5 48
t-64.5 20q-36 0 -58 -15t-22 -41q0 -25 23.5 -38.5t59.5 -13.5q66 0 88 40z" />
    <glyph glyph-name="uni207A" unicode="&#x207a;" horiz-adv-x="437" 
d="M53 468v94h114v113h101v-113h115v-94h-115v-113h-101v113h-114z" />
    <glyph glyph-name="uni207B" unicode="&#x207b;" horiz-adv-x="421" 
d="M53 469v94h315v-94h-315z" />
    <glyph glyph-name="uni207C" unicode="&#x207c;" horiz-adv-x="409" 
d="M53 541v88h303v-88h-303zM53 402v88h303v-88h-303z" />
    <glyph glyph-name="uni207D" unicode="&#x207d;" horiz-adv-x="276" 
d="M263 251l-65 -59q-51 38 -85.5 84t-52 96t-17.5 99q0 31 11 77t47 100t98 102l59 -62q-53 -41 -81 -99.5t-28 -117.5q0 -29 11 -67.5t39 -80t64 -72.5z" />
    <glyph glyph-name="uni207E" unicode="&#x207e;" horiz-adv-x="275" 
d="M77 193l-61 62q110 86 110 216q0 60 -25.5 113.5t-85.5 104.5l62 61q52 -41 86.5 -84.5t51.5 -92t17 -102.5q0 -31 -11 -78t-47 -101t-97 -99z" />
    <glyph glyph-name="uni2080" unicode="&#x2080;" horiz-adv-x="483" 
d="M43 110q0 94 54 154t144 60q33 0 68 -10.5t64 -36.5t48 -68t19 -99q0 -94 -53.5 -154t-143.5 -60q-33 0 -68 10.5t-67.5 39.5t-48.5 73.5t-16 90.5zM149 110q0 -25 9 -53t32 -46t53 -18q41 0 66 30.5t25 86.5t-24 86.5t-69 30.5q-43 0 -67.5 -30.5t-24.5 -86.5z" />
    <glyph glyph-name="uni2081" unicode="&#x2081;" horiz-adv-x="315" 
d="M10 253l162 68h77v-421h-105v305l-97 -40z" />
    <glyph glyph-name="uni2082" unicode="&#x2082;" horiz-adv-x="421" 
d="M110 168l-75 46q22 53 70.5 81.5t111.5 28.5q71 0 113 -34t42 -89q0 -27 -11.5 -59.5t-39 -62t-62.5 -52.5l-52 -33h181v-94h-345v81l88 54q136 84 136 142q0 53 -59 53q-34 0 -59 -17t-39 -45z" />
    <glyph glyph-name="uni2083" unicode="&#x2083;" horiz-adv-x="429" 
d="M106 179l-70 54q19 30 49.5 52.5t65.5 31t65 8.5q33 0 72 -9t64 -34.5t25 -61.5q0 -34 -16 -57.5t-47 -38.5q21 -6 39 -20t26 -36t8 -43q0 -22 -9 -44.5t-30.5 -41.5t-56 -31.5t-81.5 -12.5q-43 0 -82 14t-64 39.5t-37 50.5l78 48q10 -26 39 -42t66 -16q71 0 71 41
t-73 41h-47v81h39q34 0 52.5 11t18.5 32q0 36 -57 36q-39 0 -63.5 -12.5t-44.5 -39.5z" />
    <glyph glyph-name="uni2084" unicode="&#x2084;" horiz-adv-x="453" 
d="M258 -100v76h-246v73l258 271h87v-253h76v-91h-76v-76h-99zM133 67h125v126z" />
    <glyph glyph-name="uni2085" unicode="&#x2085;" horiz-adv-x="416" 
d="M61 71l21 249h278v-94h-195l-9 -57q22 5 57 5q74 0 117.5 -38t43.5 -99q0 -23 -9 -48t-30.5 -45.5t-55.5 -34.5t-79 -14q-57 0 -101.5 20.5t-71.5 60.5l74 60q14 -20 40 -33.5t54 -13.5q35 0 54.5 13.5t19.5 34.5q0 25 -24 39t-66 14q-51 0 -118 -19z" />
    <glyph glyph-name="uni2086" unicode="&#x2086;" horiz-adv-x="469" 
d="M43 99q0 41 11 81.5t37 72.5t67.5 52t98.5 20q94 0 151 -41l-42 -75q-45 25 -111 25q-23 0 -49 -9t-43 -32t-17 -54q46 46 120 46q80 0 124.5 -38.5t44.5 -101.5q0 -40 -22 -73t-64 -55t-99 -22q-67 0 -113.5 27.5t-70 72t-23.5 104.5zM159 57q2 -28 26.5 -48t63.5 -20
q37 0 59 15t22 41q0 25 -23.5 38.5t-60.5 13.5q-65 0 -87 -40z" />
    <glyph glyph-name="uni2087" unicode="&#x2087;" horiz-adv-x="386" 
d="M20 222v98h346v-75l-192 -345h-117l185 322h-222z" />
    <glyph glyph-name="uni2088" unicode="&#x2088;" horiz-adv-x="484" 
d="M232 156h20q27 0 44 10.5t17 30.5q0 15 -13.5 26t-58.5 11q-33 0 -51.5 -9.5t-18.5 -27.5q0 -20 16.5 -30.5t44.5 -10.5zM251 75h-17q-36 0 -57 -12t-21 -33t22.5 -32.5t63.5 -11.5q86 0 86 43q0 22 -20.5 34t-56.5 12zM242 -105q-51 0 -97 14.5t-70.5 44t-24.5 63.5
q0 33 18 59.5t50 41.5q-52 26 -52 89q0 53 49.5 85.5t126.5 32.5t126.5 -32.5t49.5 -85.5q0 -57 -53 -87q69 -24 69 -100q0 -58 -54.5 -91.5t-137.5 -33.5z" />
    <glyph glyph-name="uni2089" unicode="&#x2089;" horiz-adv-x="469" 
d="M425 121q0 -54 -16 -97t-45 -71.5t-68 -43t-84 -14.5q-94 0 -151 41l42 75q45 -25 110 -25q24 0 50 9t43 32t17 54q-46 -46 -120 -46q-80 0 -125 38.5t-45 101.5q0 40 22 73t64.5 55t99.5 22q44 0 82 -13.5t65.5 -39.5t43 -64.5t15.5 -86.5zM310 163q-2 28 -26.5 48
t-64.5 20q-36 0 -58 -15t-22 -41q0 -25 23.5 -38.5t59.5 -13.5q66 0 88 40z" />
    <glyph glyph-name="uni208A" unicode="&#x208a;" horiz-adv-x="437" 
d="M53 68v94h114v113h101v-113h115v-94h-115v-113h-101v113h-114z" />
    <glyph glyph-name="uni208B" unicode="&#x208b;" horiz-adv-x="421" 
d="M53 69v94h315v-94h-315z" />
    <glyph glyph-name="uni208C" unicode="&#x208c;" horiz-adv-x="409" 
d="M53 141v88h303v-88h-303zM53 2v88h303v-88h-303z" />
    <glyph glyph-name="uni208D" unicode="&#x208d;" horiz-adv-x="276" 
d="M263 -149l-65 -59q-51 38 -85.5 84t-52 96t-17.5 99q0 31 11 77t47 100t98 102l59 -62q-53 -41 -81 -99.5t-28 -117.5q0 -29 11 -67.5t39 -80t64 -72.5z" />
    <glyph glyph-name="uni208E" unicode="&#x208e;" horiz-adv-x="275" 
d="M77 -207l-61 62q110 86 110 216q0 60 -25.5 113.5t-85.5 104.5l62 61q52 -41 86.5 -84.5t51.5 -92t17 -102.5q0 -31 -11 -78t-47 -101t-97 -99z" />
    <glyph glyph-name="Euro" unicode="&#x20ac;" horiz-adv-x="660" 
d="M20 386l39 98h68q17 49 47.5 90t72 71t93.5 46.5t110 16.5q112 0 178 -46l-43 -91q-55 33 -135 33q-64 0 -115 -32t-78 -88h307l-37 -98h-299l-2 -49l1 -17h281l-32 -98h-226q16 -42 53.5 -73t80.5 -42.5t77 -11.5q25 0 62 8.5t60 23.5l30 -93q-21 -17 -66.5 -29.5
t-88.5 -12.5q-127 0 -214 60t-122 170h-100l37 98l47 1l-1 18q0 23 2 47h-87z" />
    <glyph glyph-name="uni20B4" unicode="&#x20b4;" horiz-adv-x="610" 
d="M51 397v95h326q16 21 16 46q0 26 -23 42t-66 16q-94 0 -151 -44l-50 93q77 64 209 64q50 0 99.5 -19t77 -54.5t27.5 -74.5q0 -42 -20 -69h64v-95h-128q-5 -5 -22 -17t-55.5 -32t-46.5 -25h252v-95h-329q-23 -31 -23 -53q0 -26 18.5 -43t45.5 -22.5t50 -5.5q53 0 97 18
t69 44l54 -80q-28 -43 -95.5 -69t-132.5 -26q-73 0 -123.5 22.5t-76.5 59.5t-26 88q0 33 19 67h-56v95h120q34 20 78.5 42.5t59.5 31.5h-258z" />
    <glyph glyph-name="uni20BD" unicode="&#x20bd;" horiz-adv-x="615" 
d="M27 295v106h103v299l111 1l78 1q86 0 144 -23t89 -67t31 -110q0 -67 -33 -113t-90.5 -70t-140.5 -24h-72v-65h168v-106h-168v-124h-117v124h-103v106h103v65h-103zM325 595h-78v-194h70q145 0 145 98q0 51 -35 73.5t-102 22.5z" />
    <glyph glyph-name="afii61352" unicode="&#x2116;" horiz-adv-x="1142" 
d="M655 0h-93l-369 483v-483h-116v700h93l369 -486v486h116v-700zM708 484q0 78 51.5 127.5t132.5 49.5q82 0 133.5 -49.5t51.5 -127.5t-51.5 -128t-133.5 -50q-81 0 -132.5 50t-51.5 128zM814 484q0 -36 23 -58.5t55 -22.5q35 0 57.5 22.5t22.5 58.5q0 35 -23.5 57.5
t-56.5 22.5t-55.5 -22t-22.5 -58zM732 154v102h322v-102h-322z" />
    <glyph glyph-name="trademark" unicode="&#x2122;" horiz-adv-x="831" 
d="M369 353v347h92l115 -132l110 132h92v-347h-114v170l-89 -108h-3l-89 108v-170h-114zM11 600v100h330v-100h-95v-247h-114v247h-121z" />
    <glyph glyph-name="partialdiff" unicode="&#x2202;" horiz-adv-x="592" 
d="M25 234q0 64 19.5 117.5t54.5 91t83.5 57.5t103.5 20q51 0 93.5 -22t63.5 -59q-2 54 -31 92.5t-83 59.5t-131 15l17 105q339 0 339 -323q0 -82 -18.5 -155t-54.5 -127.5t-90 -85.5t-122 -31q-54 0 -99.5 18.5t-77.5 52t-49.5 78.5t-17.5 96zM146 237q0 -44 16.5 -75.5
t46 -48.5t63.5 -17q62 0 104 55t49 138q-13 55 -49.5 90t-82.5 35q-21 0 -45.5 -8.5t-47 -29.5t-38.5 -56t-16 -83z" />
    <glyph glyph-name="product" unicode="&#x220f;" horiz-adv-x="882" 
d="M658 -200v784h-434v-784h-124v900h682v-900h-124z" />
    <glyph glyph-name="summation" unicode="&#x2211;" horiz-adv-x="640" 
d="M323 250l-283 364v86h560v-116h-387l253 -334l-261 -334h395v-116h-560v86z" />
    <glyph glyph-name="minus" unicode="&#x2212;" horiz-adv-x="566" 
d="M44 309v101h478v-101h-478z" />
    <glyph glyph-name="uni2215" unicode="&#x2215;" horiz-adv-x="332" 
d="M-150 48l549 672l83 -66l-547 -676z" />
    <glyph glyph-name="radical" unicode="&#x221a;" horiz-adv-x="605" 
d="M1 367v104h178l134 -277l108 506h294v-97h-207l-140 -608h-75l-191 372h-101z" />
    <glyph glyph-name="infinity" unicode="&#x221e;" horiz-adv-x="701" 
d="M510 179q-86 0 -159 79q-28 -32 -60.5 -52t-74.5 -24q-43 -5 -88 13.5t-71 59.5t-26 87q0 48 24.5 85.5t61.5 57.5t84 20q33 0 69 -16t79 -62q62 69 141 75q37 4 70 -5.5t57.5 -31t38.5 -54.5t14 -73q0 -26 -11 -59t-37 -57t-54.5 -33.5t-57.5 -9.5zM502 406
q-19 0 -39.5 -12t-47.5 -49q25 -32 47 -49.5t45 -17.5q24 0 38.5 19t14.5 42q0 29 -15 48t-43 19zM202 278q17 0 36.5 12.5t46.5 49.5q-24 32 -43.5 49t-38.5 17q-27 0 -44.5 -18.5t-17.5 -45.5q0 -29 19.5 -46.5t41.5 -17.5z" />
    <glyph glyph-name="integral" unicode="&#x222b;" horiz-adv-x="343" 
d="M88 537q0 66 22.5 110t62.5 67.5t96 23.5q41 0 77.5 -16.5t56.5 -44.5l-64 -72q-22 27 -64 27q-74 0 -74 -98v-541q0 -66 -22.5 -110t-62.5 -67.5t-96 -23.5q-41 0 -77.5 16.5t-56.5 44.5l64 73q23 -28 64 -28q35 0 54.5 24.5t19.5 74.5v540z" />
    <glyph glyph-name="approxequal" unicode="&#x2248;" horiz-adv-x="576" 
d="M85 375l-46 76q31 34 68.5 52t68.5 18q40 0 98 -25t79.5 -29t35.5 -4q53 0 104 48l44 -73q-34 -33 -71.5 -50t-70.5 -17q-46 0 -103.5 24t-76.5 27.5t-28 3.5q-46 0 -102 -51zM85 191l-46 76q31 34 68.5 52t68.5 18q40 0 96 -24t77.5 -29.5t39.5 -5.5q52 0 104 49l44 -73
q-34 -33 -71.5 -50.5t-70.5 -17.5q-28 0 -53 7t-76 28t-79 21q-46 0 -102 -51z" />
    <glyph glyph-name="notequal" unicode="&#x2260;" horiz-adv-x="566" 
d="M51 402v99h224l81 216l101 -33l-68 -183h127v-99h-165l-32 -86h197v-99h-232l-89 -237l-100 38l76 199h-120v99h154l32 86h-186z" />
    <glyph glyph-name="lessequal" unicode="&#x2264;" horiz-adv-x="498" 
d="M42 245v116l400 -249v-119zM442 184l-400 253v47l400 249v-123l-243 -150l243 -153v-123z" />
    <glyph glyph-name="greaterequal" unicode="&#x2265;" horiz-adv-x="498" 
d="M442 361v-116l-400 -252v119zM442 437l-400 -253v123l243 153l-243 150v123l400 -249v-47z" />
    <glyph glyph-name="lozenge" unicode="&#x25ca;" horiz-adv-x="485" 
d="M194 -3l-167 255l168 268h96l167 -257l-168 -266h-96zM145 253l97 -150l98 160l-98 146z" />
    <glyph glyph-name="uniF350" unicode="&#xf350;" horiz-adv-x="605" 
d="M-2 0l261 560h88l261 -560h-123l-53 109h-261l-53 -109h-120zM301 387l-89 -179h177z" />
    <glyph glyph-name="uniF351" unicode="&#xf351;" horiz-adv-x="565" 
d="M499 560v-109h-324v-101h156q104 0 157 -45t53 -126q0 -179 -245 -179h-238v560h441zM307 241h-132v-132h127q59 0 88 16.5t29 52.5q0 33 -26.5 48t-85.5 15z" />
    <glyph glyph-name="uniF352" unicode="&#xf352;" horiz-adv-x="575" 
d="M58 0v560h259q70 0 115 -15.5t68 -46.5t23 -80q0 -77 -64 -122q84 -32 84 -130q0 -53 -26 -89.5t-76.5 -56.5t-129.5 -20h-253zM307 233h-132v-124h125q64 0 93 15t29 48q0 31 -27 46t-88 15zM299 451h-124v-112h135q43 0 67.5 14t24.5 38q0 31 -23 45.5t-80 14.5z" />
    <glyph glyph-name="uniF353" unicode="&#xf353;" horiz-adv-x="497" 
d="M58 0v560h439v-109h-322v-451h-117z" />
    <glyph glyph-name="uniF354" unicode="&#xf354;" horiz-adv-x="634" 
d="M0 -105v214h64q63 120 63 380v71h428v-451h71v-214h-114v105h-399v-105h-113zM240 451v-38q0 -97 -14.5 -178.5t-38.5 -125.5h251v342h-198z" />
    <glyph glyph-name="uniF355" unicode="&#xf355;" horiz-adv-x="550" 
d="M58 0v560h448v-109h-331v-114h309v-106h-309v-122h339v-109h-456z" />
    <glyph glyph-name="uniF356" unicode="&#xf356;" horiz-adv-x="814" 
d="M235 305l-236 255h147l202 -217v217h117v-218l206 218h144l-239 -254l240 -306h-140l-188 240l-23 -20v-220h-117v219l-22 23l-189 -242h-138z" />
    <glyph glyph-name="uniF357" unicode="&#xf357;" horiz-adv-x="554" 
d="M284 -8q-96 0 -166 28.5t-115 94.5l92 63q32 -39 77.5 -58t108.5 -19t95 20.5t32 50.5q0 59 -132 59h-96v109h91q53 0 85 16.5t32 43.5q0 28 -31.5 43.5t-86.5 15.5q-46 0 -88 -17t-69 -47l-91 62q40 52 104.5 81.5t155.5 29.5q46 0 87 -11t71.5 -32t48 -51t17.5 -67
q0 -35 -18 -65t-52 -48q44 -16 67 -48t23 -73q0 -84 -65.5 -132.5t-176.5 -48.5z" />
    <glyph glyph-name="uniF358" unicode="&#xf358;" horiz-adv-x="638" 
d="M154 0h-96v560h117v-351l307 351h98v-560h-117v352z" />
    <glyph glyph-name="uniF359" unicode="&#xf359;" horiz-adv-x="638" 
d="M154 0h-96v560h117v-351l307 351h98v-560h-117v352zM145 761h105q1 -31 19.5 -49.5t52.5 -18.5q33 0 50.5 18.5t17.5 49.5h104q-1 -27 -10 -55t-33.5 -53t-59.5 -36.5t-69 -11.5q-56 0 -95.5 20.5t-60 54.5t-21.5 81z" />
    <glyph glyph-name="uniF35A" unicode="&#xf35a;" horiz-adv-x="588" 
d="M58 0v560h117v-225l249 225h153l-265 -249l282 -311h-154l-217 233l-48 -43v-190h-117z" />
    <glyph glyph-name="uniF35B" unicode="&#xf35b;" horiz-adv-x="614" 
d="M439 0v451h-193v-65q0 -192 -53.5 -290.5t-158.5 -98.5l-34 2v113q49 -6 77 31t40 111t12 177v129h427v-560h-117z" />
    <glyph glyph-name="uniF35C" unicode="&#xf35c;" horiz-adv-x="720" 
d="M58 0v560h101l206 -242l198 242h100v-560h-117v363l-168 -207h-30l-173 208v-364h-117z" />
    <glyph glyph-name="uniF35D" unicode="&#xf35d;" horiz-adv-x="638" 
d="M463 0v228h-288v-228h-117v560h117v-222h288v222h117v-560h-117z" />
    <glyph glyph-name="uniF35E" unicode="&#xf35e;" horiz-adv-x="665" 
d="M27 280q0 58 23.5 111t65.5 92t98.5 61t118.5 22t118 -21.5t98 -60t65.5 -91.5t23.5 -113t-23.5 -113t-65.5 -91.5t-98 -60t-118 -21.5t-118 21.5t-98.5 60t-66 91.5t-23.5 113zM149 280q0 -48 24.5 -89.5t69 -62.5t90.5 -21q28 0 58.5 8t58 28t47 54.5t19.5 82.5
t-22.5 86t-64.5 62.5t-96 24.5q-36 0 -69.5 -12t-59.5 -34.5t-40.5 -55t-14.5 -71.5z" />
    <glyph glyph-name="uniF35F" unicode="&#xf35f;" horiz-adv-x="636" 
d="M461 0v451h-286v-451h-117v560h520v-560h-117z" />
    <glyph glyph-name="uniF360" unicode="&#xf360;" horiz-adv-x="581" 
d="M175 0h-117v560h246q121 0 185.5 -48.5t64.5 -141.5q0 -57 -29 -99.5t-84 -66.5t-137 -24h-129v-180zM308 451h-133v-162h127q65 0 97.5 21.5t32.5 60.5q0 37 -30 58.5t-94 21.5z" />
    <glyph glyph-name="uniF361" unicode="&#xf361;" horiz-adv-x="590" 
d="M511 179l68 -75q-37 -52 -103 -81t-143 -29q-68 0 -125.5 20.5t-97.5 58t-61.5 91t-21.5 116.5q0 59 22 111.5t62.5 91.5t97.5 61t124 22q37 0 83.5 -9t88.5 -34t65 -58l-78 -73q-27 30 -67.5 45.5t-84.5 15.5q-87 0 -139 -46.5t-52 -126.5q0 -28 9.5 -58t33 -55.5
t61 -42.5t89.5 -17t95.5 18.5t73.5 53.5z" />
    <glyph glyph-name="uniF362" unicode="&#xf362;" horiz-adv-x="515" 
d="M4 451v109h507v-109h-195v-451h-117v451h-195z" />
    <glyph glyph-name="uniF363" unicode="&#xf363;" horiz-adv-x="609" 
d="M168 13l44 102q7 -5 18 -5q27 0 47 33l3 5l-280 412h144l196 -292l147 292h123l-218 -429q-34 -66 -71 -98.5t-88 -32.5q-40 0 -65 13z" />
    <glyph glyph-name="uniF364" unicode="&#xf364;" horiz-adv-x="757" 
d="M319 -12v65h-2q-65 0 -120 16.5t-94 48t-60 75t-21 95.5q0 55 22.5 99t62.5 74t94.5 45.5t117.5 16.5v49h117v-49q44 0 93.5 -10t89 -32t64 -50t38.5 -64.5t14 -78.5q0 -51 -21 -95t-60.5 -75t-94.5 -48t-119 -17h-4v-65h-117zM437 413h-1v-250h4q59 0 97.5 16t57.5 43
t19 66q0 61 -44 93t-133 32zM143 288q0 -53 46 -89t129 -36h1v250q-82 0 -129 -31.5t-47 -93.5z" />
    <glyph glyph-name="uniF365" unicode="&#xf365;" horiz-adv-x="590" 
d="M580 560l-215 -276l222 -284h-143l-149 189l-150 -189h-142l223 284l-214 276h141l143 -180l143 180h141z" />
    <glyph glyph-name="uniF366" unicode="&#xf366;" horiz-adv-x="636" 
d="M58 0v560h117v-451h265v451h117v-451h70v-214h-114v105h-455z" />
    <glyph glyph-name="uniF367" unicode="&#xf367;" horiz-adv-x="597" 
d="M540 560v-560h-118v214q-26 -13 -69.5 -22.5t-84.5 -9.5q-77 0 -128 23t-78 65t-27 103v187h118v-115q0 -84 31.5 -118.5t100.5 -34.5q16 0 45 4t53.5 13.5t38.5 17.5v233h118z" />
    <glyph glyph-name="uniF368" unicode="&#xf368;" horiz-adv-x="789" 
d="M58 0v560h117v-451h161v451h117v-451h161v451h117v-560h-673z" />
    <glyph glyph-name="uniF369" unicode="&#xf369;" horiz-adv-x="810" 
d="M58 0v560h117v-451h161v451h117v-451h161v451h117v-451h71v-214h-114v105h-630z" />
    <glyph glyph-name="uniF36A" unicode="&#xf36a;" horiz-adv-x="637" 
d="M0 451v109h251v-189h121q247 0 247 -183q0 -94 -66.5 -141t-188.5 -47h-230v451h-134zM370 261h-119v-152h117q65 0 97 18t32 61q0 73 -127 73z" />
    <glyph glyph-name="uniF36B" unicode="&#xf36b;" horiz-adv-x="742" 
d="M568 0v560h117v-560h-117zM272 261h-97v-152h95q66 0 98 18t32 61q0 73 -128 73zM175 560v-189h99q121 0 184.5 -49t63.5 -134q0 -92 -67 -140t-188 -48h-209v560h117z" />
    <glyph glyph-name="uniF36C" unicode="&#xf36c;" horiz-adv-x="564" 
d="M297 261h-122v-152h120q63 0 96 20t33 59q0 73 -127 73zM175 560v-189h124q123 0 185 -46.5t62 -136.5q0 -92 -66.5 -140t-187.5 -48h-234v560h117z" />
    <glyph glyph-name="uniF36D" unicode="&#xf36d;" horiz-adv-x="598" 
d="M174 231v109h275q-6 25 -26 53t-62 46t-97 18q-47 0 -96 -18t-81 -55l-78 75q42 52 112.5 79.5t147.5 27.5q68 0 124.5 -20t96 -57t60.5 -90t21 -117q0 -61 -20.5 -114.5t-60.5 -92t-98.5 -60t-129.5 -21.5q-86 0 -152.5 30.5t-106.5 86.5l78 67q15 -19 41.5 -37.5
t65.5 -28t78 -9.5q76 0 125.5 35t58.5 93h-276z" />
    <glyph glyph-name="uniF36E" unicode="&#xf36e;" horiz-adv-x="861" 
d="M58 0v560h117v-225h74q8 49 33 92t63.5 74t88 48t105.5 17q65 0 120 -21t94 -59.5t60 -91.5t21 -114q0 -60 -22 -113t-62 -91.5t-94.5 -60t-116.5 -21.5q-119 0 -198 64.5t-93 176.5h-73v-235h-117zM364 280q0 -29 9 -59.5t30.5 -56.5t55.5 -43.5t80 -17.5q79 0 126 48.5
t47 128.5t-48 128.5t-125 48.5q-76 0 -125.5 -49t-49.5 -128z" />
    <glyph glyph-name="uniF36F" unicode="&#xf36f;" horiz-adv-x="591" 
d="M417 0v188h-117l-160 -188h-139l180 209q-65 19 -101.5 61t-36.5 102q0 50 27 95t85.5 69t132.5 24h246v-560h-117zM273 297h144v154h-136q-117 0 -117 -78q0 -31 30.5 -53t78.5 -23z" />
    <glyph glyph-name="uniF371" unicode="&#xf371;" horiz-adv-x="550" 
d="M107 656q0 24 19 41t47 17q23 0 43 -17t20 -41q0 -25 -19.5 -42t-43.5 -17q-28 0 -47 16.5t-19 42.5zM316 656q0 24 19.5 41t45.5 17q24 0 43 -17t19 -41q0 -26 -19 -42.5t-43 -16.5q-27 0 -46 16.5t-19 42.5zM58 0v560h448v-109h-331v-114h309v-106h-309v-122h339v-109
h-456z" />
    <glyph glyph-name="uniF372" unicode="&#xf372;" horiz-adv-x="497" 
d="M58 0v560h439v-109h-322v-451h-117zM417 769l-127 -158l-76 54l118 168z" />
    <glyph glyph-name="uniF373" unicode="&#xf373;" horiz-adv-x="894" 
d="M638 257h-92v-148h88q60 0 90.5 18t30.5 61q0 37 -29 53t-88 16zM546 560v-194h94q236 0 236 -178q0 -91 -66 -139.5t-180 -48.5h-201v451h-183v-65q0 -192 -53.5 -290.5t-158.5 -98.5l-34 2v113q49 -6 77 31t40 111t12 177v129h417z" />
    <glyph glyph-name="uniF374" unicode="&#xf374;" horiz-adv-x="890" 
d="M547 353h94q116 0 173.5 -44.5t57.5 -128.5q0 -91 -63 -135.5t-177 -44.5h-202v243h-255v-243h-117v560h117v-207h255v207h117v-207zM639 243h-92v-134h88q61 0 88.5 15t27.5 56q0 36 -26.5 49.5t-85.5 13.5z" />
    <glyph glyph-name="uniF375" unicode="&#xf375;" horiz-adv-x="588" 
d="M58 0v560h117v-225l249 225h153l-265 -249l282 -311h-154l-217 233l-48 -43v-190h-117zM411 769l-127 -158l-76 54l118 168z" />
    <glyph glyph-name="uniF376" unicode="&#xf376;" horiz-adv-x="627" 
d="M0 451v109h504v-109h-195v-116q50 29 106 29q64 0 104 -23t60 -64.5t20 -103.5v-173h-117v158q0 40 -20.5 68t-63.5 28q-23 0 -48 -10t-41 -28v-216h-117v451h-192z" />
    <glyph glyph-name="uniF377" unicode="&#xf377;" horiz-adv-x="628" 
d="M58 0v560h117v-451h279v451h117v-560h-200v-111h-114v111h-199z" />
    <glyph glyph-name="uniF378" unicode="&#xf378;" horiz-adv-x="415" 
d="M361 560v-383q0 -87 -49.5 -135t-131.5 -48q-62 0 -111 26.5t-76 79.5l86 66q43 -64 91 -63q39 0 56.5 21.5t17.5 75.5v360h117z" />
    <glyph glyph-name="uniF379" unicode="&#xf379;" horiz-adv-x="498" 
d="M58 0v560h329v93h110v-202h-322v-451h-117z" />
    <glyph glyph-name="uniF37A" unicode="&#xf37a;" horiz-adv-x="586" 
d="M412 340v-109h-266q8 -41 33 -69.5t65.5 -43.5t90.5 -15q25 0 54 8t54 27t42 43l90 -47q-17 -43 -53 -73.5t-83 -48.5t-94 -18q-70 0 -129 20.5t-101.5 58t-65 91t-22.5 116.5q0 60 22 113t63.5 91.5t99.5 60t127 21.5q43 0 92 -14t82 -38t50 -51l-86 -63
q-22 27 -60.5 42t-84.5 15q-67 0 -117 -30.5t-66 -86.5h263z" />
    <glyph glyph-name="uniF37B" unicode="&#xf37b;" horiz-adv-x="243" 
d="M63 0v560h117v-560h-117z" />
    <glyph glyph-name="uniF37C" unicode="&#xf37c;" horiz-adv-x="243" 
d="M-16 645q0 23 18 38.5t44 15.5q24 0 42.5 -16t18.5 -38q0 -24 -18.5 -39.5t-42.5 -15.5q-26 0 -44 15.5t-18 39.5zM135 645q0 23 18.5 38.5t43.5 15.5q24 0 42.5 -16t18.5 -38q0 -24 -18.5 -39.5t-42.5 -15.5q-26 0 -44 15.5t-18 39.5zM63 0v560h117v-560h-117z" />
    <glyph glyph-name="uniF37E" unicode="&#xf37e;" horiz-adv-x="609" 
d="M168 13l44 102q7 -5 18 -5q27 0 47 33l3 5l-280 412h144l196 -292l147 292h123l-218 -429q-34 -66 -71 -98.5t-88 -32.5q-40 0 -65 13zM144 761h105q1 -31 19.5 -49.5t52.5 -18.5q33 0 50.5 18.5t17.5 49.5h104q-1 -27 -10 -55t-33.5 -53t-59.5 -36.5t-69 -11.5
q-56 0 -95.5 20.5t-60 54.5t-21.5 81z" />
    <glyph glyph-name="uniF37F" unicode="&#xf37f;" horiz-adv-x="539" 
d="M396 155q0 19 -19 36t-96.5 36t-112 30t-60 26t-41 32t-24 39.5t-8.5 49.5q0 41 30 80t87 60.5t120 21.5q156 0 229 -76l-62 -86q-74 53 -178 53q-105 0 -105 -51q0 -8 6 -18.5t28 -21.5t99 -29.5t113 -33t60.5 -33t39.5 -45.5t15 -62q0 -27 -11.5 -56.5t-39.5 -54
t-73.5 -41.5t-108.5 -17q-37 0 -87 9.5t-100.5 34t-78.5 55.5l64 87q104 -77 218 -77q48 0 72 14t24 38z" />
    <glyph glyph-name="uniF381" unicode="&#xf381;" horiz-adv-x="609" 
d="M0 392v109h103v59h117v-59h188v-109h-188v-50h124q126 0 186.5 -40.5t60.5 -128.5q0 -90 -65 -131.5t-189 -41.5h-234v392h-103zM342 232h-122v-123h120q68 0 98.5 13.5t30.5 50.5q0 35 -29.5 47t-97.5 12z" />
    <glyph glyph-name="uniF389" unicode="&#xf389;" horiz-adv-x="665" 
d="M27 280q0 58 23.5 111t65.5 92t98.5 61t118.5 22t118 -21.5t98 -60t65.5 -91.5t23.5 -113t-23.5 -113t-65.5 -91.5t-98 -60t-118 -21.5t-118 21.5t-98.5 60t-66 91.5t-23.5 113zM333 107q62 0 111 32.5t65 87.5h-353q17 -55 66.5 -87.5t110.5 -32.5zM333 453
q-44 0 -84 -18t-62 -45.5t-30 -53.5h350q-9 26 -31 53.5t-61.5 45.5t-81.5 18z" />
    <glyph glyph-name="uniF38A" unicode="&#xf38a;" horiz-adv-x="654" 
d="M550 399l-194 -399h-81l-282 560h127l197 -390l133 279q27 58 66.5 88t83.5 30q42 0 78 -26l-44 -96q-10 7 -25 7q-34 -2 -59 -53z" />
    <glyph glyph-name="uniF393" unicode="&#xf393;" horiz-adv-x="646" 
d="M501 162q0 45 -25 68.5t-67 24.5q-32 0 -59 -13t-41 -33v-209h-117v451h-192v109h504v-109h-195v-119q18 14 50.5 23t71.5 9q57 0 99 -21.5t65.5 -61.5t23.5 -100t-21.5 -101t-60 -64t-87.5 -23q-36 0 -64.5 13.5t-44.5 35.5l63 79q10 -10 19.5 -14.5t25.5 -4.5
q24 0 38 16.5t14 43.5z" />
    <glyph glyph-name="uniF3CF" unicode="&#xf3cf;" horiz-adv-x="966" 
d="M555 0h-89l-295 351v-351h-112v560h89l295 -353v353h112v-560zM594 384q0 64 44 105t115 41t115.5 -40.5t44.5 -105.5t-44.5 -106t-115.5 -41t-115 41t-44 106zM696 384q0 -24 16.5 -39t40.5 -15q27 0 43 15t16 39q0 22 -17.5 37t-41.5 15q-25 0 -41 -14.5t-16 -37.5z
M612 104v98h284v-98h-284z" />
    <glyph glyph-name="uniF3D0" unicode="&#xf3d0;" horiz-adv-x="501" 
d="M152 761h105q1 -31 19.5 -49.5t52.5 -18.5q33 0 50.5 18.5t17.5 49.5h104q-1 -27 -10 -55t-33.5 -53t-59.5 -36.5t-69 -11.5q-56 0 -95.5 20.5t-60 54.5t-21.5 81z" />
    <glyph glyph-name="uniF3E4" unicode="&#xf3e4;" horiz-adv-x="0" 
d="M-188 769l-127 -158l-76 54l118 168z" />
    <glyph glyph-name="uniF400" unicode="&#xf400;" horiz-adv-x="0" 
d="M-168 755l-127 -157l-77 54l118 167z" />
    <glyph glyph-name="uniF401" unicode="&#xf401;" horiz-adv-x="0" 
d="M-198 849l-220 -104l-43 76l210 128z" />
    <glyph glyph-name="uniF406" unicode="&#xf406;" horiz-adv-x="562" 
d="M182 865l52 59q56 -61 143 -61q45 0 81 17.5t59 43.5l45 -58q-19 -31 -53 -57.5t-69.5 -37t-62.5 -10.5q-32 0 -70.5 11.5t-72 37.5t-52.5 55z" />
    <glyph glyph-name="uniF407" unicode="&#xf407;" horiz-adv-x="521" 
d="M252 -163l41 56q13 -10 35 -17.5t44 -7.5q39 0 39 21q0 23 -50 23h-12v88h63v-32q55 -3 82 -25.5t27 -59.5q0 -40 -32 -65t-97 -25q-90 0 -140 44z" />
    <glyph glyph-name="uniF408" unicode="&#xf408;" horiz-adv-x="531" 
d="M353 929l184 -111l-47 -69l-139 73l-138 -73l-40 67l176 113h4z" />
    <glyph glyph-name="uniF409" unicode="&#xf409;" horiz-adv-x="449" 
d="M310 -100l94 62q20 -16 32.5 -38.5t12.5 -48.5q0 -25 -10.5 -55.5t-33.5 -56.5t-48 -41l-53 41q15 15 25 36.5t10 41.5q0 28 -29 59z" />
    <glyph glyph-name="uniF40A" unicode="&#xf40a;" horiz-adv-x="198" 
d="M58 677l95 60q45 -38 45 -100q0 -25 -11.5 -56t-38.5 -60t-58 -49l-49 45q22 18 34.5 41.5t12.5 45.5q0 19 -9 39t-21 34z" />
    <glyph glyph-name="uniF40B" unicode="&#xf40b;" horiz-adv-x="450" 
d="M317 827q0 25 19 42.5t48 17.5q27 0 46.5 -17.5t19.5 -42.5q0 -26 -19 -44t-47 -18q-30 0 -48.5 17.5t-18.5 44.5z" />
    <glyph glyph-name="uniF40C" unicode="&#xf40c;" horiz-adv-x="522" 
d="M244 838q0 34 16.5 57.5t47.5 37.5t73 14q44 0 76.5 -14t49 -37.5t16.5 -57.5q0 -33 -16 -56.5t-48.5 -39t-77.5 -15.5q-59 0 -98 29.5t-39 81.5zM331 838q0 -21 14 -33t38 -12t38.5 12t14.5 33q0 20 -14.5 31t-38.5 11t-38 -11t-14 -31z" />
    <glyph glyph-name="uniF40D" unicode="&#xf40d;" horiz-adv-x="557" 
d="M226 779l-36 72q21 25 53.5 40.5t61.5 15.5q30 0 74.5 -18t70.5 -18q47 0 76 31l31 -72q-20 -29 -51 -44.5t-66 -15.5q-25 0 -72 18t-76 18q-33 0 -66 -27z" />
    <glyph glyph-name="uniF40E" unicode="&#xf40e;" horiz-adv-x="462" 
d="M443 -97l31 -73q-13 -12 -41.5 -21t-59.5 -9q-55 -1 -94 23t-39 70q0 23 12.5 46t46 44t80 30t83.5 9v-22q-30 0 -58 -13t-39.5 -29t-11.5 -28q0 -14 10 -25.5t34 -11.5q25 0 46 10z" />
    <glyph glyph-name="uniF410" unicode="&#xf410;" horiz-adv-x="0" 
d="M-272 745l-219 104l53 100l210 -128z" />
    <glyph glyph-name="uniF416" unicode="&#xf416;" horiz-adv-x="399" 
d="M260 -100l94 62q20 -16 32.5 -38.5t12.5 -48.5q0 -25 -10.5 -55.5t-33.5 -56.5t-48 -41l-53 41q15 15 25 36.5t10 41.5q0 28 -29 59z" />
    <glyph glyph-name="uniF418" unicode="&#xf418;" horiz-adv-x="198" 
d="M58 517l95 60q45 -38 45 -100q0 -25 -11.5 -56t-38.5 -60t-58 -49l-49 45q22 18 34.5 41.5t12.5 45.5q0 19 -9 39t-21 34z" />
    <glyph glyph-name="uniF447" unicode="&#xf447;" horiz-adv-x="515" 
d="M136 -166l35 59q14 -11 35 -18t43 -7q39 0 39 21q0 23 -49 23h-13v88h-27v451h-195v109h507v-109h-195v-451h-27v-32q49 -3 76 -25.5t27 -59.5q0 -29 -20 -51t-51.5 -30.5t-65.5 -8.5q-67 0 -119 41z" />
    <glyph glyph-name="uniF44E" unicode="&#xf44e;" horiz-adv-x="649" 
d="M22 246q0 21 5 50t11 44h461q-6 25 -26 53t-62 46t-97 18q-33 0 -69.5 -9.5t-64 -27.5t-43.5 -36l-78 75q42 52 112.5 79.5t147.5 27.5q139 0 220.5 -77t81.5 -207q0 -61 -20.5 -114.5t-60.5 -92t-97.5 -60t-128.5 -21.5t-127.5 22t-92.5 59t-54 82t-18 89zM501 231h-361
q9 -58 53.5 -93t123.5 -35q37 0 77.5 11.5t70.5 42.5t36 74z" />
    <glyph glyph-name="uniF452" unicode="&#xf452;" horiz-adv-x="756" 
d="M58 0v560h443v-109h-326v-133h305v-109h-305v-209h-117zM576 0v560h117v-560h-117z" />
    <glyph glyph-name="uniF453" unicode="&#xf453;" horiz-adv-x="1030" 
d="M58 0v560h443v-109h-326v-133h305v-109h-305v-209h-117zM575 0v560h117v-451h329v-109h-446z" />
    <glyph glyph-name="uniF4E0" unicode="&#xf4e0;" 
d="M36 350q0 76 18 142t52.5 114t86 74.5t115.5 26.5q65 0 117 -26.5t87 -74.5t52.5 -113.5t17.5 -142.5q0 -36 -6 -82t-22.5 -92t-47.5 -88t-82 -68.5t-114 -26.5q-62 0 -113.5 26.5t-87.5 74.5t-54.5 114t-18.5 142zM160 350q0 -115 39.5 -178.5t110.5 -63.5q68 0 108 64
t40 178q0 115 -39.5 178.5t-110.5 63.5q-70 0 -109 -64t-39 -178z" />
    <glyph glyph-name="uniF4E1" unicode="&#xf4e1;" 
d="M71 0v112h241v447l-209 -93l-41 100l290 136h76v-590h143v-112h-500z" />
    <glyph glyph-name="uniF4E2" unicode="&#xf4e2;" 
d="M135 478l-105 42q26 89 101 138t178 49q118 0 185 -57t67 -150q0 -99 -57.5 -173.5t-194.5 -168.5l-80 -46h354v-112h-543v89l158 115q3 3 9.5 7.5t48.5 37t72.5 59.5t53.5 53.5t39 57t16 62.5q0 24 -11.5 50t-43 43t-75.5 17q-35 0 -69 -12t-61 -39t-42 -62z" />
    <glyph glyph-name="uniF4E3" unicode="&#xf4e3;" 
d="M151 500l-103 46q26 75 99.5 119t163.5 44q54 0 100.5 -12.5t80.5 -35.5t53 -56t19 -72q0 -59 -31.5 -102.5t-81.5 -57.5q22 -5 52 -21t53 -52t23 -91q0 -49 -20.5 -89.5t-57 -69t-84.5 -43.5t-101 -15q-39 0 -84 9.5t-84.5 31t-69 55.5t-44.5 78l110 46q10 -22 32 -47
t57.5 -41t72.5 -16q63 0 105.5 27t42.5 73t-39.5 70.5t-130.5 24.5h-68v110h72q67 0 109.5 27.5t42.5 67.5t-39.5 63.5t-99.5 23.5q-99 0 -150 -95z" />
    <glyph glyph-name="uniF4E4" unicode="&#xf4e4;" 
d="M401 0v133h-376v78l393 489h100v-460h89v-107h-89v-133h-117zM185 240h216v269z" />
    <glyph glyph-name="uniF4E5" unicode="&#xf4e5;" 
d="M58 317l32 383h457v-113h-351l-15 -155q50 25 124 25q125 0 193.5 -63t68.5 -167q0 -52 -20 -96t-56 -75t-86 -47.5t-107 -16.5q-15 0 -50.5 3.5t-69 15.5t-60.5 29t-53 46.5t-42 75.5l112 41q13 -33 43.5 -56t65 -31t60.5 -8q32 0 64 10.5t53.5 39t21.5 65.5
q0 59 -40.5 92t-111.5 33q-82 0 -132 -41z" />
    <glyph glyph-name="uniF4E6" unicode="&#xf4e6;" 
d="M32 331q0 91 22.5 163t64.5 119.5t100 71.5t128 24q57 0 107 -18t101 -73l-67 -85q-42 37 -75 48t-68 11q-42 0 -78 -14t-61.5 -42t-39.5 -70t-14 -95q34 50 82 78.5t110 28.5q55 0 101 -16.5t78.5 -48t50 -75.5t17.5 -96q0 -54 -19.5 -101t-54.5 -80.5t-83 -51.5
t-103 -18q-65 0 -120.5 22.5t-95.5 66t-61.5 107.5t-21.5 144zM171 255q7 -45 25 -78t52.5 -51.5t87.5 -18.5q30 0 60.5 11.5t50.5 43t20 74.5q0 62 -35.5 95.5t-100.5 33.5q-32 0 -65.5 -13.5t-60 -41.5t-34.5 -55z" />
    <glyph glyph-name="uniF4E7" unicode="&#xf4e7;" 
d="M39 587v113h544v-76l-330 -624h-127l314 587h-401z" />
    <glyph glyph-name="uniF4E8" unicode="&#xf4e8;" 
d="M296 411h29q25 0 53 8.5t46 31.5t18 55q0 46 -31 69t-102 23q-63 0 -97.5 -24t-34.5 -67t30 -69.5t89 -26.5zM323 308h-24q-64 0 -104 -29.5t-40 -72.5q0 -49 40.5 -77t114.5 -28q68 0 111 27t43 76q0 48 -37.5 76t-103.5 28zM311 -8q-131 0 -205.5 54t-74.5 149
q0 57 31 102.5t86 65.5q-23 12 -46 33t-36 53t-13 69q0 64 33 106t89 63t135 21q48 0 95.5 -9t83 -31.5t57 -59t21.5 -88.5q0 -24 -10 -55t-36 -59t-59 -41q127 -32 127 -166q0 -97 -75.5 -152t-202.5 -55z" />
    <glyph glyph-name="uniF4E9" unicode="&#xf4e9;" 
d="M590 369q0 -92 -21.5 -164.5t-60.5 -119.5t-92.5 -70.5t-116.5 -23.5q-36 0 -78.5 9t-79.5 31t-64 51l67 85q42 -37 75 -48t68 -11q85 0 133.5 55.5t48.5 151.5q-27 -41 -75 -65t-111 -24q-112 0 -179 64.5t-67 167.5q0 40 11 77t31.5 67.5t49 52.5t70.5 38t97 16
q140 0 217 -88.5t77 -251.5zM455 432q-1 37 -17 75.5t-53.5 62t-87.5 23.5q-60 0 -98 -36t-38 -93q0 -61 36.5 -95t99.5 -34q26 0 59.5 11t62.5 36t36 50z" />
    <glyph glyph-name="uniF4EC" unicode="&#xf4ec;" 
d="M475 190q0 40 -36.5 64t-126.5 46t-125.5 35.5t-60.5 29t-43.5 35.5t-29 48t-10.5 62q0 70 58 124t152 69v80h115v-78q66 -7 123.5 -32.5t96.5 -64.5l-66 -86q-45 37 -95.5 55t-112.5 18q-43 0 -76.5 -10t-51.5 -28t-18 -44q0 -19 11 -34.5t38.5 -30t116.5 -36.5t124 -36
t57 -27.5t40.5 -32.5t31.5 -48t13 -69q0 -51 -27 -94t-79.5 -73.5t-125.5 -37.5v-86h-115v91q-70 12 -132.5 45.5t-97.5 75.5l72 85q45 -47 110 -73.5t137 -26.5q29 0 61 7.5t52 28t20 49.5z" />
    <glyph glyph-name="uniF4ED" unicode="&#xf4ed;" 
d="M7 386l39 98h68q17 49 47.5 90t72 71t93.5 46.5t110 16.5q112 0 178 -46l-43 -91q-55 33 -135 33q-64 0 -115 -32t-78 -88h307l-37 -98h-299l-2 -49l1 -17h281l-32 -98h-226q16 -42 53.5 -73t80.5 -42.5t77 -11.5q25 0 62 8.5t60 23.5l30 -93q-21 -17 -66.5 -29.5
t-88.5 -12.5q-127 0 -214 60t-122 170h-100l37 98l47 1l-1 18q0 23 2 47h-87z" />
    <glyph glyph-name="uniF4EE" unicode="&#xf4ee;" 
d="M476 171l81 -52q-12 -24 -35.5 -50.5t-60.5 -46t-77 -26.5v-196h-120v198q-96 19 -153 89t-57 174q0 49 15 93t42.5 79t66.5 59t86 33v175h120v-173q57 -10 101.5 -40.5t65.5 -72.5l-85 -56q-41 54 -95 64v-323q64 10 105 72zM172 261q0 -53 28.5 -94.5t77.5 -58.5v309
q-48 -16 -77 -58t-29 -98z" />
    <glyph glyph-name="uniF4EF" unicode="&#xf4ef;" 
d="M77 260v96h57q-22 55 -27 72.5t-7 36t-2 35.5q0 29 10.5 63t40 70t77 55t97.5 19q62 0 118.5 -23t94.5 -66l-64 -91q-67 67 -151 67q-30 0 -55.5 -16t-35.5 -40t-10 -46q0 -15 4.5 -34.5t18.5 -55t18 -46.5h168v-96h-148l1 -21q0 -26 -8 -53.5t-21 -44.5q27 -1 86.5 -21
t89.5 -20q23 0 44.5 8.5t54.5 46.5l59 -79q-63 -77 -157 -77q-42 0 -113.5 22.5t-109.5 22.5q-64 0 -119 -54l-53 85q45 45 96 62q33 42 33 98l-2 25h-85z" />
    <glyph glyph-name="uniF4FA" unicode="&#xf4fa;" 
d="M83 302v99h95l-181 299h140l173 -299l177 299h135l-183 -299h96v-99h-166v-85h166v-99h-166v-118h-121v118h-165v99h165v85h-165z" />
    <glyph glyph-name="uniF4FB" unicode="&#xf4fb;" 
d="M390 481l-5 -24h144v-105h-162l-61 -342q-13 -74 -34 -119.5t-57.5 -72t-92.5 -26.5q-35 0 -67 13t-54 35l38 88q15 -14 34.5 -22t38.5 -8q60 0 76 89l66 365h-134v105h153l7 42q33 210 204 210q80 0 127 -40l-41 -90q-35 24 -78 24q-21 0 -41.5 -9t-35.5 -36.5
t-25 -76.5z" />
    <glyph glyph-name="uniF4FC" unicode="&#xf4fc;" 
d="M52 397v95h326q16 21 16 46q0 26 -23 42t-66 16q-94 0 -151 -44l-50 93q77 64 209 64q50 0 99.5 -19t77 -54.5t27.5 -74.5q0 -42 -20 -69h64v-95h-128q-5 -5 -22 -17t-55.5 -32t-46.5 -25h252v-95h-329q-23 -31 -23 -53q0 -26 18.5 -43t45.5 -22.5t50 -5.5q53 0 97 18
t69 44l54 -80q-28 -43 -95.5 -69t-132.5 -26q-73 0 -123.5 22.5t-76.5 59.5t-26 88q0 33 19 67h-56v95h120q34 20 78.5 42.5t59.5 31.5h-258z" />
    <glyph glyph-name="uniF4FD" unicode="&#xf4fd;" 
d="M28 295v106h103v299l111 1l78 1q86 0 144 -23t89 -67t31 -110q0 -67 -33 -113t-90.5 -70t-140.5 -24h-72v-65h168v-106h-168v-124h-117v124h-103v106h103v65h-103zM326 595h-78v-194h70q145 0 145 98q0 51 -35 73.5t-102 22.5z" />
    <glyph glyph-name="uniF655" unicode="&#xf655;" horiz-adv-x="483" 
d="M43 210q0 94 54 154t144 60q33 0 68 -10.5t64 -36.5t48 -68t19 -99q0 -94 -53.5 -154t-143.5 -60q-33 0 -68 10.5t-67.5 39.5t-48.5 73.5t-16 90.5zM149 210q0 -25 9 -53t32 -46t53 -18q41 0 66 30.5t25 86.5t-24 86.5t-69 30.5q-43 0 -67.5 -30.5t-24.5 -86.5z" />
    <glyph glyph-name="uniF656" unicode="&#xf656;" horiz-adv-x="315" 
d="M10 353l162 68h77v-421h-105v305l-97 -40z" />
    <glyph glyph-name="uniF657" unicode="&#xf657;" horiz-adv-x="421" 
d="M110 268l-75 46q22 53 70.5 81.5t111.5 28.5q71 0 113 -34t42 -89q0 -27 -11.5 -59.5t-39 -62t-62.5 -52.5l-52 -33h181v-94h-345v81l88 54q136 84 136 142q0 53 -59 53q-34 0 -59 -17t-39 -45z" />
    <glyph glyph-name="uniF658" unicode="&#xf658;" horiz-adv-x="429" 
d="M106 279l-70 54q19 30 49.5 52.5t65.5 31t65 8.5q33 0 72 -9t64 -34.5t25 -61.5q0 -34 -16 -57.5t-47 -38.5q21 -6 39 -20t26 -36t8 -43q0 -22 -9 -44.5t-30.5 -41.5t-56 -31.5t-81.5 -12.5q-43 0 -82 14t-64 39.5t-37 50.5l78 48q10 -26 39 -42t66 -16q71 0 71 41
t-73 41h-47v81h39q34 0 52.5 11t18.5 32q0 36 -57 36q-39 0 -63.5 -12.5t-44.5 -39.5z" />
    <glyph glyph-name="uniF659" unicode="&#xf659;" horiz-adv-x="453" 
d="M258 0v76h-246v73l258 271h87v-253h76v-91h-76v-76h-99zM133 167h125v126z" />
    <glyph glyph-name="uniF65A" unicode="&#xf65a;" horiz-adv-x="416" 
d="M61 171l21 249h278v-94h-195l-9 -57q22 5 57 5q74 0 117.5 -38t43.5 -99q0 -23 -9 -48t-30.5 -45.5t-55.5 -34.5t-79 -14q-57 0 -101.5 20.5t-71.5 60.5l74 60q14 -20 40 -33.5t54 -13.5q35 0 54.5 13.5t19.5 34.5q0 25 -24 39t-66 14q-51 0 -118 -19z" />
    <glyph glyph-name="uniF65B" unicode="&#xf65b;" horiz-adv-x="469" 
d="M43 199q0 41 11 81.5t37 72.5t67.5 52t98.5 20q94 0 151 -41l-42 -75q-45 25 -111 25q-23 0 -49 -9t-43 -32t-17 -54q46 46 120 46q80 0 124.5 -38.5t44.5 -101.5q0 -40 -22 -73t-64 -55t-99 -22q-67 0 -113.5 27.5t-70 72t-23.5 104.5zM159 157q2 -28 26.5 -48t63.5 -20
q37 0 59 15t22 41q0 25 -23.5 38.5t-60.5 13.5q-65 0 -87 -40z" />
    <glyph glyph-name="uniF65C" unicode="&#xf65c;" horiz-adv-x="386" 
d="M20 322v98h346v-75l-192 -345h-117l185 322h-222z" />
    <glyph glyph-name="uniF65D" unicode="&#xf65d;" horiz-adv-x="484" 
d="M232 256h20q27 0 44 10.5t17 30.5q0 15 -13.5 26t-58.5 11q-33 0 -51.5 -9.5t-18.5 -27.5q0 -20 16.5 -30.5t44.5 -10.5zM251 175h-17q-36 0 -57 -12t-21 -33t22.5 -32.5t63.5 -11.5q86 0 86 43q0 22 -20.5 34t-56.5 12zM242 -5q-51 0 -97 14.5t-70.5 44t-24.5 63.5
q0 33 18 59.5t50 41.5q-52 26 -52 89q0 53 49.5 85.5t126.5 32.5t126.5 -32.5t49.5 -85.5q0 -57 -53 -87q69 -24 69 -100q0 -58 -54.5 -91.5t-137.5 -33.5z" />
    <glyph glyph-name="uniF65E" unicode="&#xf65e;" horiz-adv-x="469" 
d="M425 221q0 -54 -16 -97t-45 -71.5t-68 -43t-84 -14.5q-94 0 -151 41l42 75q45 -25 110 -25q24 0 50 9t43 32t17 54q-46 -46 -120 -46q-80 0 -125 38.5t-45 101.5q0 40 22 73t64.5 55t99.5 22q44 0 82 -13.5t65.5 -39.5t43 -64.5t15.5 -86.5zM310 263q-2 28 -26.5 48
t-64.5 20q-36 0 -58 -15t-22 -41q0 -25 23.5 -38.5t59.5 -13.5q66 0 88 40z" />
    <glyph glyph-name="uniF661" unicode="&#xf661;" horiz-adv-x="483" 
d="M43 510q0 94 54 154t144 60q33 0 68 -10.5t64 -36.5t48 -68t19 -99q0 -94 -53.5 -154t-143.5 -60q-33 0 -68 10.5t-67.5 39.5t-48.5 73.5t-16 90.5zM149 510q0 -25 9 -53t32 -46t53 -18q41 0 66 30.5t25 86.5t-24 86.5t-69 30.5q-43 0 -67.5 -30.5t-24.5 -86.5z" />
    <glyph glyph-name="uniF662" unicode="&#xf662;" horiz-adv-x="315" 
d="M10 653l162 68h77v-421h-105v305l-97 -40z" />
    <glyph glyph-name="uniF663" unicode="&#xf663;" horiz-adv-x="421" 
d="M110 568l-75 46q22 53 70.5 81.5t111.5 28.5q71 0 113 -34t42 -89q0 -27 -11.5 -59.5t-39 -62t-62.5 -52.5l-52 -33h181v-94h-345v81l88 54q136 84 136 142q0 53 -59 53q-34 0 -59 -17t-39 -45z" />
    <glyph glyph-name="uniF664" unicode="&#xf664;" horiz-adv-x="429" 
d="M106 579l-70 54q19 30 49.5 52.5t65.5 31t65 8.5q33 0 72 -9t64 -34.5t25 -61.5q0 -34 -16 -57.5t-47 -38.5q21 -6 39 -20t26 -36t8 -43q0 -22 -9 -44.5t-30.5 -41.5t-56 -31.5t-81.5 -12.5q-43 0 -82 14t-64 39.5t-37 50.5l78 48q10 -26 39 -42t66 -16q71 0 71 41
t-73 41h-47v81h39q34 0 52.5 11t18.5 32q0 36 -57 36q-39 0 -63.5 -12.5t-44.5 -39.5z" />
    <glyph glyph-name="uniF665" unicode="&#xf665;" horiz-adv-x="453" 
d="M258 300v76h-246v73l258 271h87v-253h76v-91h-76v-76h-99zM133 467h125v126z" />
    <glyph glyph-name="uniF666" unicode="&#xf666;" horiz-adv-x="416" 
d="M61 471l21 249h278v-94h-195l-9 -57q22 5 57 5q74 0 117.5 -38t43.5 -99q0 -23 -9 -48t-30.5 -45.5t-55.5 -34.5t-79 -14q-57 0 -101.5 20.5t-71.5 60.5l74 60q14 -20 40 -33.5t54 -13.5q35 0 54.5 13.5t19.5 34.5q0 25 -24 39t-66 14q-51 0 -118 -19z" />
    <glyph glyph-name="uniF667" unicode="&#xf667;" horiz-adv-x="469" 
d="M43 499q0 41 11 81.5t37 72.5t67.5 52t98.5 20q94 0 151 -41l-42 -75q-45 25 -111 25q-23 0 -49 -9t-43 -32t-17 -54q46 46 120 46q80 0 124.5 -38.5t44.5 -101.5q0 -40 -22 -73t-64 -55t-99 -22q-67 0 -113.5 27.5t-70 72t-23.5 104.5zM159 457q2 -28 26.5 -48t63.5 -20
q37 0 59 15t22 41q0 25 -23.5 38.5t-60.5 13.5q-65 0 -87 -40z" />
    <glyph glyph-name="uniF668" unicode="&#xf668;" horiz-adv-x="386" 
d="M20 622v98h346v-75l-192 -345h-117l185 322h-222z" />
    <glyph glyph-name="uniF669" unicode="&#xf669;" horiz-adv-x="484" 
d="M232 556h20q27 0 44 10.5t17 30.5q0 15 -13.5 26t-58.5 11q-33 0 -51.5 -9.5t-18.5 -27.5q0 -20 16.5 -30.5t44.5 -10.5zM251 475h-17q-36 0 -57 -12t-21 -33t22.5 -32.5t63.5 -11.5q86 0 86 43q0 22 -20.5 34t-56.5 12zM242 295q-51 0 -97 14.5t-70.5 44t-24.5 63.5
q0 33 18 59.5t50 41.5q-52 26 -52 89q0 53 49.5 85.5t126.5 32.5t126.5 -32.5t49.5 -85.5q0 -57 -53 -87q69 -24 69 -100q0 -58 -54.5 -91.5t-137.5 -33.5z" />
    <glyph glyph-name="uniF66A" unicode="&#xf66a;" horiz-adv-x="469" 
d="M425 521q0 -54 -16 -97t-45 -71.5t-68 -43t-84 -14.5q-94 0 -151 41l42 75q45 -25 110 -25q24 0 50 9t43 32t17 54q-46 -46 -120 -46q-80 0 -125 38.5t-45 101.5q0 40 22 73t64.5 55t99.5 22q44 0 82 -13.5t65.5 -39.5t43 -64.5t15.5 -86.5zM310 563q-2 28 -26.5 48
t-64.5 20q-36 0 -58 -15t-22 -41q0 -25 23.5 -38.5t59.5 -13.5q66 0 88 40z" />
    <glyph glyph-name="uniF66D" unicode="&#xf66d;" horiz-adv-x="605" 
d="M-2 0l261 560h88l261 -560h-123l-53 109h-261l-53 -109h-120zM301 387l-89 -179h177zM143 717l51 58q26 -29 56 -42t56 -13q35 0 66 15.5t49 37.5l40 -55q-63 -95 -159 -95q-31 0 -63 12.5t-57.5 36t-38.5 45.5z" />
    <glyph glyph-name="uniF66E" unicode="&#xf66e;" horiz-adv-x="605" 
d="M-2 0l261 560h88l261 -560h-123l-53 109h-261l-53 -109h-120zM301 387l-89 -179h177zM162 638v96h281v-96h-281z" />
    <glyph glyph-name="uniF66F" unicode="&#xf66f;" horiz-adv-x="605" 
d="M582 -96l35 -73q-13 -13 -41 -22t-60 -9q-54 0 -92 24.5t-38 71.5q0 19 9.5 40.5t32.5 39.5t54 29l-50 104h-261l-53 -109h-120l261 560h88l261 -560h-39q-25 -2 -45.5 -22t-20.5 -44q0 -17 10.5 -28t26.5 -11q23 0 42 9zM301 387l-89 -179h177z" />
    <glyph glyph-name="uniF671" unicode="&#xf671;" horiz-adv-x="590" 
d="M511 179l68 -75q-37 -52 -103 -81t-143 -29q-68 0 -125.5 20.5t-97.5 58t-61.5 91t-21.5 116.5q0 59 22 111.5t62.5 91.5t97.5 61t124 22q37 0 83.5 -9t88.5 -34t65 -58l-78 -73q-27 30 -67.5 45.5t-84.5 15.5q-87 0 -139 -46.5t-52 -126.5q0 -28 9.5 -58t33 -55.5
t61 -42.5t89.5 -17t95.5 18.5t73.5 53.5zM454 769l-127 -158l-76 54l118 168z" />
    <glyph glyph-name="uniF672" unicode="&#xf672;" horiz-adv-x="590" 
d="M511 179l68 -75q-37 -52 -103 -81t-143 -29q-68 0 -125.5 20.5t-97.5 58t-61.5 91t-21.5 116.5q0 59 22 111.5t62.5 91.5t97.5 61t124 22q37 0 83.5 -9t88.5 -34t65 -58l-78 -73q-27 30 -67.5 45.5t-84.5 15.5q-87 0 -139 -46.5t-52 -126.5q0 -28 9.5 -58t33 -55.5
t61 -42.5t89.5 -17t95.5 18.5t73.5 53.5zM314 609l-156 131l56 69l103 -87l105 85l52 -68l-156 -130h-4z" />
    <glyph glyph-name="uniF673" unicode="&#xf673;" horiz-adv-x="590" 
d="M511 179l68 -75q-37 -52 -103 -81t-143 -29q-68 0 -125.5 20.5t-97.5 58t-61.5 91t-21.5 116.5q0 59 22 111.5t62.5 91.5t97.5 61t124 22q37 0 83.5 -9t88.5 -34t65 -58l-78 -73q-27 30 -67.5 45.5t-84.5 15.5q-87 0 -139 -46.5t-52 -126.5q0 -28 9.5 -58t33 -55.5
t61 -42.5t89.5 -17t95.5 18.5t73.5 53.5zM314 803l157 -131l-57 -69l-102 87l-106 -85l-52 68l156 130h4z" />
    <glyph glyph-name="uniF674" unicode="&#xf674;" horiz-adv-x="590" 
d="M511 179l68 -75q-37 -52 -103 -81t-143 -29q-68 0 -125.5 20.5t-97.5 58t-61.5 91t-21.5 116.5q0 59 22 111.5t62.5 91.5t97.5 61t124 22q37 0 83.5 -9t88.5 -34t65 -58l-78 -73q-27 30 -67.5 45.5t-84.5 15.5q-87 0 -139 -46.5t-52 -126.5q0 -28 9.5 -58t33 -55.5
t61 -42.5t89.5 -17t95.5 18.5t73.5 53.5zM253 697q0 25 19.5 42.5t47.5 17.5t47 -17.5t19 -42.5q0 -27 -19 -44.5t-47 -17.5q-29 0 -48 17.5t-19 44.5z" />
    <glyph glyph-name="uniF675" unicode="&#xf675;" horiz-adv-x="611" 
d="M58 0v560h187q67 0 130.5 -14.5t109.5 -48t72.5 -86t26.5 -124.5q0 -60 -21 -112.5t-64 -91.5t-110.5 -61t-155.5 -22h-175zM243 451h-68v-342h68q112 0 165.5 47t53.5 131q0 164 -219 164zM264 609l-156 131l56 69l103 -87l105 85l52 -68l-156 -130h-4z" />
    <glyph glyph-name="uniF676" unicode="&#xf676;" horiz-adv-x="665" 
d="M15 231v97h97v232h187q67 0 130.5 -14.5t109.5 -48t72.5 -86t26.5 -124.5q0 -60 -21 -112.5t-63.5 -91.5t-110 -61t-155.5 -22h-176v231h-97zM297 451h-68v-123h142v-97h-142v-122h68q42 0 82.5 8.5t71 29t48 55t17.5 85.5q0 164 -219 164z" />
    <glyph glyph-name="uniF678" unicode="&#xf678;" horiz-adv-x="550" 
d="M58 0v560h448v-109h-331v-114h309v-106h-309v-122h339v-109h-456zM281 609l-156 131l56 69l103 -87l105 85l52 -68l-156 -130h-4z" />
    <glyph glyph-name="uniF679" unicode="&#xf679;" horiz-adv-x="550" 
d="M58 0v560h448v-109h-331v-114h309v-106h-309v-122h339v-109h-456zM220 697q0 25 19.5 42.5t47.5 17.5t47 -17.5t19 -42.5q0 -27 -19 -44.5t-47 -17.5q-29 0 -48 17.5t-19 44.5z" />
    <glyph glyph-name="uniF67A" unicode="&#xf67a;" horiz-adv-x="550" 
d="M58 0v560h448v-109h-331v-114h309v-106h-309v-122h339v-109h-456zM147 638v96h281v-96h-281z" />
    <glyph glyph-name="uniF67C" unicode="&#xf67c;" horiz-adv-x="550" 
d="M58 0v560h448v-109h-331v-114h309v-106h-309v-122h339v-109h-11q-25 -2 -45.5 -22t-20.5 -44q0 -17 10.5 -28t26.5 -11q23 0 42 9l35 -73q-13 -13 -41 -22t-60 -9q-54 0 -92 24.5t-38 71.5q0 35 23 61.5t60 42.5h-345z" />
    <glyph glyph-name="uniF67D" unicode="&#xf67d;" horiz-adv-x="611" 
d="M317 204v106h266v-224q-41 -43 -104 -67.5t-132 -24.5q-68 0 -127.5 20.5t-102.5 58t-66.5 91t-23.5 116.5q0 58 22.5 111t63.5 92t98 61t123 22q75 0 139.5 -26t96.5 -69l-80 -73q-24 27 -63 41t-88 14q-87 0 -138.5 -46t-51.5 -127q0 -82 55 -127.5t144 -45.5
q31 0 64.5 7t58.5 24v66h-154zM160 717l51 58q26 -29 56 -42t56 -13q35 0 66 15.5t49 37.5l40 -55q-63 -95 -159 -95q-31 0 -63 12.5t-57.5 36t-38.5 45.5z" />
    <glyph glyph-name="uniF67E" unicode="&#xf67e;" horiz-adv-x="611" 
d="M317 204v106h266v-224q-41 -43 -104 -67.5t-132 -24.5q-68 0 -127.5 20.5t-102.5 58t-66.5 91t-23.5 116.5q0 58 22.5 111t63.5 92t98 61t123 22q75 0 139.5 -26t96.5 -69l-80 -73q-24 27 -63 41t-88 14q-87 0 -138.5 -46t-51.5 -127q0 -82 55 -127.5t144 -45.5
q31 0 64.5 7t58.5 24v66h-154zM327 803l157 -131l-57 -69l-102 87l-106 -85l-52 68l156 130h4z" />
    <glyph glyph-name="uniF67F" unicode="&#xf67f;" horiz-adv-x="611" 
d="M317 204v106h266v-224q-41 -43 -104 -67.5t-132 -24.5q-68 0 -127.5 20.5t-102.5 58t-66.5 91t-23.5 116.5q0 58 22.5 111t63.5 92t98 61t123 22q75 0 139.5 -26t96.5 -69l-80 -73q-24 27 -63 41t-88 14q-87 0 -138.5 -46t-51.5 -127q0 -82 55 -127.5t144 -45.5
q31 0 64.5 7t58.5 24v66h-154zM270 -100l94 62q20 -16 32.5 -38.5t12.5 -48.5q0 -25 -10.5 -55.5t-33.5 -56.5t-48 -41l-53 41q15 15 25 36.5t10 41.5q0 28 -29 59z" />
    <glyph glyph-name="uniF680" unicode="&#xf680;" horiz-adv-x="611" 
d="M317 204v106h266v-224q-41 -43 -104 -67.5t-132 -24.5q-68 0 -127.5 20.5t-102.5 58t-66.5 91t-23.5 116.5q0 58 22.5 111t63.5 92t98 61t123 22q75 0 139.5 -26t96.5 -69l-80 -73q-24 27 -63 41t-88 14q-87 0 -138.5 -46t-51.5 -127q0 -82 55 -127.5t144 -45.5
q31 0 64.5 7t58.5 24v66h-154zM263 697q0 25 19.5 42.5t47.5 17.5t47 -17.5t19 -42.5q0 -27 -19 -44.5t-47 -17.5q-29 0 -48 17.5t-19 44.5z" />
    <glyph glyph-name="uniF681" unicode="&#xf681;" horiz-adv-x="637" 
d="M0 403v91h58v66h117v-66h288v66h117v-66h57v-91h-57v-403h-117v228h-288v-228h-117v403h-58zM175 337h288v66h-288v-66z" />
    <glyph glyph-name="uniF682" unicode="&#xf682;" horiz-adv-x="638" 
d="M463 0v228h-288v-228h-117v560h117v-222h288v222h117v-560h-117zM321 803l157 -131l-57 -69l-102 87l-106 -85l-52 68l156 130h4z" />
    <glyph glyph-name="uniF685" unicode="&#xf685;" horiz-adv-x="243" 
d="M63 0v560h117v-560h-117zM-19 638v96h281v-96h-281z" />
    <glyph glyph-name="uniF686" unicode="&#xf686;" horiz-adv-x="243" 
d="M63 0v560h117v-560h-9q-25 -2 -45.5 -22t-20.5 -44q0 -17 10.5 -28t26.5 -11q23 0 42 9l35 -73q-13 -13 -41 -22t-60 -9q-54 0 -92 24.5t-38 71.5q0 35 23 61.5t60 42.5h-8z" />
    <glyph glyph-name="uniF688" unicode="&#xf688;" horiz-adv-x="415" 
d="M361 560v-383q0 -87 -49.5 -135t-131.5 -48q-62 0 -111 26.5t-76 79.5l86 66q43 -64 91 -63q39 0 56.5 21.5t17.5 75.5v360h117zM290 803l157 -131l-57 -69l-102 87l-106 -85l-52 68l156 130h4z" />
    <glyph glyph-name="uniF689" unicode="&#xf689;" horiz-adv-x="588" 
d="M58 0v560h117v-225l249 225h153l-265 -249l282 -311h-154l-217 233l-48 -43v-190h-117zM210 -100l94 62q20 -16 32.5 -38.5t12.5 -48.5q0 -25 -10.5 -55.5t-33.5 -56.5t-48 -41l-53 41q15 15 25 36.5t10 41.5q0 28 -29 59z" />
    <glyph glyph-name="uniF68A" unicode="&#xf68a;" horiz-adv-x="513" 
d="M58 0v560h117v-451h329v-109h-446zM341 769l-127 -158l-76 54l118 168z" />
    <glyph glyph-name="uniF68B" unicode="&#xf68b;" horiz-adv-x="513" 
d="M58 0v560h117v-451h329v-109h-446zM329 560h119q13 -23 13 -67q0 -45 -28.5 -90.5t-79.5 -77.5l-49 45q17 15 32.5 44t15.5 61q0 24 -7 48.5t-16 36.5z" />
    <glyph glyph-name="uniF68C" unicode="&#xf68c;" horiz-adv-x="513" 
d="M58 0v560h117v-451h329v-109h-446zM213 -100l94 62q20 -16 32.5 -38.5t12.5 -48.5q0 -25 -10.5 -55.5t-33.5 -56.5t-48 -41l-53 41q15 15 25 36.5t10 41.5q0 28 -29 59z" />
    <glyph glyph-name="uniF68D" unicode="&#xf68d;" horiz-adv-x="513" 
d="M58 0v560h117v-451h329v-109h-446zM297 309q0 12 7.5 29t27.5 30.5t46 13.5q33 0 56.5 -23t23.5 -50q0 -29 -23.5 -52t-56.5 -23q-35 0 -58 22.5t-23 52.5z" />
    <glyph glyph-name="uniF68E" unicode="&#xf68e;" horiz-adv-x="629" 
d="M571 0h-91l-308 357v-357h-114v560h90l309 -359v359h114v-560zM441 769l-127 -158l-76 54l118 168z" />
    <glyph glyph-name="uniF68F" unicode="&#xf68f;" horiz-adv-x="629" 
d="M571 0h-91l-308 357v-357h-114v560h90l309 -359v359h114v-560zM312 609l-156 131l56 69l103 -87l105 85l52 -68l-156 -130h-4z" />
    <glyph glyph-name="uniF690" unicode="&#xf690;" horiz-adv-x="629" 
d="M571 0h-91l-308 357v-357h-114v560h90l309 -359v359h114v-560zM247 -100l94 62q20 -16 32.5 -38.5t12.5 -48.5q0 -25 -10.5 -55.5t-33.5 -56.5t-48 -41l-53 41q15 15 25 36.5t10 41.5q0 28 -29 59z" />
    <glyph glyph-name="uniF692" unicode="&#xf692;" horiz-adv-x="665" 
d="M27 280q0 58 23.5 111t65.5 92t98.5 61t118.5 22t118 -21.5t98 -60t65.5 -91.5t23.5 -113t-23.5 -113t-65.5 -91.5t-98 -60t-118 -21.5t-118 21.5t-98.5 60t-66 91.5t-23.5 113zM149 280q0 -48 24.5 -89.5t69 -62.5t90.5 -21q28 0 58.5 8t58 28t47 54.5t19.5 82.5
t-22.5 86t-64.5 62.5t-96 24.5q-36 0 -69.5 -12t-59.5 -34.5t-40.5 -55t-14.5 -71.5zM544 769l-138 -158l-61 45l124 170zM380 779l-127 -168l-62 46l114 176z" />
    <glyph glyph-name="uniF693" unicode="&#xf693;" horiz-adv-x="665" 
d="M27 280q0 58 23.5 111t65.5 92t98.5 61t118.5 22t118 -21.5t98 -60t65.5 -91.5t23.5 -113t-23.5 -113t-65.5 -91.5t-98 -60t-118 -21.5t-118 21.5t-98.5 60t-66 91.5t-23.5 113zM149 280q0 -48 24.5 -89.5t69 -62.5t90.5 -21q28 0 58.5 8t58 28t47 54.5t19.5 82.5
t-22.5 86t-64.5 62.5t-96 24.5q-36 0 -69.5 -12t-59.5 -34.5t-40.5 -55t-14.5 -71.5zM192 638v96h281v-96h-281z" />
    <glyph glyph-name="uniF695" unicode="&#xf695;" horiz-adv-x="583" 
d="M175 0h-117v560h237q114 0 175.5 -45t61.5 -135q0 -26 -11 -58.5t-41.5 -61.5t-71.5 -43l173 -217h-142l-154 195h-110v-195zM292 451h-117v-147h122q53 0 83.5 20.5t30.5 55.5q0 34 -27 52.5t-92 18.5zM394 769l-127 -158l-76 54l118 168z" />
    <glyph glyph-name="uniF696" unicode="&#xf696;" horiz-adv-x="583" 
d="M175 0h-117v560h237q114 0 175.5 -45t61.5 -135q0 -26 -11 -58.5t-41.5 -61.5t-71.5 -43l173 -217h-142l-154 195h-110v-195zM292 451h-117v-147h122q53 0 83.5 20.5t30.5 55.5q0 34 -27 52.5t-92 18.5zM267 609l-156 131l56 69l103 -87l105 85l52 -68l-156 -130h-4z" />
    <glyph glyph-name="uniF697" unicode="&#xf697;" horiz-adv-x="583" 
d="M175 0h-117v560h237q114 0 175.5 -45t61.5 -135q0 -26 -11 -58.5t-41.5 -61.5t-71.5 -43l173 -217h-142l-154 195h-110v-195zM292 451h-117v-147h122q53 0 83.5 20.5t30.5 55.5q0 34 -27 52.5t-92 18.5zM213 -100l94 62q20 -16 32.5 -38.5t12.5 -48.5q0 -25 -10.5 -55.5
t-33.5 -56.5t-48 -41l-53 41q15 15 25 36.5t10 41.5q0 28 -29 59z" />
    <glyph glyph-name="uniF698" unicode="&#xf698;" horiz-adv-x="539" 
d="M396 155q0 19 -19 36t-96.5 36t-112 30t-60 26t-41 32t-24 39.5t-8.5 49.5q0 41 30 80t87 60.5t120 21.5q156 0 229 -76l-62 -86q-74 53 -178 53q-105 0 -105 -51q0 -8 6 -18.5t28 -21.5t99 -29.5t113 -33t60.5 -33t39.5 -45.5t15 -62q0 -27 -11.5 -56.5t-39.5 -54
t-73.5 -41.5t-108.5 -17q-37 0 -87 9.5t-100.5 34t-78.5 55.5l64 87q104 -77 218 -77q48 0 72 14t24 38zM397 769l-127 -158l-76 54l118 168z" />
    <glyph glyph-name="uniF699" unicode="&#xf699;" horiz-adv-x="519" 
d="M142 -166l35 59q14 -11 35 -18t43 -7q39 0 39 21q0 23 -49 23h-13v85q-66 8 -126 40t-86 71l71 85q35 -42 87 -66t112 -24q38 0 62 14.5t24 37.5q0 21 -22.5 36t-78.5 30t-85.5 23.5t-57 21.5t-47 29t-35 42t-15.5 67t27.5 80t82 60.5t117.5 21.5q74 0 133 -24t96 -70
l-78 -76q-27 28 -68 44.5t-94 16.5q-28 0 -52 -7.5t-33.5 -19.5t-9.5 -24q0 -16 13.5 -28t37.5 -21t97 -28.5t116 -44t60 -56t17 -65.5q0 -35 -14 -65.5t-40.5 -52.5t-64.5 -35t-83 -15v-27q49 -3 76 -25.5t27 -59.5q0 -29 -20 -51t-51.5 -30.5t-65.5 -8.5q-67 0 -119 41z
" />
    <glyph glyph-name="uniF69A" unicode="&#xf69a;" horiz-adv-x="539" 
d="M396 155q0 19 -19 36t-96.5 36t-112 30t-60 26t-41 32t-24 39.5t-8.5 49.5q0 41 30 80t87 60.5t120 21.5q156 0 229 -76l-62 -86q-74 53 -178 53q-105 0 -105 -51q0 -8 6 -18.5t28 -21.5t99 -29.5t113 -33t60.5 -33t39.5 -45.5t15 -62q0 -27 -11.5 -56.5t-39.5 -54
t-73.5 -41.5t-108.5 -17q-37 0 -87 9.5t-100.5 34t-78.5 55.5l64 87q104 -77 218 -77q48 0 72 14t24 38zM271 803l157 -131l-57 -69l-102 87l-106 -85l-52 68l156 130h4z" />
    <glyph glyph-name="uniF69B" unicode="&#xf69b;" horiz-adv-x="539" 
d="M396 155q0 19 -19 36t-96.5 36t-112 30t-60 26t-41 32t-24 39.5t-8.5 49.5q0 41 30 80t87 60.5t120 21.5q156 0 229 -76l-62 -86q-74 53 -178 53q-105 0 -105 -51q0 -8 6 -18.5t28 -21.5t99 -29.5t113 -33t60.5 -33t39.5 -45.5t15 -62q0 -27 -11.5 -56.5t-39.5 -54
t-73.5 -41.5t-108.5 -17q-37 0 -87 9.5t-100.5 34t-78.5 55.5l64 87q104 -77 218 -77q48 0 72 14t24 38zM210 -100l94 62q20 -16 32.5 -38.5t12.5 -48.5q0 -25 -10.5 -55.5t-33.5 -56.5t-48 -41l-53 41q15 15 25 36.5t10 41.5q0 28 -29 59z" />
    <glyph glyph-name="uniF69D" unicode="&#xf69d;" horiz-adv-x="515" 
d="M4 451v109h507v-109h-195v-451h-117v451h-195zM255 609l-156 131l56 69l103 -87l105 85l52 -68l-156 -130h-4z" />
    <glyph glyph-name="uniF69E" unicode="&#xf69e;" horiz-adv-x="515" 
d="M4 451v109h507v-109h-195v-451h-117v451h-195zM193 -100l94 62q20 -16 32.5 -38.5t12.5 -48.5q0 -25 -10.5 -55.5t-33.5 -56.5t-48 -41l-53 41q15 15 25 36.5t10 41.5q0 28 -29 59z" />
    <glyph glyph-name="uniF69F" unicode="&#xf69f;" horiz-adv-x="618" 
d="M566 560v-320q0 -47 -14 -92t-46.5 -79t-80.5 -54t-109 -20q-52 0 -100 16t-85 47.5t-58 79t-21 106.5v316h117v-302q0 -40 17.5 -77t52.5 -57t77 -20q25 0 49.5 7.5t45.5 29t29.5 53.5t8.5 61v305h117zM150 717l51 58q26 -29 56 -42t56 -13q35 0 66 15.5t49 37.5l40 -55
q-63 -95 -159 -95q-31 0 -63 12.5t-57.5 36t-38.5 45.5z" />
    <glyph glyph-name="uniF6A0" unicode="&#xf6a0;" horiz-adv-x="618" 
d="M566 560v-320q0 -47 -14 -92t-46.5 -79t-80.5 -54t-109 -20q-52 0 -100 16t-85 47.5t-58 79t-21 106.5v316h117v-302q0 -40 17.5 -77t52.5 -57t77 -20q25 0 49.5 7.5t45.5 29t29.5 53.5t8.5 61v305h117zM520 769l-138 -158l-61 45l124 170zM356 779l-127 -168l-62 46
l114 176z" />
    <glyph glyph-name="uniF6A1" unicode="&#xf6a1;" horiz-adv-x="618" 
d="M566 560v-320q0 -47 -14 -92t-46.5 -79t-80.5 -54t-109 -20q-52 0 -100 16t-85 47.5t-58 79t-21 106.5v316h117v-302q0 -40 17.5 -77t52.5 -57t77 -20q25 0 49.5 7.5t45.5 29t29.5 53.5t8.5 61v305h117zM169 638v96h281v-96h-281z" />
    <glyph glyph-name="uniF6A2" unicode="&#xf6a2;" horiz-adv-x="618" 
d="M566 560v-320q0 -89 -40.5 -146t-105.5 -81q-63 -40 -63 -81q0 -17 10.5 -27t26.5 -10q23 0 42 9l35 -73q-13 -13 -41 -22t-60 -9q-54 0 -92 24.5t-38 71.5q0 58 76 99q-52 0 -100 16t-85 47.5t-58 79t-21 106.5v316h117v-302q0 -40 17.5 -77t52.5 -57t77 -20
q25 0 49.5 7.5t45.5 29t29.5 53.5t8.5 61v305h117z" />
    <glyph glyph-name="uniF6A3" unicode="&#xf6a3;" horiz-adv-x="618" 
d="M566 560v-320q0 -47 -14 -92t-46.5 -79t-80.5 -54t-109 -20q-52 0 -100 16t-85 47.5t-58 79t-21 106.5v316h117v-302q0 -40 17.5 -77t52.5 -57t77 -20q25 0 49.5 7.5t45.5 29t29.5 53.5t8.5 61v305h117zM186 721q0 48 35 82.5t87 34.5q38 0 69 -20t43 -47.5t12 -49.5
t-12 -49t-43 -46.5t-69 -19.5q-52 0 -87 33.5t-35 81.5zM263 722q0 -20 13 -33t34 -13q20 0 32.5 12.5t12.5 33.5t-12.5 33.5t-32.5 12.5q-21 0 -34 -12.5t-13 -33.5z" />
    <glyph glyph-name="uniF6AB" unicode="&#xf6ab;" horiz-adv-x="539" 
d="M24 451v109h490v-78l-337 -373h345v-109h-512v78l335 373h-321zM394 769l-127 -158l-76 54l118 168z" />
    <glyph glyph-name="uniF6AC" unicode="&#xf6ac;" horiz-adv-x="539" 
d="M24 451v109h490v-78l-337 -373h345v-109h-512v78l335 373h-321zM203 697q0 25 19.5 42.5t47.5 17.5t47 -17.5t19 -42.5q0 -27 -19 -44.5t-47 -17.5q-29 0 -48 17.5t-19 44.5z" />
    <glyph glyph-name="uniF6AD" unicode="&#xf6ad;" horiz-adv-x="243" 
d="M63 0v560h117v-560h-117zM55 697q0 25 19.5 42.5t47.5 17.5t47 -17.5t19 -42.5q0 -27 -19 -44.5t-47 -17.5q-29 0 -48 17.5t-19 44.5z" />
    <glyph glyph-name="uniF6BA" unicode="&#xf6ba;" horiz-adv-x="416" 
d="M69 309v101h278v-101h-278z" />
    <glyph glyph-name="uniF6BB" unicode="&#xf6bb;" horiz-adv-x="607" 
d="M85 311v99h437v-99h-437z" />
    <glyph glyph-name="uniF6BC" unicode="&#xf6bc;" horiz-adv-x="796" 
d="M85 311v99h626v-99h-626z" />
    <glyph glyph-name="uniF6C3" unicode="&#xf6c3;" horiz-adv-x="366" 
d="M226 -100l95 62q20 -16 32.5 -38.5t12.5 -48.5q0 -25 -10.5 -55.5t-33.5 -56.5t-48 -41l-53 41q15 15 25 36.5t10 41.5q0 27 -30 59z" />
    <glyph glyph-name="uniF6C9" unicode="&#xf6c9;" horiz-adv-x="572" 
d="M572 849l-220 -104l-43 76l210 128z" />
    <glyph glyph-name="uniF6CA" unicode="&#xf6ca;" horiz-adv-x="529" 
d="M352 750l-183 111l46 68l139 -79l138 79l41 -67l-177 -112h-4z" />
    <glyph glyph-name="uniF6CB" unicode="&#xf6cb;" horiz-adv-x="513" 
d="M136 828q0 26 20 44t50 18q11 0 26.5 -6t27.5 -21.5t12 -34.5q0 -27 -20.5 -44.5t-45.5 -17.5q-30 0 -50 17t-20 45zM379 828q0 26 20.5 44t48.5 18q25 0 45.5 -18t20.5 -44q0 -27 -20 -44.5t-46 -17.5q-28 0 -48.5 17.5t-20.5 44.5z" />
    <glyph glyph-name="uniF6CE" unicode="&#xf6ce;" horiz-adv-x="471" 
d="M428 745l-219 104l53 100l210 -128z" />
    <glyph glyph-name="uniF6CF" unicode="&#xf6cf;" horiz-adv-x="643" 
d="M643 845l-187 -106l-47 53l157 129zM440 864l-163 -125l-48 49l117 133z" />
    <glyph glyph-name="uniF6D0" unicode="&#xf6d0;" horiz-adv-x="527" 
d="M220 780v95h307v-95h-307z" />
    <glyph glyph-name="uniF6D1" unicode="&#xf6d1;" horiz-adv-x="574" 
d="M174 908h114q22 -59 86 -59q33 0 56.5 15t29.5 44h114q-5 -67 -61 -112.5t-135 -45.5q-32 0 -65.5 8t-61.5 27t-48.5 49.5t-28.5 73.5z" />
    <glyph glyph-name="uniF6D4" unicode="&#xf6d4;" horiz-adv-x="481" 
d="M132 741h105q1 -31 19.5 -49.5t52.5 -18.5q33 0 50.5 18.5t17.5 49.5h104q-1 -27 -10 -55t-33.5 -53t-59.5 -36.5t-69 -11.5q-56 0 -95.5 20.5t-60 54.5t-21.5 81z" />
    <glyph glyph-name="uniF6F4" unicode="&#xf6f4;" horiz-adv-x="496" 
d="M177 717l51 58q26 -29 56 -42t56 -13q35 0 66 15.5t49 37.5l40 -55q-63 -95 -159 -95q-31 0 -63 12.5t-57.5 36t-38.5 45.5z" />
    <glyph glyph-name="uniF6F5" unicode="&#xf6f5;" horiz-adv-x="484" 
d="M324 609l-156 131l56 69l103 -87l105 85l52 -68l-156 -130h-4z" />
    <glyph glyph-name="uniF6F6" unicode="&#xf6f6;" horiz-adv-x="481" 
d="M324 803l157 -131l-57 -69l-102 87l-106 -85l-52 68l156 130h4z" />
    <glyph glyph-name="uniF6F7" unicode="&#xf6f7;" horiz-adv-x="396" 
d="M263 697q0 25 19.5 42.5t47.5 17.5t47 -17.5t19 -42.5q0 -27 -19 -44.5t-47 -17.5q-29 0 -48 17.5t-19 44.5z" />
    <glyph glyph-name="uniF6F8" unicode="&#xf6f8;" horiz-adv-x="537" 
d="M537 769l-138 -158l-61 45l124 170zM373 779l-127 -168l-62 46l114 176z" />
    <glyph glyph-name="uniF6F9" unicode="&#xf6f9;" horiz-adv-x="523" 
d="M0 91v118l68 47v304h117v-224l160 111v-118l-160 -111v-109h330v-109h-447v138z" />
    <glyph glyph-name="uniF6FA" unicode="&#xf6fa;" horiz-adv-x="972" 
d="M480 0v35q-31 -19 -69.5 -30t-77.5 -11q-62 0 -118 21.5t-98.5 60t-66 91.5t-23.5 113q0 58 23.5 111t65.5 92t98.5 61t118.5 22q42 0 80 -11t67 -28v33h449v-109h-332v-114h309v-106h-309v-122h339v-109h-456zM333 107q44 0 83.5 17t63.5 46v217q-26 31 -65.5 48.5
t-81.5 17.5q-36 0 -69.5 -12t-59.5 -34.5t-40.5 -55t-14.5 -71.5q0 -48 24.5 -89.5t69 -62.5t90.5 -21z" />
    <glyph glyph-name="uniF6FB" unicode="&#xf6fb;" horiz-adv-x="393" 
d="M396 -96l35 -73q-13 -13 -41 -22t-60 -9q-54 0 -92 24.5t-38 71.5q0 23 10.5 43t31 36.5t60.5 31t87 16.5v-23q-27 0 -49.5 -20t-22.5 -46q0 -17 10.5 -28t26.5 -11q23 0 42 9z" />
    <glyph glyph-name="uniF6FC" unicode="&#xf6fc;" horiz-adv-x="464" 
d="M217 721q0 48 35 82.5t87 34.5q38 0 69 -20t43 -47.5t12 -49.5t-12 -49t-43 -46.5t-69 -19.5q-52 0 -87 33.5t-35 81.5zM294 722q0 -20 13 -33t34 -13q20 0 32.5 12.5t12.5 33.5t-12.5 33.5t-32.5 12.5q-21 0 -34 -12.5t-13 -33.5z" />
    </font>
</defs>
</svg>
